<svg width="269" height="134" viewBox="0 0 269 134" fill="none" xmlns="http://www.w3.org/2000/svg">
<path d="M244.935 58.2095H247.865V64.2401H244.935V58.2095Z" fill="#9B2226"/>
<path d="M244.935 69.2252H247.865V81.4044H244.935V69.2252Z" fill="#9B2226"/>
<path d="M244.935 51.3905H247.865V56.368H244.935V51.3905Z" fill="#9B2226"/>
<path d="M247.865 123.038V133.761L244.932 131.973V123.038H247.865Z" fill="#9B2226"/>
<path d="M244.935 90.3784H247.865V98.9464H244.935V90.3784Z" fill="#9B2226"/>
<path d="M244.935 82.6039H247.865V86.2304H244.935V82.6039Z" fill="#9B2226"/>
<path d="M244.935 100.829H247.865V103.975H244.935V100.829Z" fill="#9B2226"/>
<path d="M244.935 9.99098H247.865V14.0131H244.935V9.99098Z" fill="#9B2226"/>
<path d="M244.932 1.79021L247.865 0V7.37638H244.932V1.79021Z" fill="#9B2226"/>
<path d="M244.935 21.9878H247.865V26.313H244.935V21.9878Z" fill="#9B2226"/>
<path d="M244.935 28.6708H247.865V46.1998H244.935V28.6708Z" fill="#9B2226"/>
<path d="M244.935 107.386H247.865V119.655H244.935V107.386Z" fill="#9B2226"/>
<path d="M239.074 3.57775L244.932 0V1.79021L239.074 5.36537V3.57775Z" fill="#AE2012"/>
<path d="M244.932 131.973V133.761L239.074 130.183V128.395L244.932 131.973Z" fill="#AE2012"/>
<path d="M239.074 58.2095H244.932V64.2401H239.074V58.2095Z" fill="#AE2012"/>
<path d="M239.074 69.2252H244.932V81.4044H239.074V69.2252Z" fill="#AE2012"/>
<path d="M239.074 7.37638V5.36537L244.932 1.79021V7.37638H239.074Z" fill="#AE2012"/>
<path d="M239.074 107.386H244.932V119.655H239.074V107.386Z" fill="#AE2012"/>
<path d="M239.074 82.6039H244.932V86.2304H239.074V82.6039Z" fill="#AE2012"/>
<path d="M239.074 100.829H244.932V103.975H239.074V100.829Z" fill="#AE2012"/>
<path d="M239.074 90.3784H244.932V98.9464H239.074V90.3784Z" fill="#AE2012"/>
<path d="M239.074 21.9878H244.932V26.313H239.074V21.9878Z" fill="#AE2012"/>
<path d="M239.074 51.3905H244.932V56.368H239.074V51.3905Z" fill="#AE2012"/>
<path d="M239.074 28.6708H244.932V46.1998H239.074V28.6708Z" fill="#AE2012"/>
<path d="M239.074 9.99098H244.932V14.0131H239.074V9.99098Z" fill="#AE2012"/>
<path d="M239.074 123.038H244.932V131.973L239.074 128.395V123.038Z" fill="#AE2012"/>
<path d="M236.144 1.79021L239.074 0V3.57775L236.144 5.36537V1.79021Z" fill="#EE9B00"/>
<path d="M239.074 130.183V133.761L236.144 131.973V128.395L239.074 130.183Z" fill="#EE9B00"/>
<path d="M236.144 7.15549V5.36536L239.074 3.57774V5.36536L236.144 7.15549Z" fill="#EE9B00"/>
<path d="M236.144 126.608L239.074 128.395V130.183L236.144 128.395V126.608Z" fill="#EE9B00"/>
<path d="M236.144 28.6708H239.074V46.1998H236.144V28.6708Z" fill="#EE9B00"/>
<path d="M236.144 51.3905H239.074V56.368H236.144V51.3905Z" fill="#EE9B00"/>
<path d="M236.144 21.9878H239.074V26.313H236.144V21.9878Z" fill="#EE9B00"/>
<path d="M236.144 58.2095H239.074V64.2401H236.144V58.2095Z" fill="#EE9B00"/>
<path d="M236.144 9.99098H239.074V14.0131H236.144V9.99098Z" fill="#EE9B00"/>
<path d="M236.144 90.3784H239.074V98.9464H236.144V90.3784Z" fill="#EE9B00"/>
<path d="M236.144 107.386H239.074V119.655H236.144V107.386Z" fill="#EE9B00"/>
<path d="M236.144 69.2252H239.074V81.4044H236.144V69.2252Z" fill="#EE9B00"/>
<path d="M239.074 123.038V128.395L236.144 126.608V123.038H239.074Z" fill="#EE9B00"/>
<path d="M236.144 7.1555L239.074 5.36537V7.37638H236.144V7.1555Z" fill="#EE9B00"/>
<path d="M236.144 100.829H239.074V103.975H236.144V100.829Z" fill="#EE9B00"/>
<path d="M236.144 82.6039H239.074V86.2304H236.144V82.6039Z" fill="#EE9B00"/>
<path d="M187.178 26.313H184.248L191.335 21.9878H194.264L187.178 26.313Z" fill="#005F73"/>
<path d="M154.603 46.1972H151.673L168.308 36.0445H171.238L154.603 46.1972Z" fill="#005F73"/>
<path d="M207.327 14.0131H204.398L210.987 9.99098H213.916L207.327 14.0131Z" fill="#005F73"/>
<path d="M176.76 32.6722H173.83L180.389 28.6708H183.318L176.76 32.6722Z" fill="#005F73"/>
<path d="M137.943 56.368H135.014L143.167 51.3905H146.096L137.943 56.368Z" fill="#005F73"/>
<path d="M215.27 7.37638L227.354 0V1.79021L218.199 7.37638H215.27Z" fill="#005F73"/>
<path d="M125.047 64.2401H122.118L131.994 58.2095H134.923L125.047 64.2401Z" fill="#005F73"/>
<path d="M173.253 98.9489H170.321L143.55 82.6039H146.479L173.253 98.9489Z" fill="#005F73"/>
<path d="M207.174 119.655H204.245L184.142 107.386H187.074L207.174 119.655Z" fill="#005F73"/>
<path d="M124.56 69.2252L144.513 81.4044H141.583L121.631 69.2252H124.56Z" fill="#005F73"/>
<path d="M227.354 131.973V133.761L209.786 123.038H212.718L227.354 131.973Z" fill="#005F73"/>
<path d="M181.489 103.978H178.559L173.404 100.829H176.336L181.489 103.978Z" fill="#005F73"/>
<path d="M227.354 1.79021L230.283 0V3.57775L227.354 5.36537V1.79021Z" fill="#94D2BD"/>
<path d="M230.283 130.183V133.761L227.354 131.973V128.395L230.283 130.183Z" fill="#94D2BD"/>
<path d="M179.112 98.9489H173.253L146.479 82.6039H152.338L179.112 98.9489Z" fill="#94D2BD"/>
<path d="M187.35 103.978H181.489L176.336 100.829H182.194L187.35 103.978Z" fill="#94D2BD"/>
<path d="M213.033 119.655H207.174L187.074 107.386H192.932L213.033 119.655Z" fill="#94D2BD"/>
<path d="M193.039 26.313H187.178L194.264 21.9878H200.126L193.039 26.313Z" fill="#94D2BD"/>
<path d="M182.621 32.6722H176.76L183.319 28.6708H189.177L182.621 32.6722Z" fill="#94D2BD"/>
<path d="M213.189 14.0131H207.327L213.916 9.99098H219.778L213.189 14.0131Z" fill="#94D2BD"/>
<path d="M160.464 46.1972H154.603L171.238 36.0445H177.099L160.464 46.1972Z" fill="#94D2BD"/>
<path d="M130.908 64.2401H125.047L134.923 58.2095H140.785L130.908 64.2401Z" fill="#94D2BD"/>
<path d="M218.577 123.038L227.354 128.395V131.973L212.718 123.038H218.577Z" fill="#94D2BD"/>
<path d="M143.804 56.368H137.943L146.096 51.3905H151.958L143.804 56.368Z" fill="#94D2BD"/>
<path d="M224.061 7.37638H218.199L227.354 1.79021V5.36537L224.061 7.37638Z" fill="#94D2BD"/>
<path d="M150.374 81.4044H144.513L124.56 69.2252H130.421L150.374 81.4044Z" fill="#94D2BD"/>
<path d="M230.283 3.57775L236.145 0V1.79021L230.283 5.36537V3.57775Z" fill="#E9D8A6"/>
<path d="M236.145 131.973V133.761L230.283 130.183V128.395L236.145 131.973Z" fill="#E9D8A6"/>
<path d="M230.283 124.818L236.145 128.395V131.973L230.283 128.395V124.818Z" fill="#E9D8A6"/>
<path d="M232.849 7.37638H230.283V5.36537L236.145 1.79021V5.36537L232.849 7.37638Z" fill="#E9D8A6"/>
<path d="M230.297 123.038L236.145 126.608V128.395L230.283 124.818V123.038H230.297Z" fill="#E9D8A6"/>
<path d="M232.849 7.37638L236.145 5.36537V7.1555L235.781 7.37638H232.849Z" fill="#E9D8A6"/>
<path d="M230.283 9.99098H231.498L230.283 10.7332V9.99098Z" fill="#E9D8A6"/>
<path d="M230.283 28.6708H236.145V46.1998H230.283V28.6708Z" fill="#E9D8A6"/>
<path d="M230.283 51.3905H236.145V56.368H230.283V51.3905Z" fill="#E9D8A6"/>
<path d="M230.283 58.2095H236.145V64.2401H230.283V58.2095Z" fill="#E9D8A6"/>
<path d="M241.639 7.37638L242.003 7.1555V7.37638H241.639Z" fill="#E9D8A6"/>
<path d="M230.283 82.6039H236.145V86.2304H230.283V82.6039Z" fill="#E9D8A6"/>
<path d="M230.283 21.9878H236.145V26.313H230.283V21.9878Z" fill="#E9D8A6"/>
<path d="M230.283 14.0131V10.7332L231.498 9.99098H236.145V14.0131H230.283Z" fill="#E9D8A6"/>
<path d="M230.283 90.3784H236.145V98.9464H230.283V90.3784Z" fill="#E9D8A6"/>
<path d="M236.145 123.038V126.608L230.297 123.038H236.145Z" fill="#E9D8A6"/>
<path d="M230.283 107.386H236.145V119.655H230.283V107.386Z" fill="#E9D8A6"/>
<path d="M230.283 69.2252H236.145V81.4044H230.283V69.2252Z" fill="#E9D8A6"/>
<path d="M230.283 100.829H236.145V103.975H230.283V100.829Z" fill="#E9D8A6"/>
<path d="M227.354 7.15549V5.36536L230.283 3.57774V5.36536L227.354 7.15549Z" fill="#E9D8A6"/>
<path d="M227.354 126.608L230.283 128.395V130.183L227.354 128.395V126.608Z" fill="#E9D8A6"/>
<path d="M227.368 123.038L230.283 124.818V128.395L227.354 126.608V123.038H227.368Z" fill="#E9D8A6"/>
<path d="M227.354 9.99098H228.566L227.354 10.7332V9.99098Z" fill="#E9D8A6"/>
<path d="M227.354 7.1555L230.283 5.36537V7.37638H227.354V7.1555Z" fill="#E9D8A6"/>
<path d="M227.354 12.5208V10.7332L228.566 9.99098H230.283V10.7332L227.354 12.5208Z" fill="#E9D8A6"/>
<path d="M230.283 123.038V124.818L227.368 123.038H230.283Z" fill="#E9D8A6"/>
<path d="M227.354 51.3905H230.283V56.368H227.354V51.3905Z" fill="#E9D8A6"/>
<path d="M227.354 69.2252H230.283V81.4044H227.354V69.2252Z" fill="#E9D8A6"/>
<path d="M227.354 21.9878H230.283V26.313H227.354V21.9878Z" fill="#E9D8A6"/>
<path d="M227.354 28.6708H230.283V46.1998H227.354V28.6708Z" fill="#E9D8A6"/>
<path d="M227.354 58.2095H230.283V64.2401H227.354V58.2095Z" fill="#E9D8A6"/>
<path d="M227.354 12.5208L230.283 10.7332V14.0131H227.354V12.5208Z" fill="#E9D8A6"/>
<path d="M227.354 82.6039H230.283V86.2304H227.354V82.6039Z" fill="#E9D8A6"/>
<path d="M227.354 107.386H230.283V119.655H227.354V107.386Z" fill="#E9D8A6"/>
<path d="M227.354 100.829H230.283V103.975H227.354V100.829Z" fill="#E9D8A6"/>
<path d="M227.354 90.3784H230.283V98.9464H227.354V90.3784Z" fill="#E9D8A6"/>
<path d="M227.354 126.608V128.395L218.577 123.038H221.506L227.354 126.608Z" fill="#E9D8A6"/>
<path d="M215.965 119.655H213.033L192.932 107.386H195.864L215.965 119.655Z" fill="#E9D8A6"/>
<path d="M190.279 103.978H187.35L182.194 100.829H185.124L190.279 103.978Z" fill="#E9D8A6"/>
<path d="M143.714 58.2095L133.838 64.2401H130.908L140.785 58.2095H143.714Z" fill="#E9D8A6"/>
<path d="M153.303 81.4044H150.374L130.421 69.2252H133.351L153.303 81.4044Z" fill="#E9D8A6"/>
<path d="M182.044 98.9489H179.112L152.338 82.6039H155.27L182.044 98.9489Z" fill="#E9D8A6"/>
<path d="M213.189 14.0131L219.778 9.99098H222.707L216.118 14.0131H213.189Z" fill="#E9D8A6"/>
<path d="M195.968 26.313H193.039L200.126 21.9878H203.055L195.968 26.313Z" fill="#E9D8A6"/>
<path d="M185.55 32.6722H182.621L189.177 28.6708H192.109L185.55 32.6722Z" fill="#E9D8A6"/>
<path d="M146.734 56.368H143.804L151.958 51.3905H154.887L146.734 56.368Z" fill="#E9D8A6"/>
<path d="M163.393 46.1972H160.464L177.099 36.0445H180.028L163.393 46.1972Z" fill="#E9D8A6"/>
<path d="M224.061 7.37638L227.354 5.36537V7.1555L226.99 7.37638H224.061Z" fill="#E9D8A6"/>
<path d="M152.592 56.368H146.734L154.887 51.3905H160.748L152.592 56.368Z" fill="#E9D8A6"/>
<path d="M201.827 26.313H195.968L203.055 21.9878H208.916L201.827 26.313Z" fill="#E9D8A6"/>
<path d="M159.162 81.4044H153.303L133.351 69.2252H139.212L159.162 81.4044Z" fill="#E9D8A6"/>
<path d="M201.723 107.386L221.823 119.655H215.965L195.864 107.386H201.723Z" fill="#E9D8A6"/>
<path d="M232.849 7.37638L233.213 7.1555V7.37638H232.849Z" fill="#E9D8A6"/>
<path d="M227.354 123.038V126.608L221.506 123.038H227.354Z" fill="#E9D8A6"/>
<path d="M196.141 103.978H190.279L185.124 100.829H190.985L196.141 103.978Z" fill="#E9D8A6"/>
<path d="M187.903 98.9489H182.044L155.27 82.6039H161.129L187.903 98.9489Z" fill="#E9D8A6"/>
<path d="M139.696 64.2401H133.838L143.714 58.2095H149.575L139.696 64.2401Z" fill="#E9D8A6"/>
<path d="M169.252 46.1972H163.393L180.028 36.0445H185.887L169.252 46.1972Z" fill="#E9D8A6"/>
<path d="M221.979 14.0131H216.118L222.707 9.99098H227.354V10.7332L221.979 14.0131Z" fill="#E9D8A6"/>
<path d="M191.409 32.6722H185.55L192.109 28.6708H197.968L191.409 32.6722Z" fill="#E9D8A6"/>
<path d="M163.678 51.3905L155.524 56.368H152.592L160.748 51.3905H163.678Z" fill="#E9D8A6"/>
<path d="M190.832 98.9489H187.903L161.128 82.6039H164.058L190.832 98.9489Z" fill="#E9D8A6"/>
<path d="M221.979 14.0131L227.354 10.7332V12.5208L224.909 14.0131H221.979Z" fill="#E9D8A6"/>
<path d="M162.094 81.4044H159.162L139.212 69.2252H142.141L162.094 81.4044Z" fill="#E9D8A6"/>
<path d="M201.827 26.313L208.916 21.9878H211.846L204.759 26.313H201.827Z" fill="#E9D8A6"/>
<path d="M199.07 103.978H196.141L190.985 100.829H193.914L199.07 103.978Z" fill="#E9D8A6"/>
<path d="M172.184 46.1972H169.252L185.887 36.0445H188.819L172.184 46.1972Z" fill="#E9D8A6"/>
<path d="M194.341 32.6722H191.409L197.968 28.6708H200.897L194.341 32.6722Z" fill="#E9D8A6"/>
<path d="M142.628 64.2401H139.696L149.575 58.2095H152.505L142.628 64.2401Z" fill="#E9D8A6"/>
<path d="M224.755 119.655H221.823L201.723 107.386H204.652L224.755 119.655Z" fill="#E9D8A6"/>
<path d="M227.354 56.368H155.524L163.678 51.3905H227.354V56.368Z" fill="#E9D8A6"/>
<path d="M227.354 64.2401H142.628L152.505 58.2095H227.354V64.2401Z" fill="#E9D8A6"/>
<path d="M227.354 100.829V103.978H199.07L193.914 100.829H227.354Z" fill="#E9D8A6"/>
<path d="M227.354 119.655H224.755L204.652 107.386H227.354V119.655Z" fill="#E9D8A6"/>
<path d="M188.819 36.0446H215.762V32.6722H194.341L200.897 28.6708H227.354V46.1972H172.184L188.819 36.0446Z" fill="#E9D8A6"/>
<path d="M224.909 14.0131L227.354 12.5208V14.0131H224.909Z" fill="#E9D8A6"/>
<path d="M227.354 81.4044H162.094L142.141 69.2252H227.354V81.4044Z" fill="#E9D8A6"/>
<path d="M204.759 26.313L211.846 21.9878H227.354V26.313H204.759Z" fill="#E9D8A6"/>
<path d="M227.354 86.2304H201.51V90.3784H227.354V98.9489H190.832L164.058 82.6039H227.354V86.2304Z" fill="#E9D8A6"/>
<path d="M239.074 14.0131H242.003V21.9878H239.074V14.0131Z" fill="#9B2226"/>
<path d="M233.212 14.0131H239.074V21.9878H233.212V14.0131Z" fill="#AE2012"/>
<path d="M230.283 14.0131H233.213V21.9878H230.283V14.0131Z" fill="#EE9B00"/>
<path d="M188.406 21.9878H185.474L198.537 14.0131H201.469L188.406 21.9878Z" fill="#005F73"/>
<path d="M194.264 21.9878H188.406L201.469 14.0131H207.327L194.264 21.9878Z" fill="#94D2BD"/>
<path d="M224.422 14.0131H230.283V21.9878H224.422V14.0131Z" fill="#E9D8A6"/>
<path d="M221.492 14.0131H224.422V21.9878H221.492V14.0131Z" fill="#E9D8A6"/>
<path d="M197.194 21.9878H194.264L207.327 14.0131H210.257L197.194 21.9878Z" fill="#E9D8A6"/>
<path d="M197.194 21.9878L210.257 14.0131H216.118L203.055 21.9878H197.194Z" fill="#E9D8A6"/>
<path d="M205.984 21.9878H203.055L216.118 14.0131H219.047L205.984 21.9878Z" fill="#E9D8A6"/>
<path d="M219.047 14.0131H221.493V21.9878H205.984L219.047 14.0131Z" fill="#E9D8A6"/>
<path d="M259.584 26.313H262.514V28.6707H259.584V26.313Z" fill="#9B2226"/>
<path d="M253.726 26.313H259.584V28.6707H253.726V26.313Z" fill="#AE2012"/>
<path d="M250.794 26.313H253.723V28.6707H250.794V26.313Z" fill="#EE9B00"/>
<path d="M197.968 28.6707H195.038L198.898 26.313H201.827L197.968 28.6707Z" fill="#005F73"/>
<path d="M203.829 28.6707H197.968L201.827 26.313H207.688L203.829 28.6707Z" fill="#94D2BD"/>
<path d="M244.935 26.313H250.794V28.6707H244.935V26.313Z" fill="#E9D8A6"/>
<path d="M242.003 26.313H244.932V28.6707H242.003V26.313Z" fill="#E9D8A6"/>
<path d="M206.758 28.6707H203.829L207.688 26.313H210.618L206.758 28.6707Z" fill="#E9D8A6"/>
<path d="M212.617 28.6707H206.758L210.618 26.313H216.479L212.617 28.6707Z" fill="#E9D8A6"/>
<path d="M215.549 28.6707H212.617L216.479 26.313H219.408L215.549 28.6707Z" fill="#E9D8A6"/>
<path d="M219.408 26.313H242.003V28.6707H215.549L219.408 26.313Z" fill="#E9D8A6"/>
<path d="M239.074 46.1972H242.003V51.3905H239.074V46.1972Z" fill="#9B2226"/>
<path d="M233.212 46.1972H239.074V51.3905H233.212V46.1972Z" fill="#AE2012"/>
<path d="M230.283 46.1972H233.213V51.3905H230.283V46.1972Z" fill="#EE9B00"/>
<path d="M140.238 51.3905H137.306L145.812 46.1972H148.744L140.238 51.3905Z" fill="#005F73"/>
<path d="M146.096 51.3905H140.238L148.744 46.1972H154.602L146.096 51.3905Z" fill="#94D2BD"/>
<path d="M224.422 46.1972H230.283V51.3905H224.422V46.1972Z" fill="#E9D8A6"/>
<path d="M221.492 46.1972H224.422V51.3905H221.492V46.1972Z" fill="#E9D8A6"/>
<path d="M149.028 51.3905H146.096L154.603 46.1972H157.532L149.028 51.3905Z" fill="#E9D8A6"/>
<path d="M154.887 51.3905H149.028L157.532 46.1972H163.393L154.887 51.3905Z" fill="#E9D8A6"/>
<path d="M157.816 51.3905H154.887L163.393 46.1972H166.323L157.816 51.3905Z" fill="#E9D8A6"/>
<path d="M221.493 46.1972V51.3905H157.816L166.323 46.1972H221.493Z" fill="#E9D8A6"/>
<path d="M236.144 64.2401H239.074V69.2252H236.144V64.2401Z" fill="#9B2226"/>
<path d="M230.283 64.2401H236.145V69.2252H230.283V64.2401Z" fill="#AE2012"/>
<path d="M227.354 64.2401H230.283V69.2252H227.354V64.2401Z" fill="#EE9B00"/>
<path d="M111.929 66.8803L115.769 69.2252H112.84L109 66.8803L113.327 64.2401H116.256L111.929 66.8803Z" fill="#005F73"/>
<path d="M116.256 64.2401H122.118L117.791 66.8803L121.631 69.2252H115.769L111.929 66.8803L116.256 64.2401Z" fill="#94D2BD"/>
<path d="M221.495 64.2401H227.354V69.2252H221.495V64.2401Z" fill="#E9D8A6"/>
<path d="M218.563 64.2401H221.493V69.2252H218.563V64.2401Z" fill="#E9D8A6"/>
<path d="M120.72 66.8803L124.56 69.2252H121.631L117.791 66.8803L122.118 64.2401H125.047L120.72 66.8803Z" fill="#E9D8A6"/>
<path d="M126.581 66.8803L130.421 69.2252H124.56L120.72 66.8803L125.047 64.2401H130.908L126.581 66.8803Z" fill="#E9D8A6"/>
<path d="M129.511 66.8803L133.351 69.2252H130.421L126.581 66.8803L130.908 64.2401H133.838L129.511 66.8803Z" fill="#E9D8A6"/>
<path d="M218.563 69.2252H133.351L129.511 66.8803L133.838 64.2401H218.563V69.2252Z" fill="#E9D8A6"/>
<path d="M253.723 81.4044H256.652V82.6039H253.723V81.4044Z" fill="#9B2226"/>
<path d="M247.865 81.4044H253.723V82.6039H247.865V81.4044Z" fill="#AE2012"/>
<path d="M244.935 81.4044H247.865V82.6039H244.935V81.4044Z" fill="#EE9B00"/>
<path d="M155.27 82.6039H152.338L150.374 81.4044H153.303L155.27 82.6039Z" fill="#005F73"/>
<path d="M161.129 82.6039H155.27L153.303 81.4044H159.162L161.129 82.6039Z" fill="#94D2BD"/>
<path d="M239.074 81.4044H244.932V82.6039H239.074V81.4044Z" fill="#E9D8A6"/>
<path d="M236.144 81.4044H239.074V82.6039H236.144V81.4044Z" fill="#E9D8A6"/>
<path d="M164.058 82.6039H161.129L159.162 81.4044H162.094L164.058 82.6039Z" fill="#E9D8A6"/>
<path d="M169.919 82.6039H164.058L162.094 81.4044H167.953L169.919 82.6039Z" fill="#E9D8A6"/>
<path d="M172.849 82.6039H169.919L167.953 81.4044H170.885L172.849 82.6039Z" fill="#E9D8A6"/>
<path d="M236.145 82.6039H172.849L170.885 81.4044H236.145V82.6039Z" fill="#E9D8A6"/>
<path d="M239.074 103.978H242.003V107.386H239.074V103.978Z" fill="#9B2226"/>
<path d="M233.212 103.978H239.074V107.386H233.212V103.978Z" fill="#AE2012"/>
<path d="M230.283 103.978H233.213V107.386H230.283V103.978Z" fill="#EE9B00"/>
<path d="M181.212 107.386H178.283L172.701 103.978H175.63L181.212 107.386Z" fill="#005F73"/>
<path d="M187.074 107.386H181.212L175.63 103.978H181.489L187.074 107.386Z" fill="#94D2BD"/>
<path d="M224.422 103.978H230.283V107.386H224.422V103.978Z" fill="#E9D8A6"/>
<path d="M221.492 103.978H224.422V107.386H221.492V103.978Z" fill="#E9D8A6"/>
<path d="M190.003 107.386H187.074L181.489 103.978H184.421L190.003 107.386Z" fill="#E9D8A6"/>
<path d="M195.864 107.386H190.003L184.421 103.978H190.279L195.864 107.386Z" fill="#E9D8A6"/>
<path d="M193.209 103.978L198.794 107.386H195.864L190.279 103.978H193.209Z" fill="#E9D8A6"/>
<path d="M221.493 107.386H198.794L193.209 103.978H221.493V107.386Z" fill="#E9D8A6"/>
<path d="M221.492 98.9489H224.422V100.832H221.492V98.9489Z" fill="#9B2226"/>
<path d="M215.631 98.9489H221.493V100.832H215.631V98.9489Z" fill="#AE2012"/>
<path d="M212.705 98.9489H215.634V100.832H212.705V98.9489Z" fill="#EE9B00"/>
<path d="M152.896 100.829H149.964L146.881 98.9489H149.813L152.896 100.829Z" fill="#005F73"/>
<path d="M158.754 100.829H152.896L149.813 98.9489H155.672L158.754 100.829Z" fill="#94D2BD"/>
<path d="M206.84 98.9489H212.702V100.832H206.84V98.9489Z" fill="#E9D8A6"/>
<path d="M203.914 98.9489H206.843V100.832H203.914V98.9489Z" fill="#E9D8A6"/>
<path d="M161.684 100.829H158.754L155.672 98.9489H158.601L161.684 100.829Z" fill="#E9D8A6"/>
<path d="M167.545 100.829H161.684L158.601 98.9489H164.463L167.545 100.829Z" fill="#E9D8A6"/>
<path d="M170.474 100.829H167.545L164.463 98.9489H167.392L170.474 100.829Z" fill="#E9D8A6"/>
<path d="M203.914 100.829H170.474L167.392 98.9489H203.914V100.829Z" fill="#E9D8A6"/>
<path d="M250.794 119.655H253.723V123.038H250.794V119.655Z" fill="#9B2226"/>
<path d="M244.935 119.655H250.794V123.038H244.935V119.655Z" fill="#AE2012"/>
<path d="M242.003 119.655H244.932V123.038H242.003V119.655Z" fill="#EE9B00"/>
<path d="M218.577 123.038H215.648L210.104 119.655H213.033L218.577 123.038Z" fill="#005F73"/>
<path d="M224.438 123.038H218.577L213.033 119.655H218.894L224.438 123.038Z" fill="#94D2BD"/>
<path d="M230.297 123.038H230.285V123.03L230.297 123.038Z" fill="#E9D8A6"/>
<path d="M236.145 119.655H242.003V123.038H236.158L236.145 123.03V119.655Z" fill="#E9D8A6"/>
<path d="M227.367 123.038H227.356V123.03L227.367 123.038Z" fill="#E9D8A6"/>
<path d="M233.213 121.242L236.145 123.03V123.038H233.226L233.213 123.03V121.242Z" fill="#E9D8A6"/>
<path d="M236.145 119.655V123.03L233.213 121.242V119.655H236.145Z" fill="#E9D8A6"/>
<path d="M221.823 119.655L227.367 123.038H224.438L218.894 119.655H221.823Z" fill="#E9D8A6"/>
<path d="M233.213 123.03V123.038H227.368L221.824 119.655H227.685L233.213 123.03Z" fill="#E9D8A6"/>
<path d="M233.213 121.242V123.03L227.685 119.655H230.614L233.213 121.242Z" fill="#E9D8A6"/>
<path d="M233.213 119.655V121.242L230.614 119.655H233.213Z" fill="#E9D8A6"/>
<path d="M159.518 36.0445H156.588L162.111 32.6722H165.04L159.518 36.0445Z" fill="#005F73"/>
<path d="M165.379 36.0445H159.518L165.04 32.6722H170.901L165.379 36.0445Z" fill="#94D2BD"/>
<path d="M168.308 36.0445H165.379L170.901 32.6722H173.83L168.308 36.0445Z" fill="#E9D8A6"/>
<path d="M174.167 36.0445H168.308L173.83 32.6722H179.689L174.167 36.0445Z" fill="#E9D8A6"/>
<path d="M177.099 36.0445H174.167L179.689 32.6722H182.621L177.099 36.0445Z" fill="#E9D8A6"/>
<path d="M215.762 36.0445H188.819L194.341 32.6722H215.762V36.0445Z" fill="#E9D8A6"/>
<path d="M250.794 7.37637H253.723V9.99099H250.794V7.37637Z" fill="#9B2226"/>
<path d="M244.935 7.37637H250.794V9.99099H244.935V7.37637Z" fill="#AE2012"/>
<path d="M242.003 7.37637H244.932V9.99099H242.003V7.37637Z" fill="#EE9B00"/>
<path d="M219.778 9.99099H216.846L221.129 7.37637H224.061L219.778 9.99099Z" fill="#005F73"/>
<path d="M219.778 9.99099L224.061 7.37637H229.919L225.636 9.99099H219.778Z" fill="#94D2BD"/>
<path d="M236.144 7.37637H238.71L236.144 8.94312V7.37637Z" fill="#E9D8A6"/>
<path d="M237.356 9.99099H236.145V8.94312L238.71 7.37637H241.639L237.356 9.99099Z" fill="#E9D8A6"/>
<path d="M241.639 7.37637H242.003V9.99099H237.356L241.639 7.37637Z" fill="#E9D8A6"/>
<path d="M234.427 9.99099H233.213V7.37637H236.145V8.94312L234.427 9.99099Z" fill="#E9D8A6"/>
<path d="M236.145 8.94312V9.99098H234.427L236.145 8.94312Z" fill="#E9D8A6"/>
<path d="M228.566 9.99099H225.636L229.919 7.37637H232.849L228.566 9.99099Z" fill="#E9D8A6"/>
<path d="M232.849 7.37637H233.213V9.99099H228.566L232.849 7.37637Z" fill="#E9D8A6"/>
<path d="M250.794 86.2304H253.723V90.3784H250.794V86.2304Z" fill="#9B2226"/>
<path d="M244.935 86.2304H250.794V90.3784H244.935V86.2304Z" fill="#AE2012"/>
<path d="M242.003 86.2304H244.932V90.3784H242.003V86.2304Z" fill="#EE9B00"/>
<path d="M236.145 86.2304H242.003V90.3784H236.145V86.2304Z" fill="#E9D8A6"/>
<path d="M233.215 86.2304H236.145V90.3784H233.215V86.2304Z" fill="#E9D8A6"/>
<path d="M201.51 86.2304H227.354V90.3784H201.51V86.2304Z" fill="#E9D8A6"/>
<path d="M265.443 56.368H268.372V58.2095H265.443V56.368Z" fill="#9B2226"/>
<path d="M259.582 56.368H265.443V58.2095H259.582V56.368Z" fill="#AE2012"/>
<path d="M256.655 56.368H259.584V58.2095H256.655V56.368Z" fill="#EE9B00"/>
<path d="M155.434 58.2095H152.505L155.524 56.368H158.454L155.434 58.2095Z" fill="#005F73"/>
<path d="M161.295 58.2095H155.434L158.454 56.368H164.312L161.295 58.2095Z" fill="#94D2BD"/>
<path d="M250.791 56.368H256.652V58.2095H250.791V56.368Z" fill="#E9D8A6"/>
<path d="M247.864 56.368H250.794V58.2095H247.864V56.368Z" fill="#E9D8A6"/>
<path d="M164.225 58.2095H161.295L164.312 56.368H167.244L164.225 58.2095Z" fill="#E9D8A6"/>
<path d="M173.103 56.368L170.086 58.2095H164.225L167.244 56.368H173.103Z" fill="#E9D8A6"/>
<path d="M173.015 58.2095H170.086L173.103 56.368H176.032L173.015 58.2095Z" fill="#E9D8A6"/>
<path d="M247.865 58.2095H173.015L176.032 56.368H247.865V58.2095Z" fill="#E9D8A6"/>
<path d="M135.995 58.2095H138.924V64.2401H135.995V58.2095Z" fill="#9B2226"/>
<path d="M135.995 69.2252H138.924V81.4044H135.995V69.2252Z" fill="#9B2226"/>
<path d="M135.995 51.3905H138.924V56.368H135.995V51.3905Z" fill="#9B2226"/>
<path d="M138.924 123.038V133.761L135.992 131.973V123.038H138.924Z" fill="#9B2226"/>
<path d="M135.995 90.3784H138.924V98.9464H135.995V90.3784Z" fill="#9B2226"/>
<path d="M135.995 82.6039H138.924V86.2304H135.995V82.6039Z" fill="#9B2226"/>
<path d="M135.995 100.829H138.924V103.975H135.995V100.829Z" fill="#9B2226"/>
<path d="M135.995 9.99098H138.924V14.0131H135.995V9.99098Z" fill="#9B2226"/>
<path d="M135.992 1.79021L138.924 0V7.37638H135.992V1.79021Z" fill="#9B2226"/>
<path d="M135.995 21.9878H138.924V26.313H135.995V21.9878Z" fill="#9B2226"/>
<path d="M135.995 28.6708H138.924V46.1998H135.995V28.6708Z" fill="#9B2226"/>
<path d="M135.995 107.386H138.924V119.655H135.995V107.386Z" fill="#9B2226"/>
<path d="M130.134 3.57775L135.992 0V1.79021L130.134 5.36537V3.57775Z" fill="#AE2012"/>
<path d="M135.992 131.973V133.761L130.134 130.183V128.395L135.992 131.973Z" fill="#AE2012"/>
<path d="M130.134 58.2095H135.992V64.2401H130.134V58.2095Z" fill="#AE2012"/>
<path d="M130.134 69.2252H135.992V81.4044H130.134V69.2252Z" fill="#AE2012"/>
<path d="M130.134 7.37638V5.36537L135.992 1.79021V7.37638H130.134Z" fill="#AE2012"/>
<path d="M130.134 107.386H135.992V119.655H130.134V107.386Z" fill="#AE2012"/>
<path d="M130.134 82.6039H135.992V86.2304H130.134V82.6039Z" fill="#AE2012"/>
<path d="M130.134 100.829H135.992V103.975H130.134V100.829Z" fill="#AE2012"/>
<path d="M130.134 90.3784H135.992V98.9464H130.134V90.3784Z" fill="#AE2012"/>
<path d="M130.134 21.9878H135.992V26.313H130.134V21.9878Z" fill="#AE2012"/>
<path d="M130.134 51.3905H135.992V56.368H130.134V51.3905Z" fill="#AE2012"/>
<path d="M130.134 28.6708H135.992V46.1998H130.134V28.6708Z" fill="#AE2012"/>
<path d="M130.134 9.99098H135.992V14.0131H130.134V9.99098Z" fill="#AE2012"/>
<path d="M130.134 123.038H135.992V131.973L130.134 128.395V123.038Z" fill="#AE2012"/>
<path d="M127.204 1.79021L130.134 0V3.57775L127.204 5.36537V1.79021Z" fill="#EE9B00"/>
<path d="M130.134 130.183V133.761L127.204 131.973V128.395L130.134 130.183Z" fill="#EE9B00"/>
<path d="M127.204 7.15549V5.36536L130.134 3.57774V5.36536L127.204 7.15549Z" fill="#EE9B00"/>
<path d="M127.204 126.608L130.134 128.395V130.183L127.204 128.395V126.608Z" fill="#EE9B00"/>
<path d="M127.204 28.6708H130.134V46.1998H127.204V28.6708Z" fill="#EE9B00"/>
<path d="M127.204 51.3905H130.134V56.368H127.204V51.3905Z" fill="#EE9B00"/>
<path d="M127.204 21.9878H130.134V26.313H127.204V21.9878Z" fill="#EE9B00"/>
<path d="M127.204 58.2095H130.134V64.2401H127.204V58.2095Z" fill="#EE9B00"/>
<path d="M127.204 9.99098H130.134V14.0131H127.204V9.99098Z" fill="#EE9B00"/>
<path d="M127.204 90.3784H130.134V98.9464H127.204V90.3784Z" fill="#EE9B00"/>
<path d="M127.204 107.386H130.134V119.655H127.204V107.386Z" fill="#EE9B00"/>
<path d="M127.204 69.2252H130.134V81.4044H127.204V69.2252Z" fill="#EE9B00"/>
<path d="M130.134 123.038V128.395L127.204 126.608V123.038H130.134Z" fill="#EE9B00"/>
<path d="M127.204 7.1555L130.134 5.36537V7.37638H127.204V7.1555Z" fill="#EE9B00"/>
<path d="M127.204 100.829H130.134V103.975H127.204V100.829Z" fill="#EE9B00"/>
<path d="M127.204 82.6039H130.134V86.2304H127.204V82.6039Z" fill="#EE9B00"/>
<path d="M78.2378 26.313H75.3085L82.3952 21.9878H85.3245L78.2378 26.313Z" fill="#005F73"/>
<path d="M45.6624 46.1972H42.7331L59.3681 36.0445H62.2974L45.6624 46.1972Z" fill="#005F73"/>
<path d="M98.3872 14.0131H95.4579L102.047 9.99098H104.976L98.3872 14.0131Z" fill="#005F73"/>
<path d="M67.8196 32.6722H64.8902L71.4491 28.6708H74.3784L67.8196 32.6722Z" fill="#005F73"/>
<path d="M29.0029 56.368H26.0736L34.2269 51.3905H37.1562L29.0029 56.368Z" fill="#005F73"/>
<path d="M106.33 7.37638L118.414 0V1.79021L109.259 7.37638H106.33Z" fill="#005F73"/>
<path d="M16.1068 64.2401H13.1776L23.0541 58.2095H25.9834L16.1068 64.2401Z" fill="#005F73"/>
<path d="M64.3132 98.9489H61.3812L34.6099 82.6039H37.5392L64.3132 98.9489Z" fill="#005F73"/>
<path d="M98.2341 119.655H95.3049L75.2018 107.386H78.1338L98.2341 119.655Z" fill="#005F73"/>
<path d="M15.6201 69.2252L35.5728 81.4044H32.6435L12.6908 69.2252H15.6201Z" fill="#005F73"/>
<path d="M118.414 131.973V133.761L100.846 123.038H103.778L118.414 131.973Z" fill="#005F73"/>
<path d="M72.5486 103.978H69.6192L64.4636 100.829H67.3956L72.5486 103.978Z" fill="#005F73"/>
<path d="M118.414 1.79021L121.343 0V3.57775L118.414 5.36537V1.79021Z" fill="#94D2BD"/>
<path d="M121.343 130.183V133.761L118.414 131.973V128.395L121.343 130.183Z" fill="#94D2BD"/>
<path d="M70.1719 98.9489H64.3133L37.5392 82.6039H43.3979L70.1719 98.9489Z" fill="#94D2BD"/>
<path d="M78.4099 103.978H72.5485L67.3956 100.829H73.2542L78.4099 103.978Z" fill="#94D2BD"/>
<path d="M104.093 119.655H98.2342L78.1338 107.386H83.9924L104.093 119.655Z" fill="#94D2BD"/>
<path d="M84.0991 26.313H78.2377L85.3244 21.9878H91.1858L84.0991 26.313Z" fill="#94D2BD"/>
<path d="M73.681 32.6722H67.8196L74.3785 28.6708H80.2371L73.681 32.6722Z" fill="#94D2BD"/>
<path d="M104.249 14.0131H98.3872L104.976 9.99098H110.837L104.249 14.0131Z" fill="#94D2BD"/>
<path d="M51.5237 46.1972H45.6624L62.2973 36.0445H68.1587L51.5237 46.1972Z" fill="#94D2BD"/>
<path d="M21.968 64.2401H16.1066L25.9832 58.2095H31.8445L21.968 64.2401Z" fill="#94D2BD"/>
<path d="M109.637 123.038L118.414 128.395V131.973L103.778 123.038H109.637Z" fill="#94D2BD"/>
<path d="M34.8642 56.368H29.0029L37.1562 51.3905H43.0176L34.8642 56.368Z" fill="#94D2BD"/>
<path d="M115.121 7.37638H109.259L118.414 1.79021V5.36537L115.121 7.37638Z" fill="#94D2BD"/>
<path d="M41.4341 81.4044H35.5727L15.6201 69.2252H21.4815L41.4341 81.4044Z" fill="#94D2BD"/>
<path d="M121.343 3.57775L127.204 0V1.79021L121.343 5.36537V3.57775Z" fill="#E9D8A6"/>
<path d="M127.204 131.973V133.761L121.343 130.183V128.395L127.204 131.973Z" fill="#E9D8A6"/>
<path d="M121.343 124.818L127.204 128.395V131.973L121.343 128.395V124.818Z" fill="#E9D8A6"/>
<path d="M123.909 7.37638H121.343V5.36537L127.204 1.79021V5.36537L123.909 7.37638Z" fill="#E9D8A6"/>
<path d="M121.357 123.038L127.204 126.608V128.395L121.343 124.818V123.038H121.357Z" fill="#E9D8A6"/>
<path d="M123.909 7.37638L127.204 5.36537V7.1555L126.841 7.37638H123.909Z" fill="#E9D8A6"/>
<path d="M121.343 9.99098H122.557L121.343 10.7332V9.99098Z" fill="#E9D8A6"/>
<path d="M121.343 28.6708H127.204V46.1998H121.343V28.6708Z" fill="#E9D8A6"/>
<path d="M121.343 51.3905H127.204V56.368H121.343V51.3905Z" fill="#E9D8A6"/>
<path d="M121.343 58.2095H127.204V64.2401H121.343V58.2095Z" fill="#E9D8A6"/>
<path d="M132.699 7.37638L133.063 7.1555V7.37638H132.699Z" fill="#E9D8A6"/>
<path d="M121.343 82.6039H127.204V86.2304H121.343V82.6039Z" fill="#E9D8A6"/>
<path d="M121.343 21.9878H127.204V26.313H121.343V21.9878Z" fill="#E9D8A6"/>
<path d="M121.343 14.0131V10.7332L122.557 9.99098H127.204V14.0131H121.343Z" fill="#E9D8A6"/>
<path d="M121.343 90.3784H127.204V98.9464H121.343V90.3784Z" fill="#E9D8A6"/>
<path d="M127.204 123.038V126.608L121.357 123.038H127.204Z" fill="#E9D8A6"/>
<path d="M121.343 107.386H127.204V119.655H121.343V107.386Z" fill="#E9D8A6"/>
<path d="M121.343 69.2252H127.204V81.4044H121.343V69.2252Z" fill="#E9D8A6"/>
<path d="M121.343 100.829H127.204V103.975H121.343V100.829Z" fill="#E9D8A6"/>
<path d="M118.414 7.15549V5.36536L121.343 3.57774V5.36536L118.414 7.15549Z" fill="#E9D8A6"/>
<path d="M118.414 126.608L121.343 128.395V130.183L118.414 128.395V126.608Z" fill="#E9D8A6"/>
<path d="M118.427 123.038L121.343 124.818V128.395L118.414 126.608V123.038H118.427Z" fill="#E9D8A6"/>
<path d="M118.414 9.99098H119.625L118.414 10.7332V9.99098Z" fill="#E9D8A6"/>
<path d="M118.414 7.1555L121.343 5.36537V7.37638H118.414V7.1555Z" fill="#E9D8A6"/>
<path d="M118.414 12.5208V10.7332L119.626 9.99098H121.343V10.7332L118.414 12.5208Z" fill="#E9D8A6"/>
<path d="M121.343 123.038V124.818L118.427 123.038H121.343Z" fill="#E9D8A6"/>
<path d="M118.414 51.3905H121.343V56.368H118.414V51.3905Z" fill="#E9D8A6"/>
<path d="M118.414 69.2252H121.343V81.4044H118.414V69.2252Z" fill="#E9D8A6"/>
<path d="M118.414 21.9878H121.343V26.313H118.414V21.9878Z" fill="#E9D8A6"/>
<path d="M118.414 28.6708H121.343V46.1998H118.414V28.6708Z" fill="#E9D8A6"/>
<path d="M118.414 58.2095H121.343V64.2401H118.414V58.2095Z" fill="#E9D8A6"/>
<path d="M118.414 12.5208L121.343 10.7332V14.0131H118.414V12.5208Z" fill="#E9D8A6"/>
<path d="M118.414 82.6039H121.343V86.2304H118.414V82.6039Z" fill="#E9D8A6"/>
<path d="M118.414 107.386H121.343V119.655H118.414V107.386Z" fill="#E9D8A6"/>
<path d="M118.414 100.829H121.343V103.975H118.414V100.829Z" fill="#E9D8A6"/>
<path d="M118.414 90.3784H121.343V98.9464H118.414V90.3784Z" fill="#E9D8A6"/>
<path d="M118.414 126.608V128.395L109.637 123.038H112.566L118.414 126.608Z" fill="#E9D8A6"/>
<path d="M107.025 119.655H104.093L83.9924 107.386H86.9245L107.025 119.655Z" fill="#E9D8A6"/>
<path d="M81.3394 103.978H78.4101L73.2544 100.829H76.1837L81.3394 103.978Z" fill="#E9D8A6"/>
<path d="M34.7739 58.2095L24.8974 64.2401H21.9681L31.8446 58.2095H34.7739Z" fill="#E9D8A6"/>
<path d="M44.3633 81.4044H41.4339L21.4813 69.2252H24.4106L44.3633 81.4044Z" fill="#E9D8A6"/>
<path d="M73.104 98.9489H70.1719L43.398 82.6039H46.33L73.104 98.9489Z" fill="#E9D8A6"/>
<path d="M104.249 14.0131L110.837 9.99098H113.767L107.178 14.0131H104.249Z" fill="#E9D8A6"/>
<path d="M87.0283 26.313H84.099L91.1856 21.9878H94.115L87.0283 26.313Z" fill="#E9D8A6"/>
<path d="M76.6104 32.6722H73.6811L80.2372 28.6708H83.1692L76.6104 32.6722Z" fill="#E9D8A6"/>
<path d="M37.7934 56.368H34.8641L43.0175 51.3905H45.9468L37.7934 56.368Z" fill="#E9D8A6"/>
<path d="M54.4532 46.1972H51.5238L68.1588 36.0445H71.0881L54.4532 46.1972Z" fill="#E9D8A6"/>
<path d="M115.121 7.37638L118.414 5.36537V7.1555L118.05 7.37638H115.121Z" fill="#E9D8A6"/>
<path d="M43.652 56.368H37.7934L45.9467 51.3905H51.8081L43.652 56.368Z" fill="#E9D8A6"/>
<path d="M92.887 26.313H87.0283L94.115 21.9878H99.9763L92.887 26.313Z" fill="#E9D8A6"/>
<path d="M50.2219 81.4044H44.3633L24.4106 69.2252H30.272L50.2219 81.4044Z" fill="#E9D8A6"/>
<path d="M92.7831 107.386L112.883 119.655H107.025L86.9244 107.386H92.7831Z" fill="#E9D8A6"/>
<path d="M123.909 7.37638L124.272 7.1555V7.37638H123.909Z" fill="#E9D8A6"/>
<path d="M118.414 123.038V126.608L112.566 123.038H118.414Z" fill="#E9D8A6"/>
<path d="M87.2007 103.978H81.3393L76.1837 100.829H82.045L87.2007 103.978Z" fill="#E9D8A6"/>
<path d="M78.9624 98.9489H73.1038L46.3298 82.6039H52.1884L78.9624 98.9489Z" fill="#E9D8A6"/>
<path d="M30.7563 64.2401H24.8977L34.7741 58.2095H40.6355L30.7563 64.2401Z" fill="#E9D8A6"/>
<path d="M60.3118 46.1972H54.4532L71.0882 36.0445H76.9468L60.3118 46.1972Z" fill="#E9D8A6"/>
<path d="M113.039 14.0131H107.178L113.767 9.99098H118.414V10.7332L113.039 14.0131Z" fill="#E9D8A6"/>
<path d="M82.4688 32.6722H76.6101L83.169 28.6708H89.0276L82.4688 32.6722Z" fill="#E9D8A6"/>
<path d="M54.7375 51.3905L46.5841 56.368H43.6521L51.8082 51.3905H54.7375Z" fill="#E9D8A6"/>
<path d="M81.8918 98.9489H78.9626L52.1885 82.6039H55.1178L81.8918 98.9489Z" fill="#E9D8A6"/>
<path d="M113.039 14.0131L118.414 10.7332V12.5208L115.969 14.0131H113.039Z" fill="#E9D8A6"/>
<path d="M53.1538 81.4044H50.2218L30.2719 69.2252H33.2011L53.1538 81.4044Z" fill="#E9D8A6"/>
<path d="M92.8871 26.313L99.9764 21.9878H102.906L95.8191 26.313H92.8871Z" fill="#E9D8A6"/>
<path d="M90.1299 103.978H87.2005L82.0448 100.829H84.9742L90.1299 103.978Z" fill="#E9D8A6"/>
<path d="M63.2437 46.1972H60.3117L76.9466 36.0445H79.8787L63.2437 46.1972Z" fill="#E9D8A6"/>
<path d="M85.401 32.6722H82.4689L89.0277 28.6708H91.957L85.401 32.6722Z" fill="#E9D8A6"/>
<path d="M33.6882 64.2401H30.7562L40.6354 58.2095H43.5647L33.6882 64.2401Z" fill="#E9D8A6"/>
<path d="M115.815 119.655H112.883L92.7831 107.386H95.7123L115.815 119.655Z" fill="#E9D8A6"/>
<path d="M118.414 56.368H46.5841L54.7376 51.3905H118.414V56.368Z" fill="#E9D8A6"/>
<path d="M118.414 64.2401H33.6881L43.5646 58.2095H118.414V64.2401Z" fill="#E9D8A6"/>
<path d="M118.414 100.829V103.978H90.13L84.9742 100.829H118.414Z" fill="#E9D8A6"/>
<path d="M118.414 119.655H115.815L95.7123 107.386H118.414V119.655Z" fill="#E9D8A6"/>
<path d="M79.8787 36.0446H106.822V32.6722H85.4009L91.957 28.6708H118.414V46.1972H63.2437L79.8787 36.0446Z" fill="#E9D8A6"/>
<path d="M115.969 14.0131L118.414 12.5208V14.0131H115.969Z" fill="#E9D8A6"/>
<path d="M118.414 81.4044H53.1539L33.2012 69.2252H118.414V81.4044Z" fill="#E9D8A6"/>
<path d="M95.819 26.313L102.906 21.9878H118.414V26.313H95.819Z" fill="#E9D8A6"/>
<path d="M118.414 86.2304H92.5697V90.3784H118.414V98.9489H81.8917L55.1177 82.6039H118.414V86.2304Z" fill="#E9D8A6"/>
<path d="M130.134 14.0131H133.063V21.9878H130.134V14.0131Z" fill="#9B2226"/>
<path d="M124.272 14.0131H130.134V21.9878H124.272V14.0131Z" fill="#AE2012"/>
<path d="M121.343 14.0131H124.272V21.9878H121.343V14.0131Z" fill="#EE9B00"/>
<path d="M79.4657 21.9878H76.5336L89.5965 14.0131H92.5286L79.4657 21.9878Z" fill="#005F73"/>
<path d="M85.3243 21.9878H79.4657L92.5286 14.0131H98.3872L85.3243 21.9878Z" fill="#94D2BD"/>
<path d="M115.482 14.0131H121.343V21.9878H115.482V14.0131Z" fill="#E9D8A6"/>
<path d="M112.552 14.0131H115.482V21.9878H112.552V14.0131Z" fill="#E9D8A6"/>
<path d="M88.2537 21.9878H85.3244L98.3873 14.0131H101.317L88.2537 21.9878Z" fill="#E9D8A6"/>
<path d="M88.2537 21.9878L101.317 14.0131H107.178L94.1151 21.9878H88.2537Z" fill="#E9D8A6"/>
<path d="M97.0443 21.9878H94.115L107.178 14.0131H110.107L97.0443 21.9878Z" fill="#E9D8A6"/>
<path d="M110.107 14.0131H112.552V21.9878H97.0444L110.107 14.0131Z" fill="#E9D8A6"/>
<path d="M150.644 26.313H153.574V28.6707H150.644V26.313Z" fill="#9B2226"/>
<path d="M144.786 26.313H150.644V28.6707H144.786V26.313Z" fill="#AE2012"/>
<path d="M141.854 26.313H144.783V28.6707H141.854V26.313Z" fill="#EE9B00"/>
<path d="M89.0277 28.6707H86.0984L89.9576 26.313H92.887L89.0277 28.6707Z" fill="#005F73"/>
<path d="M94.889 28.6707H89.0277L92.8869 26.313H98.7483L94.889 28.6707Z" fill="#94D2BD"/>
<path d="M135.995 26.313H141.854V28.6707H135.995V26.313Z" fill="#E9D8A6"/>
<path d="M133.063 26.313H135.992V28.6707H133.063V26.313Z" fill="#E9D8A6"/>
<path d="M97.8182 28.6707H94.889L98.7482 26.313H101.677L97.8182 28.6707Z" fill="#E9D8A6"/>
<path d="M103.677 28.6707H97.8184L101.678 26.313H107.539L103.677 28.6707Z" fill="#E9D8A6"/>
<path d="M106.609 28.6707H103.677L107.539 26.313H110.468L106.609 28.6707Z" fill="#E9D8A6"/>
<path d="M110.468 26.313H133.063V28.6707H106.609L110.468 26.313Z" fill="#E9D8A6"/>
<path d="M130.134 46.1972H133.063V51.3905H130.134V46.1972Z" fill="#9B2226"/>
<path d="M124.272 46.1972H130.134V51.3905H124.272V46.1972Z" fill="#AE2012"/>
<path d="M121.343 46.1972H124.272V51.3905H121.343V46.1972Z" fill="#EE9B00"/>
<path d="M31.2978 51.3905H28.3658L36.8719 46.1972H39.804L31.2978 51.3905Z" fill="#005F73"/>
<path d="M37.1562 51.3905H31.2976L39.8037 46.1972H45.6624L37.1562 51.3905Z" fill="#94D2BD"/>
<path d="M115.482 46.1972H121.343V51.3905H115.482V46.1972Z" fill="#E9D8A6"/>
<path d="M112.552 46.1972H115.482V51.3905H112.552V46.1972Z" fill="#E9D8A6"/>
<path d="M40.0883 51.3905H37.1563L45.6625 46.1972H48.5918L40.0883 51.3905Z" fill="#E9D8A6"/>
<path d="M45.9469 51.3905H40.0883L48.5918 46.1972H54.4531L45.9469 51.3905Z" fill="#E9D8A6"/>
<path d="M48.8764 51.3905H45.9471L54.4533 46.1972H57.3826L48.8764 51.3905Z" fill="#E9D8A6"/>
<path d="M112.552 46.1972V51.3905H48.8763L57.3824 46.1972H112.552Z" fill="#E9D8A6"/>
<path d="M127.204 64.2401H130.134V69.2252H127.204V64.2401Z" fill="#9B2226"/>
<path d="M121.343 64.2401H127.204V69.2252H121.343V64.2401Z" fill="#AE2012"/>
<path d="M118.414 64.2401H121.343V69.2252H118.414V64.2401Z" fill="#EE9B00"/>
<path d="M2.98921 66.8803L6.82929 69.2252H3.90002L0.0599458 66.8803L4.3869 64.2401H7.31616L2.98921 66.8803Z" fill="#005F73"/>
<path d="M7.31613 64.2401H13.1775L8.85054 66.8803L12.6906 69.2252H6.82925L2.98917 66.8803L7.31613 64.2401Z" fill="#94D2BD"/>
<path d="M112.555 64.2401H118.414V69.2252H112.555V64.2401Z" fill="#E9D8A6"/>
<path d="M109.623 64.2401H112.552V69.2252H109.623V64.2401Z" fill="#E9D8A6"/>
<path d="M11.78 66.8803L15.6201 69.2252H12.6908L8.85072 66.8803L13.1777 64.2401H16.1069L11.78 66.8803Z" fill="#E9D8A6"/>
<path d="M17.6413 66.8803L21.4815 69.2252H15.6201L11.7799 66.8803L16.1069 64.2401H21.9683L17.6413 66.8803Z" fill="#E9D8A6"/>
<path d="M20.5705 66.8803L24.4106 69.2252H21.4813L17.6412 66.8803L21.9681 64.2401H24.8975L20.5705 66.8803Z" fill="#E9D8A6"/>
<path d="M109.623 69.2252H24.4106L20.5705 66.8803L24.8974 64.2401H109.623V69.2252Z" fill="#E9D8A6"/>
<path d="M144.783 81.4044H147.712V82.6039H144.783V81.4044Z" fill="#9B2226"/>
<path d="M138.924 81.4044H144.783V82.6039H138.924V81.4044Z" fill="#AE2012"/>
<path d="M135.995 81.4044H138.924V82.6039H135.995V81.4044Z" fill="#EE9B00"/>
<path d="M46.3298 82.6039H43.3978L41.434 81.4044H44.3633L46.3298 82.6039Z" fill="#005F73"/>
<path d="M52.1885 82.6039H46.3299L44.3633 81.4044H50.2219L52.1885 82.6039Z" fill="#94D2BD"/>
<path d="M130.134 81.4044H135.992V82.6039H130.134V81.4044Z" fill="#E9D8A6"/>
<path d="M127.204 81.4044H130.134V82.6039H127.204V81.4044Z" fill="#E9D8A6"/>
<path d="M55.1177 82.6039H52.1884L50.2219 81.4044H53.1539L55.1177 82.6039Z" fill="#E9D8A6"/>
<path d="M60.9792 82.6039H55.1179L53.1541 81.4044H59.0127L60.9792 82.6039Z" fill="#E9D8A6"/>
<path d="M63.9084 82.6039H60.9791L59.0126 81.4044H61.9446L63.9084 82.6039Z" fill="#E9D8A6"/>
<path d="M127.204 82.6039H63.9085L61.9446 81.4044H127.204V82.6039Z" fill="#E9D8A6"/>
<path d="M130.134 103.978H133.063V107.386H130.134V103.978Z" fill="#9B2226"/>
<path d="M124.272 103.978H130.134V107.386H124.272V103.978Z" fill="#AE2012"/>
<path d="M121.343 103.978H124.272V107.386H121.343V103.978Z" fill="#EE9B00"/>
<path d="M72.2725 107.386H69.3432L63.7608 103.978H66.6901L72.2725 107.386Z" fill="#005F73"/>
<path d="M78.1338 107.386H72.2724L66.6901 103.978H72.5487L78.1338 107.386Z" fill="#94D2BD"/>
<path d="M115.482 103.978H121.343V107.386H115.482V103.978Z" fill="#E9D8A6"/>
<path d="M112.552 103.978H115.482V107.386H112.552V103.978Z" fill="#E9D8A6"/>
<path d="M81.063 107.386H78.1336L72.5486 103.978H75.4806L81.063 107.386Z" fill="#E9D8A6"/>
<path d="M86.9243 107.386H81.063L75.4806 103.978H81.3392L86.9243 107.386Z" fill="#E9D8A6"/>
<path d="M84.2687 103.978L89.8538 107.386H86.9244L81.3393 103.978H84.2687Z" fill="#E9D8A6"/>
<path d="M112.552 107.386H89.8537L84.2687 103.978H112.552V107.386Z" fill="#E9D8A6"/>
<path d="M112.552 98.9489H115.482V100.832H112.552V98.9489Z" fill="#9B2226"/>
<path d="M106.691 98.9489H112.552V100.832H106.691V98.9489Z" fill="#AE2012"/>
<path d="M103.765 98.9489H106.694V100.832H103.765V98.9489Z" fill="#EE9B00"/>
<path d="M43.9558 100.829H41.0238L37.9413 98.9489H40.8734L43.9558 100.829Z" fill="#005F73"/>
<path d="M49.8142 100.829H43.9556L40.8732 98.9489H46.7318L49.8142 100.829Z" fill="#94D2BD"/>
<path d="M97.9004 98.9489H103.762V100.832H97.9004V98.9489Z" fill="#E9D8A6"/>
<path d="M94.9738 98.9489H97.9031V100.832H94.9738V98.9489Z" fill="#E9D8A6"/>
<path d="M52.7437 100.829H49.8143L46.7319 98.9489H49.6611L52.7437 100.829Z" fill="#E9D8A6"/>
<path d="M58.605 100.829H52.7436L49.6611 98.9489H55.5225L58.605 100.829Z" fill="#E9D8A6"/>
<path d="M61.5344 100.829H58.6052L55.5226 98.9489H58.452L61.5344 100.829Z" fill="#E9D8A6"/>
<path d="M94.9739 100.829H61.5343L58.4519 98.9489H94.9739V100.829Z" fill="#E9D8A6"/>
<path d="M141.854 119.655H144.783V123.038H141.854V119.655Z" fill="#9B2226"/>
<path d="M135.995 119.655H141.854V123.038H135.995V119.655Z" fill="#AE2012"/>
<path d="M133.063 119.655H135.992V123.038H133.063V119.655Z" fill="#EE9B00"/>
<path d="M109.637 123.038H106.707L101.163 119.655H104.093L109.637 123.038Z" fill="#005F73"/>
<path d="M115.498 123.038H109.637L104.093 119.655H109.954L115.498 123.038Z" fill="#94D2BD"/>
<path d="M121.357 123.038H121.345V123.03L121.357 123.038Z" fill="#E9D8A6"/>
<path d="M127.204 119.655H133.063V123.038H127.218L127.204 123.03V119.655Z" fill="#E9D8A6"/>
<path d="M118.427 123.038H118.416V123.03L118.427 123.038Z" fill="#E9D8A6"/>
<path d="M124.272 121.242L127.204 123.03V123.038H124.286L124.272 123.03V121.242Z" fill="#E9D8A6"/>
<path d="M127.204 119.655V123.03L124.272 121.242V119.655H127.204Z" fill="#E9D8A6"/>
<path d="M112.883 119.655L118.427 123.038H115.498L109.954 119.655H112.883Z" fill="#E9D8A6"/>
<path d="M124.272 123.03V123.038H118.427L112.883 119.655H118.745L124.272 123.03Z" fill="#E9D8A6"/>
<path d="M124.272 121.242V123.03L118.745 119.655H121.674L124.272 121.242Z" fill="#E9D8A6"/>
<path d="M124.272 119.655V121.242L121.674 119.655H124.272Z" fill="#E9D8A6"/>
<path d="M50.5775 36.0445H47.6481L53.1703 32.6722H56.0996L50.5775 36.0445Z" fill="#005F73"/>
<path d="M56.4387 36.0445H50.5774L56.0996 32.6722H61.9609L56.4387 36.0445Z" fill="#94D2BD"/>
<path d="M59.3682 36.0445H56.4389L61.9611 32.6722H64.8904L59.3682 36.0445Z" fill="#E9D8A6"/>
<path d="M65.2268 36.0445H59.3682L64.8903 32.6722H70.749L65.2268 36.0445Z" fill="#E9D8A6"/>
<path d="M68.1587 36.0445H65.2267L70.7489 32.6722H73.6809L68.1587 36.0445Z" fill="#E9D8A6"/>
<path d="M106.822 36.0445H79.8786L85.4009 32.6722H106.822V36.0445Z" fill="#E9D8A6"/>
<path d="M141.854 7.37637H144.783V9.99099H141.854V7.37637Z" fill="#9B2226"/>
<path d="M135.995 7.37637H141.854V9.99099H135.995V7.37637Z" fill="#AE2012"/>
<path d="M133.063 7.37637H135.992V9.99099H133.063V7.37637Z" fill="#EE9B00"/>
<path d="M110.838 9.99099H107.905L112.189 7.37637H115.121L110.838 9.99099Z" fill="#005F73"/>
<path d="M110.838 9.99099L115.121 7.37637H120.979L116.696 9.99099H110.838Z" fill="#94D2BD"/>
<path d="M127.204 7.37637H129.77L127.204 8.94312V7.37637Z" fill="#E9D8A6"/>
<path d="M128.416 9.99099H127.204V8.94312L129.77 7.37637H132.699L128.416 9.99099Z" fill="#E9D8A6"/>
<path d="M132.699 7.37637H133.063V9.99099H128.416L132.699 7.37637Z" fill="#E9D8A6"/>
<path d="M125.487 9.99099H124.272V7.37637H127.204V8.94312L125.487 9.99099Z" fill="#E9D8A6"/>
<path d="M127.204 8.94312V9.99098H125.487L127.204 8.94312Z" fill="#E9D8A6"/>
<path d="M119.625 9.99099H116.696L120.979 7.37637H123.909L119.625 9.99099Z" fill="#E9D8A6"/>
<path d="M123.909 7.37637H124.272V9.99099H119.625L123.909 7.37637Z" fill="#E9D8A6"/>
<path d="M141.854 86.2304H144.783V90.3784H141.854V86.2304Z" fill="#9B2226"/>
<path d="M135.995 86.2304H141.854V90.3784H135.995V86.2304Z" fill="#AE2012"/>
<path d="M133.063 86.2304H135.992V90.3784H133.063V86.2304Z" fill="#EE9B00"/>
<path d="M127.204 86.2304H133.063V90.3784H127.204V86.2304Z" fill="#E9D8A6"/>
<path d="M124.275 86.2304H127.204V90.3784H124.275V86.2304Z" fill="#E9D8A6"/>
<path d="M92.5697 86.2304H118.414V90.3784H92.5697V86.2304Z" fill="#E9D8A6"/>
<path d="M156.503 56.368H159.432V58.2095H156.503V56.368Z" fill="#9B2226"/>
<path d="M150.642 56.368H156.503V58.2095H150.642V56.368Z" fill="#AE2012"/>
<path d="M147.715 56.368H150.644V58.2095H147.715V56.368Z" fill="#EE9B00"/>
<path d="M46.4939 58.2095H43.5645L46.5841 56.368H49.5134L46.4939 58.2095Z" fill="#005F73"/>
<path d="M52.3552 58.2095H46.4939L49.5135 56.368H55.3721L52.3552 58.2095Z" fill="#94D2BD"/>
<path d="M141.851 56.368H147.712V58.2095H141.851V56.368Z" fill="#E9D8A6"/>
<path d="M138.924 56.368H141.854V58.2095H138.924V56.368Z" fill="#E9D8A6"/>
<path d="M55.2846 58.2095H52.3554L55.3722 56.368H58.3042L55.2846 58.2095Z" fill="#E9D8A6"/>
<path d="M64.1628 56.368L61.146 58.2095H55.2847L58.3042 56.368H64.1628Z" fill="#E9D8A6"/>
<path d="M64.0752 58.2095H61.1459L64.1627 56.368H67.092L64.0752 58.2095Z" fill="#E9D8A6"/>
<path d="M138.924 58.2095H64.0753L67.0921 56.368H138.924V58.2095Z" fill="#E9D8A6"/>
</svg>
