<svg width="269" height="134" viewBox="0 0 269 134" fill="none" xmlns="http://www.w3.org/2000/svg">
<path d="M23.4972 58.2095H20.5679V64.2401H23.4972V58.2095Z" fill="#9B2226"/>
<path d="M23.4972 69.2252H20.5679V81.4044H23.4972V69.2252Z" fill="#9B2226"/>
<path d="M23.4972 51.3905H20.5679V56.368H23.4972V51.3905Z" fill="#9B2226"/>
<path d="M20.5679 123.038V133.761L23.5 131.973V123.038H20.5679Z" fill="#9B2226"/>
<path d="M23.4972 90.3784H20.5679V98.9464H23.4972V90.3784Z" fill="#9B2226"/>
<path d="M23.4972 82.6039H20.5679V86.2304H23.4972V82.6039Z" fill="#9B2226"/>
<path d="M23.4972 100.829H20.5679V103.975H23.4972V100.829Z" fill="#9B2226"/>
<path d="M23.4972 9.99098H20.5679V14.0131H23.4972V9.99098Z" fill="#9B2226"/>
<path d="M23.5 1.79021L20.5679 0V7.37638H23.5V1.79021Z" fill="#9B2226"/>
<path d="M23.4972 21.9878H20.5679V26.313H23.4972V21.9878Z" fill="#9B2226"/>
<path d="M23.4972 28.6708H20.5679V46.1998H23.4972V28.6708Z" fill="#9B2226"/>
<path d="M23.4972 107.386H20.5679V119.655H23.4972V107.386Z" fill="#9B2226"/>
<path d="M29.3586 3.57775L23.5 0V1.79021L29.3586 5.36537V3.57775Z" fill="#AE2012"/>
<path d="M23.5 131.973V133.761L29.3586 130.183V128.395L23.5 131.973Z" fill="#AE2012"/>
<path d="M29.3586 58.2095H23.5V64.2401H29.3586V58.2095Z" fill="#AE2012"/>
<path d="M29.3586 69.2252H23.5V81.4044H29.3586V69.2252Z" fill="#AE2012"/>
<path d="M29.3586 7.37638V5.36537L23.5 1.79021V7.37638H29.3586Z" fill="#AE2012"/>
<path d="M29.3586 107.386H23.5V119.655H29.3586V107.386Z" fill="#AE2012"/>
<path d="M29.3586 82.6039H23.5V86.2304H29.3586V82.6039Z" fill="#AE2012"/>
<path d="M29.3586 100.829H23.5V103.975H29.3586V100.829Z" fill="#AE2012"/>
<path d="M29.3586 90.3784H23.5V98.9464H29.3586V90.3784Z" fill="#AE2012"/>
<path d="M29.3586 21.9878H23.5V26.313H29.3586V21.9878Z" fill="#AE2012"/>
<path d="M29.3586 51.3905H23.5V56.368H29.3586V51.3905Z" fill="#AE2012"/>
<path d="M29.3586 28.6708H23.5V46.1998H29.3586V28.6708Z" fill="#AE2012"/>
<path d="M29.3586 9.99098H23.5V14.0131H29.3586V9.99098Z" fill="#AE2012"/>
<path d="M29.3586 123.038H23.5V131.973L29.3586 128.395V123.038Z" fill="#AE2012"/>
<path d="M32.2879 1.79021L29.3586 0V3.57775L32.2879 5.36537V1.79021Z" fill="#EE9B00"/>
<path d="M29.3586 130.183V133.761L32.2879 131.973V128.395L29.3586 130.183Z" fill="#EE9B00"/>
<path d="M32.2879 7.15549V5.36536L29.3586 3.57774V5.36536L32.2879 7.15549Z" fill="#EE9B00"/>
<path d="M32.2879 126.608L29.3586 128.395V130.183L32.2879 128.395V126.608Z" fill="#EE9B00"/>
<path d="M32.2879 28.6708H29.3586V46.1998H32.2879V28.6708Z" fill="#EE9B00"/>
<path d="M32.2879 51.3905H29.3586V56.368H32.2879V51.3905Z" fill="#EE9B00"/>
<path d="M32.2879 21.9878H29.3586V26.313H32.2879V21.9878Z" fill="#EE9B00"/>
<path d="M32.2879 58.2095H29.3586V64.2401H32.2879V58.2095Z" fill="#EE9B00"/>
<path d="M32.2879 9.99098H29.3586V14.0131H32.2879V9.99098Z" fill="#EE9B00"/>
<path d="M32.2879 90.3784H29.3586V98.9464H32.2879V90.3784Z" fill="#EE9B00"/>
<path d="M32.2879 107.386H29.3586V119.655H32.2879V107.386Z" fill="#EE9B00"/>
<path d="M32.2879 69.2252H29.3586V81.4044H32.2879V69.2252Z" fill="#EE9B00"/>
<path d="M29.3586 123.038V128.395L32.2879 126.608V123.038H29.3586Z" fill="#EE9B00"/>
<path d="M32.2879 7.1555L29.3586 5.36537V7.37638H32.2879V7.1555Z" fill="#EE9B00"/>
<path d="M32.2879 100.829H29.3586V103.975H32.2879V100.829Z" fill="#EE9B00"/>
<path d="M32.2879 82.6039H29.3586V86.2304H32.2879V82.6039Z" fill="#EE9B00"/>
<path d="M81.2547 26.313H84.1839L77.0972 21.9878H74.168L81.2547 26.313Z" fill="#005F73"/>
<path d="M113.83 46.1972H116.759L100.124 36.0445H97.1948L113.83 46.1972Z" fill="#005F73"/>
<path d="M61.105 14.0131H64.0343L57.4454 9.99098H54.5161L61.105 14.0131Z" fill="#005F73"/>
<path d="M91.6726 32.6722H94.6019L88.0431 28.6708H85.1138L91.6726 32.6722Z" fill="#005F73"/>
<path d="M130.489 56.368H133.419L125.265 51.3905H122.336L130.489 56.368Z" fill="#005F73"/>
<path d="M53.1623 7.37638L41.0786 0V1.79021L50.233 7.37638H53.1623Z" fill="#005F73"/>
<path d="M143.385 64.2401H146.315L136.438 58.2095H133.509L143.385 64.2401Z" fill="#005F73"/>
<path d="M95.1792 98.9489H98.1112L124.883 82.6039H121.953L95.1792 98.9489Z" fill="#005F73"/>
<path d="M61.2583 119.655H64.1876L84.2907 107.386H81.3587L61.2583 119.655Z" fill="#005F73"/>
<path d="M143.872 69.2252L123.92 81.4044H126.849L146.802 69.2252H143.872Z" fill="#005F73"/>
<path d="M41.0786 131.973V133.761L58.6462 123.038H55.7142L41.0786 131.973Z" fill="#005F73"/>
<path d="M86.9436 103.978H89.873L95.0286 100.829H92.0966L86.9436 103.978Z" fill="#005F73"/>
<path d="M41.0785 1.79021L38.1492 0V3.57775L41.0785 5.36537V1.79021Z" fill="#94D2BD"/>
<path d="M38.1492 130.183V133.761L41.0785 131.973V128.395L38.1492 130.183Z" fill="#94D2BD"/>
<path d="M89.3206 98.9489H95.1792L121.953 82.6039H116.095L89.3206 98.9489Z" fill="#94D2BD"/>
<path d="M81.0823 103.978H86.9436L92.0966 100.829H86.238L81.0823 103.978Z" fill="#94D2BD"/>
<path d="M55.3997 119.655H61.2583L81.3586 107.386H75.5L55.3997 119.655Z" fill="#94D2BD"/>
<path d="M75.3933 26.313H81.2547L74.168 21.9878H68.3066L75.3933 26.313Z" fill="#94D2BD"/>
<path d="M85.8112 32.6722H91.6726L85.1137 28.6708H79.2551L85.8112 32.6722Z" fill="#94D2BD"/>
<path d="M55.2437 14.0131H61.105L54.5161 9.99098H48.6548L55.2437 14.0131Z" fill="#94D2BD"/>
<path d="M107.968 46.1972H113.83L97.1949 36.0445H91.3335L107.968 46.1972Z" fill="#94D2BD"/>
<path d="M137.524 64.2401H143.386L133.509 58.2095H127.648L137.524 64.2401Z" fill="#94D2BD"/>
<path d="M49.8556 123.038L41.0786 128.395V131.973L55.7142 123.038H49.8556Z" fill="#94D2BD"/>
<path d="M124.628 56.368H130.489L122.336 51.3905H116.475L124.628 56.368Z" fill="#94D2BD"/>
<path d="M44.3716 7.37638H50.233L41.0786 1.79021V5.36537L44.3716 7.37638Z" fill="#94D2BD"/>
<path d="M118.058 81.4044H123.92L143.872 69.2252H138.011L118.058 81.4044Z" fill="#94D2BD"/>
<path d="M38.1492 3.57775L32.2878 0V1.79021L38.1492 5.36537V3.57775Z" fill="#E9D8A6"/>
<path d="M32.2878 131.973V133.761L38.1492 130.183V128.395L32.2878 131.973Z" fill="#E9D8A6"/>
<path d="M38.1492 124.818L32.2878 128.395V131.973L38.1492 128.395V124.818Z" fill="#E9D8A6"/>
<path d="M35.5837 7.37638H38.1492V5.36537L32.2878 1.79021V5.36537L35.5837 7.37638Z" fill="#E9D8A6"/>
<path d="M38.1355 123.038L32.2878 126.608V128.395L38.1492 124.818V123.038H38.1355Z" fill="#E9D8A6"/>
<path d="M35.5837 7.37638L32.2878 5.36537V7.1555L32.6516 7.37638H35.5837Z" fill="#E9D8A6"/>
<path d="M38.1492 9.99098H36.9348L38.1492 10.7332V9.99098Z" fill="#E9D8A6"/>
<path d="M38.1492 28.6708H32.2878V46.1998H38.1492V28.6708Z" fill="#E9D8A6"/>
<path d="M38.1492 51.3905H32.2878V56.368H38.1492V51.3905Z" fill="#E9D8A6"/>
<path d="M38.1492 58.2095H32.2878V64.2401H38.1492V58.2095Z" fill="#E9D8A6"/>
<path d="M26.793 7.37638L26.4292 7.1555V7.37638H26.793Z" fill="#E9D8A6"/>
<path d="M38.1492 82.6039H32.2878V86.2304H38.1492V82.6039Z" fill="#E9D8A6"/>
<path d="M38.1492 21.9878H32.2878V26.313H38.1492V21.9878Z" fill="#E9D8A6"/>
<path d="M38.1492 14.0131V10.7332L36.9348 9.99098H32.2878V14.0131H38.1492Z" fill="#E9D8A6"/>
<path d="M38.1492 90.3784H32.2878V98.9464H38.1492V90.3784Z" fill="#E9D8A6"/>
<path d="M32.2878 123.038V126.608L38.1355 123.038H32.2878Z" fill="#E9D8A6"/>
<path d="M38.1492 107.386H32.2878V119.655H38.1492V107.386Z" fill="#E9D8A6"/>
<path d="M38.1492 69.2252H32.2878V81.4044H38.1492V69.2252Z" fill="#E9D8A6"/>
<path d="M38.1492 100.829H32.2878V103.975H38.1492V100.829Z" fill="#E9D8A6"/>
<path d="M41.0785 7.15549V5.36536L38.1492 3.57774V5.36536L41.0785 7.15549Z" fill="#E9D8A6"/>
<path d="M41.0785 126.608L38.1492 128.395V130.183L41.0785 128.395V126.608Z" fill="#E9D8A6"/>
<path d="M41.0648 123.038L38.1492 124.818V128.395L41.0785 126.608V123.038H41.0648Z" fill="#E9D8A6"/>
<path d="M41.0787 9.99098H39.8669L41.0787 10.7332V9.99098Z" fill="#E9D8A6"/>
<path d="M41.0785 7.1555L38.1492 5.36537V7.37638H41.0785V7.1555Z" fill="#E9D8A6"/>
<path d="M41.0785 12.5208V10.7332L39.8668 9.99098H38.1492V10.7332L41.0785 12.5208Z" fill="#E9D8A6"/>
<path d="M38.1492 123.038V124.818L41.0648 123.038H38.1492Z" fill="#E9D8A6"/>
<path d="M41.0785 51.3905H38.1492V56.368H41.0785V51.3905Z" fill="#E9D8A6"/>
<path d="M41.0785 69.2252H38.1492V81.4044H41.0785V69.2252Z" fill="#E9D8A6"/>
<path d="M41.0785 21.9878H38.1492V26.313H41.0785V21.9878Z" fill="#E9D8A6"/>
<path d="M41.0785 28.6708H38.1492V46.1998H41.0785V28.6708Z" fill="#E9D8A6"/>
<path d="M41.0785 58.2095H38.1492V64.2401H41.0785V58.2095Z" fill="#E9D8A6"/>
<path d="M41.0785 12.5208L38.1492 10.7332V14.0131H41.0785V12.5208Z" fill="#E9D8A6"/>
<path d="M41.0785 82.6039H38.1492V86.2304H41.0785V82.6039Z" fill="#E9D8A6"/>
<path d="M41.0785 107.386H38.1492V119.655H41.0785V107.386Z" fill="#E9D8A6"/>
<path d="M41.0785 100.829H38.1492V103.975H41.0785V100.829Z" fill="#E9D8A6"/>
<path d="M41.0785 90.3784H38.1492V98.9464H41.0785V90.3784Z" fill="#E9D8A6"/>
<path d="M41.0786 126.608V128.395L49.8556 123.038H46.9263L41.0786 126.608Z" fill="#E9D8A6"/>
<path d="M52.4675 119.655H55.3996L75.5 107.386H72.568L52.4675 119.655Z" fill="#E9D8A6"/>
<path d="M78.1531 103.978H81.0823L86.2381 100.829H83.3087L78.1531 103.978Z" fill="#E9D8A6"/>
<path d="M124.718 58.2095L134.595 64.2401H137.524L127.648 58.2095H124.718Z" fill="#E9D8A6"/>
<path d="M115.129 81.4044H118.058L138.011 69.2252H135.082L115.129 81.4044Z" fill="#E9D8A6"/>
<path d="M86.3884 98.9489H89.3205L116.094 82.6039H113.162L86.3884 98.9489Z" fill="#E9D8A6"/>
<path d="M55.2438 14.0131L48.6549 9.99098H45.7256L52.3145 14.0131H55.2438Z" fill="#E9D8A6"/>
<path d="M72.4639 26.313H75.3932L68.3065 21.9878H65.3772L72.4639 26.313Z" fill="#E9D8A6"/>
<path d="M82.8821 32.6722H85.8113L79.2553 28.6708H76.3232L82.8821 32.6722Z" fill="#E9D8A6"/>
<path d="M121.699 56.368H124.628L116.475 51.3905H113.545L121.699 56.368Z" fill="#E9D8A6"/>
<path d="M105.039 46.1972H107.969L91.3336 36.0445H88.4043L105.039 46.1972Z" fill="#E9D8A6"/>
<path d="M44.3716 7.37638L41.0786 5.36537V7.1555L41.4424 7.37638H44.3716Z" fill="#E9D8A6"/>
<path d="M115.84 56.368H121.699L113.545 51.3905H107.684L115.84 56.368Z" fill="#E9D8A6"/>
<path d="M66.6052 26.313H72.4638L65.3772 21.9878H59.5159L66.6052 26.313Z" fill="#E9D8A6"/>
<path d="M109.27 81.4044H115.129L135.082 69.2252H129.22L109.27 81.4044Z" fill="#E9D8A6"/>
<path d="M66.7092 107.386L46.6089 119.655H52.4675L72.5679 107.386H66.7092Z" fill="#E9D8A6"/>
<path d="M35.5838 7.37638L35.22 7.1555V7.37638H35.5838Z" fill="#E9D8A6"/>
<path d="M41.0786 123.038V126.608L46.9263 123.038H41.0786Z" fill="#E9D8A6"/>
<path d="M72.2917 103.978H78.1531L83.3087 100.829H77.4475L72.2917 103.978Z" fill="#E9D8A6"/>
<path d="M80.5298 98.9489H86.3884L113.162 82.6039H107.304L80.5298 98.9489Z" fill="#E9D8A6"/>
<path d="M128.736 64.2401H134.595L124.718 58.2095H118.857L128.736 64.2401Z" fill="#E9D8A6"/>
<path d="M99.1806 46.1972H105.039L88.4043 36.0445H82.5457L99.1806 46.1972Z" fill="#E9D8A6"/>
<path d="M46.4531 14.0131H52.3144L45.7255 9.99098H41.0786V10.7332L46.4531 14.0131Z" fill="#E9D8A6"/>
<path d="M77.0234 32.6722H82.882L76.3232 28.6708H70.4646L77.0234 32.6722Z" fill="#E9D8A6"/>
<path d="M104.755 51.3905L112.908 56.368H115.84L107.684 51.3905H104.755Z" fill="#E9D8A6"/>
<path d="M77.6006 98.9489H80.5298L107.304 82.6039H104.375L77.6006 98.9489Z" fill="#E9D8A6"/>
<path d="M46.4531 14.0131L41.0786 10.7332V12.5208L43.5238 14.0131H46.4531Z" fill="#E9D8A6"/>
<path d="M106.338 81.4044H109.27L129.22 69.2252H126.291L106.338 81.4044Z" fill="#E9D8A6"/>
<path d="M66.6054 26.313L59.516 21.9878H56.5867L63.6734 26.313H66.6054Z" fill="#E9D8A6"/>
<path d="M69.3623 103.978H72.2917L77.4474 100.829H74.518L69.3623 103.978Z" fill="#E9D8A6"/>
<path d="M96.2485 46.1972H99.1805L82.5455 36.0445H79.6135L96.2485 46.1972Z" fill="#E9D8A6"/>
<path d="M74.0912 32.6722H77.0233L70.4645 28.6708H67.5352L74.0912 32.6722Z" fill="#E9D8A6"/>
<path d="M125.804 64.2401H128.736L118.857 58.2095H115.928L125.804 64.2401Z" fill="#E9D8A6"/>
<path d="M43.6768 119.655H46.6088L66.7091 107.386H63.7799L43.6768 119.655Z" fill="#E9D8A6"/>
<path d="M41.0786 56.368H112.908L104.755 51.3905H41.0786V56.368Z" fill="#E9D8A6"/>
<path d="M41.0786 64.2401H125.804L115.928 58.2095H41.0786V64.2401Z" fill="#E9D8A6"/>
<path d="M41.0786 100.829V103.978H69.3624L74.5181 100.829H41.0786Z" fill="#E9D8A6"/>
<path d="M41.0786 119.655H43.6769L63.78 107.386H41.0786V119.655Z" fill="#E9D8A6"/>
<path d="M79.6136 36.0446H52.67V32.6722H74.0914L67.5353 28.6708H41.0786V46.1972H96.2486L79.6136 36.0446Z" fill="#E9D8A6"/>
<path d="M43.5238 14.0131L41.0786 12.5208V14.0131H43.5238Z" fill="#E9D8A6"/>
<path d="M41.0786 81.4044H106.338L126.291 69.2252H41.0786V81.4044Z" fill="#E9D8A6"/>
<path d="M63.6734 26.313L56.5867 21.9878H41.0786V26.313H63.6734Z" fill="#E9D8A6"/>
<path d="M41.0786 86.2304H66.9226V90.3784H41.0786V98.9489H77.6006L104.375 82.6039H41.0786V86.2304Z" fill="#E9D8A6"/>
<path d="M29.3585 14.0131H26.4292V21.9878H29.3585V14.0131Z" fill="#9B2226"/>
<path d="M35.2199 14.0131H29.3586V21.9878H35.2199V14.0131Z" fill="#AE2012"/>
<path d="M38.1493 14.0131H35.22V21.9878H38.1493V14.0131Z" fill="#EE9B00"/>
<path d="M80.0265 21.9878H82.9585L69.8956 14.0131H66.9636L80.0265 21.9878Z" fill="#005F73"/>
<path d="M74.1679 21.9878H80.0265L66.9636 14.0131H61.105L74.1679 21.9878Z" fill="#94D2BD"/>
<path d="M44.0105 14.0131H38.1492V21.9878H44.0105V14.0131Z" fill="#E9D8A6"/>
<path d="M46.9398 14.0131H44.0105V21.9878H46.9398V14.0131Z" fill="#E9D8A6"/>
<path d="M71.2387 21.9878H74.168L61.1051 14.0131H58.1758L71.2387 21.9878Z" fill="#E9D8A6"/>
<path d="M71.2387 21.9878L58.1758 14.0131H52.3145L65.3774 21.9878H71.2387Z" fill="#E9D8A6"/>
<path d="M62.4479 21.9878H65.3772L52.3143 14.0131H49.385L62.4479 21.9878Z" fill="#E9D8A6"/>
<path d="M49.3852 14.0131H46.9399V21.9878H62.4481L49.3852 14.0131Z" fill="#E9D8A6"/>
<path d="M8.84796 26.313H5.9187V28.6707H8.84796V26.313Z" fill="#9B2226"/>
<path d="M14.7065 26.313H8.8479V28.6707H14.7065V26.313Z" fill="#AE2012"/>
<path d="M17.6386 26.313H14.7092V28.6707H17.6386V26.313Z" fill="#EE9B00"/>
<path d="M70.4645 28.6707H73.3938L69.5346 26.313H66.6052L70.4645 28.6707Z" fill="#005F73"/>
<path d="M64.6032 28.6707H70.4645L66.6053 26.313H60.7439L64.6032 28.6707Z" fill="#94D2BD"/>
<path d="M23.4973 26.313H17.6387V28.6707H23.4973V26.313Z" fill="#E9D8A6"/>
<path d="M26.4293 26.313H23.5V28.6707H26.4293V26.313Z" fill="#E9D8A6"/>
<path d="M61.674 28.6707H64.6032L60.744 26.313H57.8147L61.674 28.6707Z" fill="#E9D8A6"/>
<path d="M55.8154 28.6707H61.674L57.8147 26.313H51.9534L55.8154 28.6707Z" fill="#E9D8A6"/>
<path d="M52.8834 28.6707H55.8155L51.9534 26.313H49.0242L52.8834 28.6707Z" fill="#E9D8A6"/>
<path d="M49.024 26.313H26.4292V28.6707H52.8832L49.024 26.313Z" fill="#E9D8A6"/>
<path d="M29.3585 46.1972H26.4292V51.3905H29.3585V46.1972Z" fill="#9B2226"/>
<path d="M35.2199 46.1972H29.3586V51.3905H35.2199V46.1972Z" fill="#AE2012"/>
<path d="M38.1493 46.1972H35.22V51.3905H38.1493V46.1972Z" fill="#EE9B00"/>
<path d="M128.195 51.3905H131.127L122.62 46.1972H119.688L128.195 51.3905Z" fill="#005F73"/>
<path d="M122.336 51.3905H128.195L119.689 46.1972H113.83L122.336 51.3905Z" fill="#94D2BD"/>
<path d="M44.0105 46.1972H38.1492V51.3905H44.0105V46.1972Z" fill="#E9D8A6"/>
<path d="M46.9398 46.1972H44.0105V51.3905H46.9398V46.1972Z" fill="#E9D8A6"/>
<path d="M119.404 51.3905H122.336L113.83 46.1972H110.9L119.404 51.3905Z" fill="#E9D8A6"/>
<path d="M113.545 51.3905H119.404L110.9 46.1972H105.039L113.545 51.3905Z" fill="#E9D8A6"/>
<path d="M110.616 51.3905H113.545L105.039 46.1972H102.11L110.616 51.3905Z" fill="#E9D8A6"/>
<path d="M46.9399 46.1972V51.3905H110.616L102.11 46.1972H46.9399Z" fill="#E9D8A6"/>
<path d="M32.2879 64.2401H29.3586V69.2252H32.2879V64.2401Z" fill="#9B2226"/>
<path d="M38.1492 64.2401H32.2878V69.2252H38.1492V64.2401Z" fill="#AE2012"/>
<path d="M41.0785 64.2401H38.1492V69.2252H41.0785V64.2401Z" fill="#EE9B00"/>
<path d="M156.503 66.8803L152.663 69.2252H155.592L159.432 66.8803L155.105 64.2401H152.176L156.503 66.8803Z" fill="#005F73"/>
<path d="M152.176 64.2401H146.315L150.642 66.8803L146.802 69.2252H152.663L156.503 66.8803L152.176 64.2401Z" fill="#94D2BD"/>
<path d="M46.9372 64.2401H41.0786V69.2252H46.9372V64.2401Z" fill="#E9D8A6"/>
<path d="M49.8693 64.2401H46.9399V69.2252H49.8693V64.2401Z" fill="#E9D8A6"/>
<path d="M147.712 66.8803L143.872 69.2252H146.802L150.642 66.8803L146.315 64.2401H143.385L147.712 66.8803Z" fill="#E9D8A6"/>
<path d="M141.851 66.8803L138.011 69.2252H143.872L147.712 66.8803L143.386 64.2401H137.524L141.851 66.8803Z" fill="#E9D8A6"/>
<path d="M138.922 66.8803L135.082 69.2252H138.011L141.851 66.8803L137.524 64.2401H134.595L138.922 66.8803Z" fill="#E9D8A6"/>
<path d="M49.8691 69.2252H135.082L138.922 66.8803L134.595 64.2401H49.8691V69.2252Z" fill="#E9D8A6"/>
<path d="M14.7093 81.4044H11.78V82.6039H14.7093V81.4044Z" fill="#9B2226"/>
<path d="M20.5678 81.4044H14.7092V82.6039H20.5678V81.4044Z" fill="#AE2012"/>
<path d="M23.4972 81.4044H20.5679V82.6039H23.4972V81.4044Z" fill="#EE9B00"/>
<path d="M113.162 82.6039H116.094L118.058 81.4044H115.129L113.162 82.6039Z" fill="#005F73"/>
<path d="M107.304 82.6039H113.162L115.129 81.4044H109.27L107.304 82.6039Z" fill="#94D2BD"/>
<path d="M29.3586 81.4044H23.5V82.6039H29.3586V81.4044Z" fill="#E9D8A6"/>
<path d="M32.2879 81.4044H29.3586V82.6039H32.2879V81.4044Z" fill="#E9D8A6"/>
<path d="M104.375 82.6039H107.304L109.27 81.4044H106.338L104.375 82.6039Z" fill="#E9D8A6"/>
<path d="M98.5132 82.6039H104.375L106.338 81.4044H100.48L98.5132 82.6039Z" fill="#E9D8A6"/>
<path d="M95.584 82.6039H98.5133L100.48 81.4044H97.5478L95.584 82.6039Z" fill="#E9D8A6"/>
<path d="M32.2878 82.6039H95.5839L97.5477 81.4044H32.2878V82.6039Z" fill="#E9D8A6"/>
<path d="M29.3585 103.978H26.4292V107.386H29.3585V103.978Z" fill="#9B2226"/>
<path d="M35.2199 103.978H29.3586V107.386H35.2199V103.978Z" fill="#AE2012"/>
<path d="M38.1493 103.978H35.22V107.386H38.1493V103.978Z" fill="#EE9B00"/>
<path d="M87.22 107.386H90.1492L95.7316 103.978H92.8023L87.22 107.386Z" fill="#005F73"/>
<path d="M81.3586 107.386H87.22L92.8023 103.978H86.9437L81.3586 107.386Z" fill="#94D2BD"/>
<path d="M44.0105 103.978H38.1492V107.386H44.0105V103.978Z" fill="#E9D8A6"/>
<path d="M46.9398 103.978H44.0105V107.386H46.9398V103.978Z" fill="#E9D8A6"/>
<path d="M78.4292 107.386H81.3585L86.9436 103.978H84.0116L78.4292 107.386Z" fill="#E9D8A6"/>
<path d="M72.5679 107.386H78.4292L84.0116 103.978H78.153L72.5679 107.386Z" fill="#E9D8A6"/>
<path d="M75.2238 103.978L69.6387 107.386H72.568L78.1531 103.978H75.2238Z" fill="#E9D8A6"/>
<path d="M46.9399 107.386H69.6387L75.2238 103.978H46.9399V107.386Z" fill="#E9D8A6"/>
<path d="M46.9398 98.9489H44.0105V100.832H46.9398V98.9489Z" fill="#9B2226"/>
<path d="M52.8013 98.9489H46.9399V100.832H52.8013V98.9489Z" fill="#AE2012"/>
<path d="M55.7279 98.9489H52.7986V100.832H55.7279V98.9489Z" fill="#EE9B00"/>
<path d="M115.536 100.829H118.469L121.551 98.9489H118.619L115.536 100.829Z" fill="#005F73"/>
<path d="M109.678 100.829H115.537L118.619 98.9489H112.76L109.678 100.829Z" fill="#94D2BD"/>
<path d="M61.5918 98.9489H55.7305V100.832H61.5918V98.9489Z" fill="#E9D8A6"/>
<path d="M64.5184 98.9489H61.5891V100.832H64.5184V98.9489Z" fill="#E9D8A6"/>
<path d="M106.749 100.829H109.678L112.76 98.9489H109.831L106.749 100.829Z" fill="#E9D8A6"/>
<path d="M100.887 100.829H106.749L109.831 98.9489H103.97L100.887 100.829Z" fill="#E9D8A6"/>
<path d="M97.958 100.829H100.887L103.97 98.9489H101.04L97.958 100.829Z" fill="#E9D8A6"/>
<path d="M64.5186 100.829H97.9581L101.041 98.9489H64.5186V100.829Z" fill="#E9D8A6"/>
<path d="M17.6386 119.655H14.7092V123.038H17.6386V119.655Z" fill="#9B2226"/>
<path d="M23.4973 119.655H17.6387V123.038H23.4973V119.655Z" fill="#AE2012"/>
<path d="M26.4293 119.655H23.5V123.038H26.4293V119.655Z" fill="#EE9B00"/>
<path d="M49.8555 123.038H52.7848L58.3288 119.655H55.3996L49.8555 123.038Z" fill="#005F73"/>
<path d="M43.9941 123.038H49.8555L55.3996 119.655H49.5382L43.9941 123.038Z" fill="#94D2BD"/>
<path d="M38.1355 123.038H38.147V123.03L38.1355 123.038Z" fill="#E9D8A6"/>
<path d="M32.2878 119.655H26.4292V123.038H32.2741L32.2878 123.03V119.655Z" fill="#E9D8A6"/>
<path d="M41.0649 123.038H41.0764V123.03L41.0649 123.038Z" fill="#E9D8A6"/>
<path d="M35.2199 121.242L32.2878 123.03V123.038H35.2063L35.2199 123.03V121.242Z" fill="#E9D8A6"/>
<path d="M32.2878 119.655V123.03L35.2199 121.242V119.655H32.2878Z" fill="#E9D8A6"/>
<path d="M46.609 119.655L41.0649 123.038H43.9942L49.5383 119.655H46.609Z" fill="#E9D8A6"/>
<path d="M35.22 123.03V123.038H41.065L46.609 119.655H40.7477L35.22 123.03Z" fill="#E9D8A6"/>
<path d="M35.22 121.242V123.03L40.7477 119.655H37.8184L35.22 121.242Z" fill="#E9D8A6"/>
<path d="M35.22 119.655V121.242L37.8184 119.655H35.22Z" fill="#E9D8A6"/>
<path d="M108.915 36.0445H111.844L106.322 32.6722H103.393L108.915 36.0445Z" fill="#005F73"/>
<path d="M103.053 36.0445H108.915L103.393 32.6722H97.5312L103.053 36.0445Z" fill="#94D2BD"/>
<path d="M100.124 36.0445H103.054L97.5313 32.6722H94.6021L100.124 36.0445Z" fill="#E9D8A6"/>
<path d="M94.2656 36.0445H100.124L94.6021 32.6722H88.7434L94.2656 36.0445Z" fill="#E9D8A6"/>
<path d="M91.3335 36.0445H94.2655L88.7433 32.6722H85.8113L91.3335 36.0445Z" fill="#E9D8A6"/>
<path d="M52.6699 36.0445H79.6136L74.0913 32.6722H52.6699V36.0445Z" fill="#E9D8A6"/>
<path d="M17.6386 7.37637H14.7092V9.99099H17.6386V7.37637Z" fill="#9B2226"/>
<path d="M23.4973 7.37637H17.6387V9.99099H23.4973V7.37637Z" fill="#AE2012"/>
<path d="M26.4293 7.37637H23.5V9.99099H26.4293V7.37637Z" fill="#EE9B00"/>
<path d="M48.6548 9.99099H51.5868L47.3037 7.37637H44.3716L48.6548 9.99099Z" fill="#005F73"/>
<path d="M48.6548 9.99099L44.3715 7.37637H38.5129L42.7962 9.99099H48.6548Z" fill="#94D2BD"/>
<path d="M32.2879 7.37637H29.7224L32.2879 8.94312V7.37637Z" fill="#E9D8A6"/>
<path d="M31.0762 9.99099H32.2878V8.94312L29.7223 7.37637H26.793L31.0762 9.99099Z" fill="#E9D8A6"/>
<path d="M26.793 7.37637H26.4292V9.99099H31.0762L26.793 7.37637Z" fill="#E9D8A6"/>
<path d="M34.0055 9.99099H35.2199V7.37637H32.2878V8.94312L34.0055 9.99099Z" fill="#E9D8A6"/>
<path d="M32.2878 8.94312V9.99098H34.0055L32.2878 8.94312Z" fill="#E9D8A6"/>
<path d="M39.8669 9.99099H42.7962L38.513 7.37637H35.5837L39.8669 9.99099Z" fill="#E9D8A6"/>
<path d="M35.5838 7.37637H35.22V9.99099H39.8669L35.5838 7.37637Z" fill="#E9D8A6"/>
<path d="M17.6386 86.2304H14.7092V90.3784H17.6386V86.2304Z" fill="#9B2226"/>
<path d="M23.4973 86.2304H17.6387V90.3784H23.4973V86.2304Z" fill="#AE2012"/>
<path d="M26.4293 86.2304H23.5V90.3784H26.4293V86.2304Z" fill="#EE9B00"/>
<path d="M32.2878 86.2304H26.4292V90.3784H32.2878V86.2304Z" fill="#E9D8A6"/>
<path d="M35.2172 86.2304H32.2878V90.3784H35.2172V86.2304Z" fill="#E9D8A6"/>
<path d="M66.9226 86.2304H41.0786V90.3784H66.9226V86.2304Z" fill="#E9D8A6"/>
<path d="M2.98932 56.368H0.0600586V58.2095H2.98932V56.368Z" fill="#9B2226"/>
<path d="M8.85062 56.368H2.98926V58.2095H8.85062V56.368Z" fill="#AE2012"/>
<path d="M11.7772 56.368H8.8479V58.2095H11.7772V56.368Z" fill="#EE9B00"/>
<path d="M112.998 58.2095H115.928L112.908 56.368H109.979L112.998 58.2095Z" fill="#005F73"/>
<path d="M107.137 58.2095H112.998L109.979 56.368H104.12L107.137 58.2095Z" fill="#94D2BD"/>
<path d="M17.6414 56.368H11.78V58.2095H17.6414V56.368Z" fill="#E9D8A6"/>
<path d="M20.5679 56.368H17.6387V58.2095H20.5679V56.368Z" fill="#E9D8A6"/>
<path d="M104.208 58.2095H107.137L104.12 56.368H101.188L104.208 58.2095Z" fill="#E9D8A6"/>
<path d="M95.3296 56.368L98.3464 58.2095H104.208L101.188 56.368H95.3296Z" fill="#E9D8A6"/>
<path d="M95.417 58.2095H98.3463L95.3295 56.368H92.4001L95.417 58.2095Z" fill="#E9D8A6"/>
<path d="M20.5679 58.2095H95.417L92.4002 56.368H20.5679V58.2095Z" fill="#E9D8A6"/>
<path d="M132.437 58.2095H129.508V64.2401H132.437V58.2095Z" fill="#9B2226"/>
<path d="M132.437 69.2252H129.508V81.4044H132.437V69.2252Z" fill="#9B2226"/>
<path d="M132.437 51.3905H129.508V56.368H132.437V51.3905Z" fill="#9B2226"/>
<path d="M129.508 123.038V133.761L132.44 131.973V123.038H129.508Z" fill="#9B2226"/>
<path d="M132.437 90.3784H129.508V98.9464H132.437V90.3784Z" fill="#9B2226"/>
<path d="M132.437 82.6039H129.508V86.2304H132.437V82.6039Z" fill="#9B2226"/>
<path d="M132.437 100.829H129.508V103.975H132.437V100.829Z" fill="#9B2226"/>
<path d="M132.437 9.99098H129.508V14.0131H132.437V9.99098Z" fill="#9B2226"/>
<path d="M132.44 1.79021L129.508 0V7.37638H132.44V1.79021Z" fill="#9B2226"/>
<path d="M132.437 21.9878H129.508V26.313H132.437V21.9878Z" fill="#9B2226"/>
<path d="M132.437 28.6708H129.508V46.1998H132.437V28.6708Z" fill="#9B2226"/>
<path d="M132.437 107.386H129.508V119.655H132.437V107.386Z" fill="#9B2226"/>
<path d="M138.299 3.57775L132.44 0V1.79021L138.299 5.36537V3.57775Z" fill="#AE2012"/>
<path d="M132.44 131.973V133.761L138.299 130.183V128.395L132.44 131.973Z" fill="#AE2012"/>
<path d="M138.299 58.2095H132.44V64.2401H138.299V58.2095Z" fill="#AE2012"/>
<path d="M138.299 69.2252H132.44V81.4044H138.299V69.2252Z" fill="#AE2012"/>
<path d="M138.299 7.37638V5.36537L132.44 1.79021V7.37638H138.299Z" fill="#AE2012"/>
<path d="M138.299 107.386H132.44V119.655H138.299V107.386Z" fill="#AE2012"/>
<path d="M138.299 82.6039H132.44V86.2304H138.299V82.6039Z" fill="#AE2012"/>
<path d="M138.299 100.829H132.44V103.975H138.299V100.829Z" fill="#AE2012"/>
<path d="M138.299 90.3784H132.44V98.9464H138.299V90.3784Z" fill="#AE2012"/>
<path d="M138.299 21.9878H132.44V26.313H138.299V21.9878Z" fill="#AE2012"/>
<path d="M138.299 51.3905H132.44V56.368H138.299V51.3905Z" fill="#AE2012"/>
<path d="M138.299 28.6708H132.44V46.1998H138.299V28.6708Z" fill="#AE2012"/>
<path d="M138.299 9.99098H132.44V14.0131H138.299V9.99098Z" fill="#AE2012"/>
<path d="M138.299 123.038H132.44V131.973L138.299 128.395V123.038Z" fill="#AE2012"/>
<path d="M141.228 1.79021L138.299 0V3.57775L141.228 5.36537V1.79021Z" fill="#EE9B00"/>
<path d="M138.299 130.183V133.761L141.228 131.973V128.395L138.299 130.183Z" fill="#EE9B00"/>
<path d="M141.228 7.15549V5.36536L138.299 3.57774V5.36536L141.228 7.15549Z" fill="#EE9B00"/>
<path d="M141.228 126.608L138.299 128.395V130.183L141.228 128.395V126.608Z" fill="#EE9B00"/>
<path d="M141.228 28.6708H138.299V46.1998H141.228V28.6708Z" fill="#EE9B00"/>
<path d="M141.228 51.3905H138.299V56.368H141.228V51.3905Z" fill="#EE9B00"/>
<path d="M141.228 21.9878H138.299V26.313H141.228V21.9878Z" fill="#EE9B00"/>
<path d="M141.228 58.2095H138.299V64.2401H141.228V58.2095Z" fill="#EE9B00"/>
<path d="M141.228 9.99098H138.299V14.0131H141.228V9.99098Z" fill="#EE9B00"/>
<path d="M141.228 90.3784H138.299V98.9464H141.228V90.3784Z" fill="#EE9B00"/>
<path d="M141.228 107.386H138.299V119.655H141.228V107.386Z" fill="#EE9B00"/>
<path d="M141.228 69.2252H138.299V81.4044H141.228V69.2252Z" fill="#EE9B00"/>
<path d="M138.299 123.038V128.395L141.228 126.608V123.038H138.299Z" fill="#EE9B00"/>
<path d="M141.228 7.1555L138.299 5.36537V7.37638H141.228V7.1555Z" fill="#EE9B00"/>
<path d="M141.228 100.829H138.299V103.975H141.228V100.829Z" fill="#EE9B00"/>
<path d="M141.228 82.6039H138.299V86.2304H141.228V82.6039Z" fill="#EE9B00"/>
<path d="M190.195 26.313H193.124L186.037 21.9878H183.108L190.195 26.313Z" fill="#005F73"/>
<path d="M222.77 46.1972H225.699L209.064 36.0445H206.135L222.77 46.1972Z" fill="#005F73"/>
<path d="M170.045 14.0131H172.974L166.385 9.99098H163.456L170.045 14.0131Z" fill="#005F73"/>
<path d="M200.613 32.6722H203.542L196.983 28.6708H194.054L200.613 32.6722Z" fill="#005F73"/>
<path d="M239.429 56.368H242.359L234.205 51.3905H231.276L239.429 56.368Z" fill="#005F73"/>
<path d="M162.102 7.37638L150.019 0V1.79021L159.173 7.37638H162.102Z" fill="#005F73"/>
<path d="M252.325 64.2401H255.255L245.378 58.2095H242.449L252.325 64.2401Z" fill="#005F73"/>
<path d="M204.119 98.9489H207.051L233.822 82.6039H230.893L204.119 98.9489Z" fill="#005F73"/>
<path d="M170.198 119.655H173.127L193.23 107.386H190.298L170.198 119.655Z" fill="#005F73"/>
<path d="M252.812 69.2252L232.86 81.4044H235.789L255.742 69.2252H252.812Z" fill="#005F73"/>
<path d="M150.019 131.973V133.761L167.586 123.038H164.654L150.019 131.973Z" fill="#005F73"/>
<path d="M195.884 103.978H198.813L203.969 100.829H201.037L195.884 103.978Z" fill="#005F73"/>
<path d="M150.018 1.79021L147.089 0V3.57775L150.018 5.36537V1.79021Z" fill="#94D2BD"/>
<path d="M147.089 130.183V133.761L150.018 131.973V128.395L147.089 130.183Z" fill="#94D2BD"/>
<path d="M198.26 98.9489H204.119L230.893 82.6039H225.034L198.26 98.9489Z" fill="#94D2BD"/>
<path d="M190.022 103.978H195.884L201.037 100.829H195.178L190.022 103.978Z" fill="#94D2BD"/>
<path d="M164.34 119.655H170.198L190.299 107.386H184.44L164.34 119.655Z" fill="#94D2BD"/>
<path d="M184.333 26.313H190.195L183.108 21.9878H177.247L184.333 26.313Z" fill="#94D2BD"/>
<path d="M194.751 32.6722H200.613L194.054 28.6708H188.195L194.751 32.6722Z" fill="#94D2BD"/>
<path d="M164.184 14.0131H170.045L163.456 9.99098H157.595L164.184 14.0131Z" fill="#94D2BD"/>
<path d="M216.908 46.1972H222.77L206.135 36.0445H200.273L216.908 46.1972Z" fill="#94D2BD"/>
<path d="M246.464 64.2401H252.325L242.449 58.2095H236.588L246.464 64.2401Z" fill="#94D2BD"/>
<path d="M158.795 123.038L150.019 128.395V131.973L164.654 123.038H158.795Z" fill="#94D2BD"/>
<path d="M233.568 56.368H239.429L231.276 51.3905H225.415L233.568 56.368Z" fill="#94D2BD"/>
<path d="M153.312 7.37638H159.173L150.019 1.79021V5.36537L153.312 7.37638Z" fill="#94D2BD"/>
<path d="M226.998 81.4044H232.86L252.812 69.2252H246.951L226.998 81.4044Z" fill="#94D2BD"/>
<path d="M147.089 3.57775L141.228 0V1.79021L147.089 5.36537V3.57775Z" fill="#E9D8A6"/>
<path d="M141.228 131.973V133.761L147.089 130.183V128.395L141.228 131.973Z" fill="#E9D8A6"/>
<path d="M147.089 124.818L141.228 128.395V131.973L147.089 128.395V124.818Z" fill="#E9D8A6"/>
<path d="M144.524 7.37638H147.089V5.36537L141.228 1.79021V5.36537L144.524 7.37638Z" fill="#E9D8A6"/>
<path d="M147.075 123.038L141.228 126.608V128.395L147.089 124.818V123.038H147.075Z" fill="#E9D8A6"/>
<path d="M144.524 7.37638L141.228 5.36537V7.1555L141.592 7.37638H144.524Z" fill="#E9D8A6"/>
<path d="M147.089 9.99098H145.875L147.089 10.7332V9.99098Z" fill="#E9D8A6"/>
<path d="M147.089 28.6708H141.228V46.1998H147.089V28.6708Z" fill="#E9D8A6"/>
<path d="M147.089 51.3905H141.228V56.368H147.089V51.3905Z" fill="#E9D8A6"/>
<path d="M147.089 58.2095H141.228V64.2401H147.089V58.2095Z" fill="#E9D8A6"/>
<path d="M135.733 7.37638L135.369 7.1555V7.37638H135.733Z" fill="#E9D8A6"/>
<path d="M147.089 82.6039H141.228V86.2304H147.089V82.6039Z" fill="#E9D8A6"/>
<path d="M147.089 21.9878H141.228V26.313H147.089V21.9878Z" fill="#E9D8A6"/>
<path d="M147.089 14.0131V10.7332L145.875 9.99098H141.228V14.0131H147.089Z" fill="#E9D8A6"/>
<path d="M147.089 90.3784H141.228V98.9464H147.089V90.3784Z" fill="#E9D8A6"/>
<path d="M141.228 123.038V126.608L147.075 123.038H141.228Z" fill="#E9D8A6"/>
<path d="M147.089 107.386H141.228V119.655H147.089V107.386Z" fill="#E9D8A6"/>
<path d="M147.089 69.2252H141.228V81.4044H147.089V69.2252Z" fill="#E9D8A6"/>
<path d="M147.089 100.829H141.228V103.975H147.089V100.829Z" fill="#E9D8A6"/>
<path d="M150.018 7.15549V5.36536L147.089 3.57774V5.36536L150.018 7.15549Z" fill="#E9D8A6"/>
<path d="M150.018 126.608L147.089 128.395V130.183L150.018 128.395V126.608Z" fill="#E9D8A6"/>
<path d="M150.005 123.038L147.089 124.818V128.395L150.018 126.608V123.038H150.005Z" fill="#E9D8A6"/>
<path d="M150.018 9.99098H148.807L150.018 10.7332V9.99098Z" fill="#E9D8A6"/>
<path d="M150.018 7.1555L147.089 5.36537V7.37638H150.018V7.1555Z" fill="#E9D8A6"/>
<path d="M150.018 12.5208V10.7332L148.807 9.99098H147.089V10.7332L150.018 12.5208Z" fill="#E9D8A6"/>
<path d="M147.089 123.038V124.818L150.005 123.038H147.089Z" fill="#E9D8A6"/>
<path d="M150.018 51.3905H147.089V56.368H150.018V51.3905Z" fill="#E9D8A6"/>
<path d="M150.018 69.2252H147.089V81.4044H150.018V69.2252Z" fill="#E9D8A6"/>
<path d="M150.018 21.9878H147.089V26.313H150.018V21.9878Z" fill="#E9D8A6"/>
<path d="M150.018 28.6708H147.089V46.1998H150.018V28.6708Z" fill="#E9D8A6"/>
<path d="M150.018 58.2095H147.089V64.2401H150.018V58.2095Z" fill="#E9D8A6"/>
<path d="M150.018 12.5208L147.089 10.7332V14.0131H150.018V12.5208Z" fill="#E9D8A6"/>
<path d="M150.018 82.6039H147.089V86.2304H150.018V82.6039Z" fill="#E9D8A6"/>
<path d="M150.018 107.386H147.089V119.655H150.018V107.386Z" fill="#E9D8A6"/>
<path d="M150.018 100.829H147.089V103.975H150.018V100.829Z" fill="#E9D8A6"/>
<path d="M150.018 90.3784H147.089V98.9464H150.018V90.3784Z" fill="#E9D8A6"/>
<path d="M150.019 126.608V128.395L158.795 123.038H155.866L150.019 126.608Z" fill="#E9D8A6"/>
<path d="M161.407 119.655H164.34L184.44 107.386H181.508L161.407 119.655Z" fill="#E9D8A6"/>
<path d="M187.093 103.978H190.022L195.178 100.829H192.249L187.093 103.978Z" fill="#E9D8A6"/>
<path d="M233.658 58.2095L243.535 64.2401H246.464L236.588 58.2095H233.658Z" fill="#E9D8A6"/>
<path d="M224.069 81.4044H226.998L246.951 69.2252H244.022L224.069 81.4044Z" fill="#E9D8A6"/>
<path d="M195.328 98.9489H198.26L225.034 82.6039H222.102L195.328 98.9489Z" fill="#E9D8A6"/>
<path d="M164.184 14.0131L157.595 9.99098H154.665L161.254 14.0131H164.184Z" fill="#E9D8A6"/>
<path d="M181.404 26.313H184.333L177.246 21.9878H174.317L181.404 26.313Z" fill="#E9D8A6"/>
<path d="M191.822 32.6722H194.751L188.195 28.6708H185.263L191.822 32.6722Z" fill="#E9D8A6"/>
<path d="M230.639 56.368H233.568L225.415 51.3905H222.485L230.639 56.368Z" fill="#E9D8A6"/>
<path d="M213.979 46.1972H216.908L200.273 36.0445H197.344L213.979 46.1972Z" fill="#E9D8A6"/>
<path d="M153.312 7.37638L150.019 5.36537V7.1555L150.382 7.37638H153.312Z" fill="#E9D8A6"/>
<path d="M224.78 56.368H230.639L222.485 51.3905H216.624L224.78 56.368Z" fill="#E9D8A6"/>
<path d="M175.545 26.313H181.404L174.317 21.9878H168.456L175.545 26.313Z" fill="#E9D8A6"/>
<path d="M218.21 81.4044H224.069L244.022 69.2252H238.16L218.21 81.4044Z" fill="#E9D8A6"/>
<path d="M175.649 107.386L155.549 119.655H161.407L181.508 107.386H175.649Z" fill="#E9D8A6"/>
<path d="M144.524 7.37638L144.16 7.1555V7.37638H144.524Z" fill="#E9D8A6"/>
<path d="M150.019 123.038V126.608L155.866 123.038H150.019Z" fill="#E9D8A6"/>
<path d="M181.232 103.978H187.093L192.249 100.829H186.387L181.232 103.978Z" fill="#E9D8A6"/>
<path d="M189.47 98.9489H195.328L222.102 82.6039H216.244L189.47 98.9489Z" fill="#E9D8A6"/>
<path d="M237.676 64.2401H243.535L233.658 58.2095H227.797L237.676 64.2401Z" fill="#E9D8A6"/>
<path d="M208.12 46.1972H213.979L197.344 36.0445H191.485L208.12 46.1972Z" fill="#E9D8A6"/>
<path d="M155.393 14.0131H161.254L154.665 9.99098H150.019V10.7332L155.393 14.0131Z" fill="#E9D8A6"/>
<path d="M185.963 32.6722H191.822L185.263 28.6708H179.405L185.963 32.6722Z" fill="#E9D8A6"/>
<path d="M213.695 51.3905L221.848 56.368H224.78L216.624 51.3905H213.695Z" fill="#E9D8A6"/>
<path d="M186.541 98.9489H189.47L216.244 82.6039H213.315L186.541 98.9489Z" fill="#E9D8A6"/>
<path d="M155.393 14.0131L150.019 10.7332V12.5208L152.464 14.0131H155.393Z" fill="#E9D8A6"/>
<path d="M215.278 81.4044H218.21L238.16 69.2252H235.231L215.278 81.4044Z" fill="#E9D8A6"/>
<path d="M175.545 26.313L168.456 21.9878H165.527L172.613 26.313H175.545Z" fill="#E9D8A6"/>
<path d="M178.302 103.978H181.232L186.387 100.829H183.458L178.302 103.978Z" fill="#E9D8A6"/>
<path d="M205.188 46.1972H208.12L191.485 36.0445H188.553L205.188 46.1972Z" fill="#E9D8A6"/>
<path d="M183.031 32.6722H185.963L179.405 28.6708H176.475L183.031 32.6722Z" fill="#E9D8A6"/>
<path d="M234.744 64.2401H237.676L227.797 58.2095H224.868L234.744 64.2401Z" fill="#E9D8A6"/>
<path d="M152.617 119.655H155.549L175.649 107.386H172.72L152.617 119.655Z" fill="#E9D8A6"/>
<path d="M150.019 56.368H221.848L213.695 51.3905H150.019V56.368Z" fill="#E9D8A6"/>
<path d="M150.019 64.2401H234.744L224.868 58.2095H150.019V64.2401Z" fill="#E9D8A6"/>
<path d="M150.019 100.829V103.978H178.302L183.458 100.829H150.019Z" fill="#E9D8A6"/>
<path d="M150.019 119.655H152.617L172.72 107.386H150.019V119.655Z" fill="#E9D8A6"/>
<path d="M188.554 36.0446H161.61V32.6722H183.031L176.475 28.6708H150.019V46.1972H205.189L188.554 36.0446Z" fill="#E9D8A6"/>
<path d="M152.464 14.0131L150.019 12.5208V14.0131H152.464Z" fill="#E9D8A6"/>
<path d="M150.019 81.4044H215.278L235.231 69.2252H150.019V81.4044Z" fill="#E9D8A6"/>
<path d="M172.613 26.313L165.527 21.9878H150.019V26.313H172.613Z" fill="#E9D8A6"/>
<path d="M150.019 86.2304H175.863V90.3784H150.019V98.9489H186.541L213.315 82.6039H150.019V86.2304Z" fill="#E9D8A6"/>
<path d="M138.298 14.0131H135.369V21.9878H138.298V14.0131Z" fill="#9B2226"/>
<path d="M144.16 14.0131H138.299V21.9878H144.16V14.0131Z" fill="#AE2012"/>
<path d="M147.089 14.0131H144.16V21.9878H147.089V14.0131Z" fill="#EE9B00"/>
<path d="M188.966 21.9878H191.898L178.836 14.0131H175.904L188.966 21.9878Z" fill="#005F73"/>
<path d="M183.108 21.9878H188.967L175.904 14.0131H170.045L183.108 21.9878Z" fill="#94D2BD"/>
<path d="M152.95 14.0131H147.089V21.9878H152.95V14.0131Z" fill="#E9D8A6"/>
<path d="M155.88 14.0131H152.951V21.9878H155.88V14.0131Z" fill="#E9D8A6"/>
<path d="M180.179 21.9878H183.108L170.045 14.0131H167.116L180.179 21.9878Z" fill="#E9D8A6"/>
<path d="M180.179 21.9878L167.116 14.0131H161.254L174.317 21.9878H180.179Z" fill="#E9D8A6"/>
<path d="M171.388 21.9878H174.317L161.254 14.0131H158.325L171.388 21.9878Z" fill="#E9D8A6"/>
<path d="M158.325 14.0131H155.88V21.9878H171.388L158.325 14.0131Z" fill="#E9D8A6"/>
<path d="M117.788 26.313H114.859V28.6707H117.788V26.313Z" fill="#9B2226"/>
<path d="M123.646 26.313H117.788V28.6707H123.646V26.313Z" fill="#AE2012"/>
<path d="M126.579 26.313H123.649V28.6707H126.579V26.313Z" fill="#EE9B00"/>
<path d="M179.405 28.6707H182.334L178.475 26.313H175.545L179.405 28.6707Z" fill="#005F73"/>
<path d="M173.543 28.6707H179.405L175.545 26.313H169.684L173.543 28.6707Z" fill="#94D2BD"/>
<path d="M132.437 26.313H126.579V28.6707H132.437V26.313Z" fill="#E9D8A6"/>
<path d="M135.369 26.313H132.44V28.6707H135.369V26.313Z" fill="#E9D8A6"/>
<path d="M170.614 28.6707H173.543L169.684 26.313H166.755L170.614 28.6707Z" fill="#E9D8A6"/>
<path d="M164.755 28.6707H170.614L166.755 26.313H160.893L164.755 28.6707Z" fill="#E9D8A6"/>
<path d="M161.823 28.6707H164.755L160.893 26.313H157.964L161.823 28.6707Z" fill="#E9D8A6"/>
<path d="M157.964 26.313H135.369V28.6707H161.823L157.964 26.313Z" fill="#E9D8A6"/>
<path d="M138.298 46.1972H135.369V51.3905H138.298V46.1972Z" fill="#9B2226"/>
<path d="M144.16 46.1972H138.299V51.3905H144.16V46.1972Z" fill="#AE2012"/>
<path d="M147.089 46.1972H144.16V51.3905H147.089V46.1972Z" fill="#EE9B00"/>
<path d="M237.135 51.3905H240.067L231.56 46.1972H228.628L237.135 51.3905Z" fill="#005F73"/>
<path d="M231.276 51.3905H237.135L228.629 46.1972H222.77L231.276 51.3905Z" fill="#94D2BD"/>
<path d="M152.95 46.1972H147.089V51.3905H152.95V46.1972Z" fill="#E9D8A6"/>
<path d="M155.88 46.1972H152.951V51.3905H155.88V46.1972Z" fill="#E9D8A6"/>
<path d="M228.344 51.3905H231.276L222.77 46.1972H219.84L228.344 51.3905Z" fill="#E9D8A6"/>
<path d="M222.485 51.3905H228.344L219.84 46.1972H213.979L222.485 51.3905Z" fill="#E9D8A6"/>
<path d="M219.556 51.3905H222.485L213.979 46.1972H211.05L219.556 51.3905Z" fill="#E9D8A6"/>
<path d="M155.88 46.1972V51.3905H219.556L211.05 46.1972H155.88Z" fill="#E9D8A6"/>
<path d="M141.228 64.2401H138.299V69.2252H141.228V64.2401Z" fill="#9B2226"/>
<path d="M147.089 64.2401H141.228V69.2252H147.089V64.2401Z" fill="#AE2012"/>
<path d="M150.018 64.2401H147.089V69.2252H150.018V64.2401Z" fill="#EE9B00"/>
<path d="M265.443 66.8803L261.603 69.2252H264.532L268.372 66.8803L264.045 64.2401H261.116L265.443 66.8803Z" fill="#005F73"/>
<path d="M261.116 64.2401H255.255L259.582 66.8803L255.742 69.2252H261.603L265.443 66.8803L261.116 64.2401Z" fill="#94D2BD"/>
<path d="M155.877 64.2401H150.019V69.2252H155.877V64.2401Z" fill="#E9D8A6"/>
<path d="M158.809 64.2401H155.88V69.2252H158.809V64.2401Z" fill="#E9D8A6"/>
<path d="M256.652 66.8803L252.812 69.2252H255.742L259.582 66.8803L255.255 64.2401H252.325L256.652 66.8803Z" fill="#E9D8A6"/>
<path d="M250.791 66.8803L246.951 69.2252H252.812L256.652 66.8803L252.325 64.2401H246.464L250.791 66.8803Z" fill="#E9D8A6"/>
<path d="M247.862 66.8803L244.022 69.2252H246.951L250.791 66.8803L246.464 64.2401H243.535L247.862 66.8803Z" fill="#E9D8A6"/>
<path d="M158.809 69.2252H244.022L247.862 66.8803L243.535 64.2401H158.809V69.2252Z" fill="#E9D8A6"/>
<path d="M123.649 81.4044H120.72V82.6039H123.649V81.4044Z" fill="#9B2226"/>
<path d="M129.508 81.4044H123.649V82.6039H129.508V81.4044Z" fill="#AE2012"/>
<path d="M132.437 81.4044H129.508V82.6039H132.437V81.4044Z" fill="#EE9B00"/>
<path d="M222.102 82.6039H225.034L226.998 81.4044H224.069L222.102 82.6039Z" fill="#005F73"/>
<path d="M216.244 82.6039H222.102L224.069 81.4044H218.21L216.244 82.6039Z" fill="#94D2BD"/>
<path d="M138.299 81.4044H132.44V82.6039H138.299V81.4044Z" fill="#E9D8A6"/>
<path d="M141.228 81.4044H138.299V82.6039H141.228V81.4044Z" fill="#E9D8A6"/>
<path d="M213.314 82.6039H216.244L218.21 81.4044H215.278L213.314 82.6039Z" fill="#E9D8A6"/>
<path d="M207.453 82.6039H213.314L215.278 81.4044H209.42L207.453 82.6039Z" fill="#E9D8A6"/>
<path d="M204.524 82.6039H207.453L209.42 81.4044H206.488L204.524 82.6039Z" fill="#E9D8A6"/>
<path d="M141.228 82.6039H204.524L206.488 81.4044H141.228V82.6039Z" fill="#E9D8A6"/>
<path d="M138.298 103.978H135.369V107.386H138.298V103.978Z" fill="#9B2226"/>
<path d="M144.16 103.978H138.299V107.386H144.16V103.978Z" fill="#AE2012"/>
<path d="M147.089 103.978H144.16V107.386H147.089V103.978Z" fill="#EE9B00"/>
<path d="M196.16 107.386H199.089L204.672 103.978H201.742L196.16 107.386Z" fill="#005F73"/>
<path d="M190.298 107.386H196.16L201.742 103.978H195.884L190.298 107.386Z" fill="#94D2BD"/>
<path d="M152.95 103.978H147.089V107.386H152.95V103.978Z" fill="#E9D8A6"/>
<path d="M155.88 103.978H152.951V107.386H155.88V103.978Z" fill="#E9D8A6"/>
<path d="M187.369 107.386H190.298L195.884 103.978H192.952L187.369 107.386Z" fill="#E9D8A6"/>
<path d="M181.508 107.386H187.369L192.952 103.978H187.093L181.508 107.386Z" fill="#E9D8A6"/>
<path d="M184.164 103.978L178.578 107.386H181.508L187.093 103.978H184.164Z" fill="#E9D8A6"/>
<path d="M155.88 107.386H178.579L184.164 103.978H155.88V107.386Z" fill="#E9D8A6"/>
<path d="M155.88 98.9489H152.951V100.832H155.88V98.9489Z" fill="#9B2226"/>
<path d="M161.741 98.9489H155.88V100.832H161.741V98.9489Z" fill="#AE2012"/>
<path d="M164.668 98.9489H161.738V100.832H164.668V98.9489Z" fill="#EE9B00"/>
<path d="M224.476 100.829H227.408L230.491 98.9489H227.559L224.476 100.829Z" fill="#005F73"/>
<path d="M218.618 100.829H224.477L227.559 98.9489H221.7L218.618 100.829Z" fill="#94D2BD"/>
<path d="M170.532 98.9489H164.671V100.832H170.532V98.9489Z" fill="#E9D8A6"/>
<path d="M173.458 98.9489H170.529V100.832H173.458V98.9489Z" fill="#E9D8A6"/>
<path d="M215.688 100.829H218.618L221.7 98.9489H218.771L215.688 100.829Z" fill="#E9D8A6"/>
<path d="M209.827 100.829H215.689L218.771 98.9489H212.91L209.827 100.829Z" fill="#E9D8A6"/>
<path d="M206.898 100.829H209.827L212.91 98.9489H209.98L206.898 100.829Z" fill="#E9D8A6"/>
<path d="M173.458 100.829H206.898L209.98 98.9489H173.458V100.829Z" fill="#E9D8A6"/>
<path d="M126.579 119.655H123.649V123.038H126.579V119.655Z" fill="#9B2226"/>
<path d="M132.437 119.655H126.579V123.038H132.437V119.655Z" fill="#AE2012"/>
<path d="M135.369 119.655H132.44V123.038H135.369V119.655Z" fill="#EE9B00"/>
<path d="M158.795 123.038H161.725L167.269 119.655H164.34L158.795 123.038Z" fill="#005F73"/>
<path d="M152.934 123.038H158.795L164.34 119.655H158.478L152.934 123.038Z" fill="#94D2BD"/>
<path d="M147.075 123.038H147.087V123.03L147.075 123.038Z" fill="#E9D8A6"/>
<path d="M141.228 119.655H135.369V123.038H141.214L141.228 123.03V119.655Z" fill="#E9D8A6"/>
<path d="M150.005 123.038H150.016V123.03L150.005 123.038Z" fill="#E9D8A6"/>
<path d="M144.16 121.242L141.228 123.03V123.038H144.146L144.16 123.03V121.242Z" fill="#E9D8A6"/>
<path d="M141.228 119.655V123.03L144.16 121.242V119.655H141.228Z" fill="#E9D8A6"/>
<path d="M155.549 119.655L150.005 123.038H152.934L158.478 119.655H155.549Z" fill="#E9D8A6"/>
<path d="M144.16 123.03V123.038H150.005L155.549 119.655H149.688L144.16 123.03Z" fill="#E9D8A6"/>
<path d="M144.16 121.242V123.03L149.688 119.655H146.758L144.16 121.242Z" fill="#E9D8A6"/>
<path d="M144.16 119.655V121.242L146.758 119.655H144.16Z" fill="#E9D8A6"/>
<path d="M217.855 36.0445H220.784L215.262 32.6722H212.333L217.855 36.0445Z" fill="#005F73"/>
<path d="M211.993 36.0445H217.855L212.333 32.6722H206.471L211.993 36.0445Z" fill="#94D2BD"/>
<path d="M209.064 36.0445H211.993L206.471 32.6722H203.542L209.064 36.0445Z" fill="#E9D8A6"/>
<path d="M203.205 36.0445H209.064L203.542 32.6722H197.683L203.205 36.0445Z" fill="#E9D8A6"/>
<path d="M200.273 36.0445H203.205L197.683 32.6722H194.751L200.273 36.0445Z" fill="#E9D8A6"/>
<path d="M161.61 36.0445H188.554L183.031 32.6722H161.61V36.0445Z" fill="#E9D8A6"/>
<path d="M126.579 7.37637H123.649V9.99099H126.579V7.37637Z" fill="#9B2226"/>
<path d="M132.437 7.37637H126.579V9.99099H132.437V7.37637Z" fill="#AE2012"/>
<path d="M135.369 7.37637H132.44V9.99099H135.369V7.37637Z" fill="#EE9B00"/>
<path d="M157.595 9.99099H160.527L156.244 7.37637H153.312L157.595 9.99099Z" fill="#005F73"/>
<path d="M157.595 9.99099L153.311 7.37637H147.453L151.736 9.99099H157.595Z" fill="#94D2BD"/>
<path d="M141.228 7.37637H138.662L141.228 8.94312V7.37637Z" fill="#E9D8A6"/>
<path d="M140.016 9.99099H141.228V8.94312L138.662 7.37637H135.733L140.016 9.99099Z" fill="#E9D8A6"/>
<path d="M135.733 7.37637H135.369V9.99099H140.016L135.733 7.37637Z" fill="#E9D8A6"/>
<path d="M142.945 9.99099H144.16V7.37637H141.228V8.94312L142.945 9.99099Z" fill="#E9D8A6"/>
<path d="M141.228 8.94312V9.99098H142.945L141.228 8.94312Z" fill="#E9D8A6"/>
<path d="M148.807 9.99099H151.736L147.453 7.37637H144.524L148.807 9.99099Z" fill="#E9D8A6"/>
<path d="M144.524 7.37637H144.16V9.99099H148.807L144.524 7.37637Z" fill="#E9D8A6"/>
<path d="M126.579 86.2304H123.649V90.3784H126.579V86.2304Z" fill="#9B2226"/>
<path d="M132.437 86.2304H126.579V90.3784H132.437V86.2304Z" fill="#AE2012"/>
<path d="M135.369 86.2304H132.44V90.3784H135.369V86.2304Z" fill="#EE9B00"/>
<path d="M141.228 86.2304H135.369V90.3784H141.228V86.2304Z" fill="#E9D8A6"/>
<path d="M144.157 86.2304H141.228V90.3784H144.157V86.2304Z" fill="#E9D8A6"/>
<path d="M175.863 86.2304H150.019V90.3784H175.863V86.2304Z" fill="#E9D8A6"/>
<path d="M111.929 56.368H109V58.2095H111.929V56.368Z" fill="#9B2226"/>
<path d="M117.791 56.368H111.929V58.2095H117.791V56.368Z" fill="#AE2012"/>
<path d="M120.717 56.368H117.788V58.2095H120.717V56.368Z" fill="#EE9B00"/>
<path d="M221.938 58.2095H224.868L221.848 56.368H218.919L221.938 58.2095Z" fill="#005F73"/>
<path d="M216.077 58.2095H221.938L218.919 56.368H213.06L216.077 58.2095Z" fill="#94D2BD"/>
<path d="M126.581 56.368H120.72V58.2095H126.581V56.368Z" fill="#E9D8A6"/>
<path d="M129.508 56.368H126.579V58.2095H129.508V56.368Z" fill="#E9D8A6"/>
<path d="M213.148 58.2095H216.077L213.06 56.368H210.128L213.148 58.2095Z" fill="#E9D8A6"/>
<path d="M204.269 56.368L207.286 58.2095H213.148L210.128 56.368H204.269Z" fill="#E9D8A6"/>
<path d="M204.357 58.2095H207.286L204.27 56.368H201.34L204.357 58.2095Z" fill="#E9D8A6"/>
<path d="M129.508 58.2095H204.357L201.34 56.368H129.508V58.2095Z" fill="#E9D8A6"/>
</svg>
