<svg width="59" height="53" viewBox="0 0 59 53" fill="none" xmlns="http://www.w3.org/2000/svg">
<path d="M8.82399 23.106H7.75298V25.454H8.82399V23.106Z" fill="#E31010"/>
<path d="M8.82399 27.395H7.75298V32.137H8.82399V27.395Z" fill="#E31010"/>
<path d="M8.82399 20.451H7.75298V22.389H8.82399V20.451Z" fill="#E31010"/>
<path d="M7.75298 48.347V52.522L8.825 51.826V48.347H7.75298Z" fill="#E31010"/>
<path d="M8.82399 35.631H7.75298V38.967H8.82399V35.631Z" fill="#E31010"/>
<path d="M8.82399 32.604H7.75298V34.016H8.82399V32.604Z" fill="#E31010"/>
<path d="M8.82399 39.7H7.75298V40.925H8.82399V39.7Z" fill="#E31010"/>
<path d="M8.82399 4.332H7.75298V5.89801H8.82399V4.332Z" fill="#E31010"/>
<path d="M8.825 1.13901L7.75298 0.441986V3.314H8.825V1.13901Z" fill="#E31010"/>
<path d="M8.82399 9.00299H7.75298V10.687H8.82399V9.00299Z" fill="#E31010"/>
<path d="M8.82399 11.605H7.75298V18.43H8.82399V11.605Z" fill="#E31010"/>
<path d="M8.82399 42.253H7.75298V47.03H8.82399V42.253Z" fill="#E31010"/>
<path d="M10.967 1.83499L8.825 0.441986V1.13901L10.967 2.53101V1.83499Z" fill="#E75CEE"/>
<path d="M8.825 51.826V52.522L10.967 51.129V50.433L8.825 51.826Z" fill="#E75CEE"/>
<path d="M10.967 23.106H8.825V25.454H10.967V23.106Z" fill="#E75CEE"/>
<path d="M10.967 27.395H8.825V32.137H10.967V27.395Z" fill="#E75CEE"/>
<path d="M10.967 3.314V2.53101L8.825 1.13901V3.314H10.967Z" fill="#E75CEE"/>
<path d="M10.967 42.253H8.825V47.03H10.967V42.253Z" fill="#E75CEE"/>
<path d="M10.967 32.604H8.825V34.016H10.967V32.604Z" fill="#E75CEE"/>
<path d="M10.967 39.7H8.825V40.925H10.967V39.7Z" fill="#E75CEE"/>
<path d="M10.967 35.631H8.825V38.967H10.967V35.631Z" fill="#E75CEE"/>
<path d="M10.967 9.00299H8.825V10.687H10.967V9.00299Z" fill="#E75CEE"/>
<path d="M10.967 20.451H8.825V22.389H10.967V20.451Z" fill="#E75CEE"/>
<path d="M10.967 11.605H8.825V18.43H10.967V11.605Z" fill="#E75CEE"/>
<path d="M10.967 4.332H8.825V5.89801H10.967V4.332Z" fill="#E75CEE"/>
<path d="M10.967 48.347H8.825V51.826L10.967 50.433V48.347Z" fill="#E75CEE"/>
<path d="M12.038 1.13901L10.967 0.441986V1.83499L12.038 2.53101V1.13901Z" fill="#FCFC53"/>
<path d="M10.967 51.129V52.522L12.038 51.826V50.433L10.967 51.129Z" fill="#FCFC53"/>
<path d="M12.038 3.228V2.53101L10.967 1.83499V2.53101L12.038 3.228Z" fill="#FCFC53"/>
<path d="M12.038 49.737L10.967 50.433V51.129L12.038 50.433V49.737Z" fill="#FCFC53"/>
<path d="M12.038 11.605H10.967V18.43H12.038V11.605Z" fill="#FCFC53"/>
<path d="M12.038 20.451H10.967V22.389H12.038V20.451Z" fill="#FCFC53"/>
<path d="M12.038 9.00299H10.967V10.687H12.038V9.00299Z" fill="#FCFC53"/>
<path d="M12.038 23.106H10.967V25.454H12.038V23.106Z" fill="#FCFC53"/>
<path d="M12.038 4.332H10.967V5.89801H12.038V4.332Z" fill="#FCFC53"/>
<path d="M12.038 35.631H10.967V38.967H12.038V35.631Z" fill="#FCFC53"/>
<path d="M12.038 42.253H10.967V47.03H12.038V42.253Z" fill="#FCFC53"/>
<path d="M12.038 27.395H10.967V32.137H12.038V27.395Z" fill="#FCFC53"/>
<path d="M10.967 48.347V50.433L12.038 49.737V48.347H10.967Z" fill="#FCFC53"/>
<path d="M12.038 3.228L10.967 2.53101V3.314H12.038V3.228Z" fill="#FCFC53"/>
<path d="M12.038 39.7H10.967V40.925H12.038V39.7Z" fill="#FCFC53"/>
<path d="M12.038 32.604H10.967V34.016H12.038V32.604Z" fill="#FCFC53"/>
<path d="M29.941 10.687H31.012L28.421 9.00299H27.35L29.941 10.687Z" fill="#195FF5"/>
<path d="M41.851 18.429H42.922L36.84 14.476H35.769L41.851 18.429Z" fill="#195FF5"/>
<path d="M22.574 5.89801H23.645L21.236 4.332H20.165L22.574 5.89801Z" fill="#195FF5"/>
<path d="M33.75 13.163H34.821L32.423 11.605H31.352L33.75 13.163Z" fill="#195FF5"/>
<path d="M47.942 22.389H49.013L46.032 20.451H44.961L47.942 22.389Z" fill="#195FF5"/>
<path d="M19.67 3.314L15.252 0.441986V1.13901L18.599 3.314H19.67Z" fill="#195FF5"/>
<path d="M52.657 25.454H53.728L50.117 23.106H49.046L52.657 25.454Z" fill="#195FF5"/>
<path d="M35.032 38.968H36.104L45.892 32.604H44.821L35.032 38.968Z" fill="#195FF5"/>
<path d="M22.63 47.03H23.701L31.051 42.253H29.979L22.63 47.03Z" fill="#195FF5"/>
<path d="M52.835 27.395L45.54 32.137H46.611L53.906 27.395H52.835Z" fill="#195FF5"/>
<path d="M15.252 51.826V52.522L21.675 48.347H20.603L15.252 51.826Z" fill="#195FF5"/>
<path d="M32.021 40.926H33.092L34.977 39.7H33.905L32.021 40.926Z" fill="#195FF5"/>
<path d="M15.252 1.13901L14.181 0.441986V1.83499L15.252 2.53101V1.13901Z" fill="#19F5EE"/>
<path d="M14.181 51.129V52.522L15.252 51.826V50.433L14.181 51.129Z" fill="#19F5EE"/>
<path d="M32.89 38.968H35.032L44.821 32.604H42.679L32.89 38.968Z" fill="#19F5EE"/>
<path d="M29.878 40.926H32.021L33.905 39.7H31.763L29.878 40.926Z" fill="#19F5EE"/>
<path d="M20.488 47.03H22.63L29.979 42.253H27.837L20.488 47.03Z" fill="#19F5EE"/>
<path d="M27.798 10.687H29.941L27.35 9.00299H25.207L27.798 10.687Z" fill="#19F5EE"/>
<path d="M31.607 13.163H33.75L31.352 11.605H29.21L31.607 13.163Z" fill="#19F5EE"/>
<path d="M20.431 5.89801H22.574L20.165 4.332H18.022L20.431 5.89801Z" fill="#19F5EE"/>
<path d="M39.708 18.429H41.851L35.769 14.476H33.626L39.708 18.429Z" fill="#19F5EE"/>
<path d="M50.514 25.454H52.657L49.046 23.106H46.903L50.514 25.454Z" fill="#19F5EE"/>
<path d="M18.461 48.347L15.252 50.433V51.826L20.603 48.347H18.461Z" fill="#19F5EE"/>
<path d="M45.799 22.389H47.942L44.961 20.451H42.818L45.799 22.389Z" fill="#19F5EE"/>
<path d="M16.456 3.314H18.599L15.252 1.13901V2.53101L16.456 3.314Z" fill="#19F5EE"/>
<path d="M43.397 32.137H45.54L52.835 27.395H50.692L43.397 32.137Z" fill="#19F5EE"/>
<path d="M14.181 1.83499L12.038 0.441986V1.13901L14.181 2.53101V1.83499Z" fill="#FCFCFC"/>
<path d="M12.038 51.826V52.522L14.181 51.129V50.433L12.038 51.826Z" fill="#FCFCFC"/>
<path d="M14.181 49.04L12.038 50.433V51.826L14.181 50.433V49.04Z" fill="#FCFCFC"/>
<path d="M13.243 3.314H14.181V2.53101L12.038 1.13901V2.53101L13.243 3.314Z" fill="#FCFCFC"/>
<path d="M14.176 48.347L12.038 49.737V50.433L14.181 49.04V48.347H14.176Z" fill="#FCFCFC"/>
<path d="M13.243 3.314L12.038 2.53101V3.228L12.171 3.314H13.243Z" fill="#FCFCFC"/>
<path d="M14.181 4.332H13.737L14.181 4.621V4.332Z" fill="#FCFCFC"/>
<path d="M14.181 11.605H12.038V18.43H14.181V11.605Z" fill="#FCFCFC"/>
<path d="M14.181 20.451H12.038V22.389H14.181V20.451Z" fill="#FCFCFC"/>
<path d="M14.181 23.106H12.038V25.454H14.181V23.106Z" fill="#FCFCFC"/>
<path d="M10.029 3.314L9.89598 3.228V3.314H10.029Z" fill="#FCFCFC"/>
<path d="M14.181 32.604H12.038V34.016H14.181V32.604Z" fill="#FCFCFC"/>
<path d="M14.181 9.00299H12.038V10.687H14.181V9.00299Z" fill="#FCFCFC"/>
<path d="M14.181 5.89801V4.621L13.737 4.332H12.038V5.89801H14.181Z" fill="#FCFCFC"/>
<path d="M14.181 35.631H12.038V38.967H14.181V35.631Z" fill="#FCFCFC"/>
<path d="M12.038 48.347V49.737L14.176 48.347H12.038Z" fill="#FCFCFC"/>
<path d="M14.181 42.253H12.038V47.03H14.181V42.253Z" fill="#FCFCFC"/>
<path d="M14.181 27.395H12.038V32.137H14.181V27.395Z" fill="#FCFCFC"/>
<path d="M14.181 39.7H12.038V40.925H14.181V39.7Z" fill="#FCFCFC"/>
<path d="M15.252 3.228V2.53101L14.181 1.83499V2.53101L15.252 3.228Z" fill="#FCFCFC"/>
<path d="M15.252 49.737L14.181 50.433V51.129L15.252 50.433V49.737Z" fill="#FCFCFC"/>
<path d="M15.247 48.347L14.181 49.04V50.433L15.252 49.737V48.347H15.247Z" fill="#FCFCFC"/>
<path d="M15.252 4.332H14.809L15.252 4.621V4.332Z" fill="#FCFCFC"/>
<path d="M15.252 3.228L14.181 2.53101V3.314H15.252V3.228Z" fill="#FCFCFC"/>
<path d="M15.252 5.31699V4.621L14.809 4.332H14.181V4.621L15.252 5.31699Z" fill="#FCFCFC"/>
<path d="M14.181 48.347V49.04L15.247 48.347H14.181Z" fill="#FCFCFC"/>
<path d="M15.252 20.451H14.181V22.389H15.252V20.451Z" fill="#FCFCFC"/>
<path d="M15.252 27.395H14.181V32.137H15.252V27.395Z" fill="#FCFCFC"/>
<path d="M15.252 9.00299H14.181V10.687H15.252V9.00299Z" fill="#FCFCFC"/>
<path d="M15.252 11.605H14.181V18.43H15.252V11.605Z" fill="#FCFCFC"/>
<path d="M15.252 23.106H14.181V25.454H15.252V23.106Z" fill="#FCFCFC"/>
<path d="M15.252 5.31699L14.181 4.621V5.89801H15.252V5.31699Z" fill="#FCFCFC"/>
<path d="M15.252 32.604H14.181V34.016H15.252V32.604Z" fill="#FCFCFC"/>
<path d="M15.252 42.253H14.181V47.03H15.252V42.253Z" fill="#FCFCFC"/>
<path d="M15.252 39.7H14.181V40.925H15.252V39.7Z" fill="#FCFCFC"/>
<path d="M15.252 35.631H14.181V38.967H15.252V35.631Z" fill="#FCFCFC"/>
<path d="M15.252 49.737V50.433L18.461 48.347H17.39L15.252 49.737Z" fill="#FCFCFC"/>
<path d="M19.416 47.03H20.488L27.837 42.253H26.765L19.416 47.03Z" fill="#FCFCFC"/>
<path d="M28.807 40.926H29.878L31.763 39.7H30.692L28.807 40.926Z" fill="#FCFCFC"/>
<path d="M45.832 23.106L49.443 25.454H50.514L46.903 23.106H45.832Z" fill="#FCFCFC"/>
<path d="M42.326 32.137H43.397L50.692 27.395H49.621L42.326 32.137Z" fill="#FCFCFC"/>
<path d="M31.818 38.968H32.89L42.679 32.604H41.607L31.818 38.968Z" fill="#FCFCFC"/>
<path d="M20.431 5.89801L18.022 4.332H16.951L19.36 5.89801H20.431Z" fill="#FCFCFC"/>
<path d="M26.727 10.687H27.798L25.207 9.00299H24.136L26.727 10.687Z" fill="#FCFCFC"/>
<path d="M30.536 13.163H31.607L29.21 11.605H28.138L30.536 13.163Z" fill="#FCFCFC"/>
<path d="M44.728 22.389H45.799L42.818 20.451H41.747L44.728 22.389Z" fill="#FCFCFC"/>
<path d="M38.637 18.429H39.708L33.626 14.476H32.555L38.637 18.429Z" fill="#FCFCFC"/>
<path d="M16.456 3.314L15.252 2.53101V3.228L15.385 3.314H16.456Z" fill="#FCFCFC"/>
<path d="M42.586 22.389H44.728L41.747 20.451H39.604L42.586 22.389Z" fill="#FCFCFC"/>
<path d="M24.585 10.687H26.727L24.136 9.00299H21.993L24.585 10.687Z" fill="#FCFCFC"/>
<path d="M40.184 32.137H42.326L49.621 27.395H47.478L40.184 32.137Z" fill="#FCFCFC"/>
<path d="M24.623 42.253L17.274 47.03H19.416L26.765 42.253H24.623Z" fill="#FCFCFC"/>
<path d="M13.243 3.314L13.11 3.228V3.314H13.243Z" fill="#FCFCFC"/>
<path d="M15.252 48.347V49.737L17.39 48.347H15.252Z" fill="#FCFCFC"/>
<path d="M26.664 40.926H28.807L30.692 39.7H28.549L26.664 40.926Z" fill="#FCFCFC"/>
<path d="M29.676 38.968H31.818L41.607 32.604H39.465L29.676 38.968Z" fill="#FCFCFC"/>
<path d="M47.301 25.454H49.443L45.832 23.106H43.689L47.301 25.454Z" fill="#FCFCFC"/>
<path d="M36.495 18.429H38.637L32.555 14.476H30.413L36.495 18.429Z" fill="#FCFCFC"/>
<path d="M17.217 5.89801H19.36L16.951 4.332H15.252V4.621L17.217 5.89801Z" fill="#FCFCFC"/>
<path d="M28.394 13.163H30.536L28.138 11.605H25.996L28.394 13.163Z" fill="#FCFCFC"/>
<path d="M38.533 20.451L41.514 22.389H42.586L39.604 20.451H38.533Z" fill="#FCFCFC"/>
<path d="M28.605 38.968H29.676L39.465 32.604H38.394L28.605 38.968Z" fill="#FCFCFC"/>
<path d="M17.217 5.89801L15.252 4.621V5.31699L16.146 5.89801H17.217Z" fill="#FCFCFC"/>
<path d="M39.112 32.137H40.184L47.478 27.395H46.407L39.112 32.137Z" fill="#FCFCFC"/>
<path d="M24.585 10.687L21.993 9.00299H20.922L23.513 10.687H24.585Z" fill="#FCFCFC"/>
<path d="M25.593 40.926H26.664L28.549 39.7H27.478L25.593 40.926Z" fill="#FCFCFC"/>
<path d="M35.423 18.429H36.495L30.413 14.476H29.341L35.423 18.429Z" fill="#FCFCFC"/>
<path d="M27.322 13.163H28.394L25.996 11.605H24.925L27.322 13.163Z" fill="#FCFCFC"/>
<path d="M46.229 25.454H47.301L43.689 23.106H42.618L46.229 25.454Z" fill="#FCFCFC"/>
<path d="M16.202 47.03H17.274L24.623 42.253H23.552L16.202 47.03Z" fill="#FCFCFC"/>
<path d="M15.252 22.389H41.514L38.533 20.451H15.252V22.389Z" fill="#FCFCFC"/>
<path d="M15.252 25.454H46.229L42.618 23.106H15.252V25.454Z" fill="#FCFCFC"/>
<path d="M15.252 39.7V40.926H25.593L27.478 39.7H15.252Z" fill="#FCFCFC"/>
<path d="M15.252 47.03H16.202L23.552 42.253H15.252V47.03Z" fill="#FCFCFC"/>
<path d="M29.341 14.476H19.49V13.163H27.322L24.925 11.605H15.252V18.429H35.423L29.341 14.476Z" fill="#FCFCFC"/>
<path d="M16.146 5.89801L15.252 5.31699V5.89801H16.146Z" fill="#FCFCFC"/>
<path d="M15.252 32.137H39.112L46.407 27.395H15.252V32.137Z" fill="#FCFCFC"/>
<path d="M23.513 10.687L20.922 9.00299H15.252V10.687H23.513Z" fill="#FCFCFC"/>
<path d="M15.252 34.016H24.701V35.631H15.252V38.968H28.605L38.394 32.604H15.252V34.016Z" fill="#FCFCFC"/>
<path d="M10.967 5.89801H9.89598V9.00299H10.967V5.89801Z" fill="#E31010"/>
<path d="M13.11 5.89801H10.967V9.00299H13.11V5.89801Z" fill="#E75CEE"/>
<path d="M14.181 5.89801H13.11V9.00299H14.181V5.89801Z" fill="#FCFC53"/>
<path d="M29.492 9.00299H30.564L25.788 5.89801H24.716L29.492 9.00299Z" fill="#195FF5"/>
<path d="M27.35 9.00299H29.492L24.716 5.89801H22.574L27.35 9.00299Z" fill="#19F5EE"/>
<path d="M16.324 5.89801H14.181V9.00299H16.324V5.89801Z" fill="#FCFCFC"/>
<path d="M17.395 5.89801H16.324V9.00299H17.395V5.89801Z" fill="#FCFCFC"/>
<path d="M26.279 9.00299H27.35L22.574 5.89801H21.503L26.279 9.00299Z" fill="#FCFCFC"/>
<path d="M26.279 9.00299L21.503 5.89801H19.36L24.136 9.00299H26.279Z" fill="#FCFCFC"/>
<path d="M23.065 9.00299H24.136L19.36 5.89801H18.289L23.065 9.00299Z" fill="#FCFCFC"/>
<path d="M18.289 5.89801H17.395V9.00299H23.065L18.289 5.89801Z" fill="#FCFCFC"/>
<path d="M3.46797 10.687H2.39699V11.605H3.46797V10.687Z" fill="#E31010"/>
<path d="M5.60997 10.687H3.46797V11.605H5.60997V10.687Z" fill="#E75CEE"/>
<path d="M6.68199 10.687H5.61098V11.605H6.68199V10.687Z" fill="#FCFC53"/>
<path d="M25.996 11.605H27.067L25.656 10.687H24.585L25.996 11.605Z" fill="#195FF5"/>
<path d="M23.853 11.605H25.996L24.585 10.687H22.442L23.853 11.605Z" fill="#19F5EE"/>
<path d="M8.82399 10.687H6.68199V11.605H8.82399V10.687Z" fill="#FCFCFC"/>
<path d="M9.89598 10.687H8.825V11.605H9.89598V10.687Z" fill="#FCFCFC"/>
<path d="M22.782 11.605H23.853L22.442 10.687H21.371L22.782 11.605Z" fill="#FCFCFC"/>
<path d="M20.64 11.605H22.782L21.371 10.687H19.228L20.64 11.605Z" fill="#FCFCFC"/>
<path d="M19.568 11.605H20.64L19.228 10.687H18.157L19.568 11.605Z" fill="#FCFCFC"/>
<path d="M18.157 10.687H9.89598V11.605H19.568L18.157 10.687Z" fill="#FCFCFC"/>
<path d="M10.967 18.429H9.89598V20.451H10.967V18.429Z" fill="#E31010"/>
<path d="M13.11 18.429H10.967V20.451H13.11V18.429Z" fill="#E75CEE"/>
<path d="M14.181 18.429H13.11V20.451H14.181V18.429Z" fill="#FCFC53"/>
<path d="M47.103 20.451H48.175L45.065 18.429H43.993L47.103 20.451Z" fill="#195FF5"/>
<path d="M44.961 20.451H47.103L43.993 18.429H41.851L44.961 20.451Z" fill="#19F5EE"/>
<path d="M16.324 18.429H14.181V20.451H16.324V18.429Z" fill="#FCFCFC"/>
<path d="M17.395 18.429H16.324V20.451H17.395V18.429Z" fill="#FCFCFC"/>
<path d="M43.889 20.451H44.961L41.851 18.429H40.78L43.889 20.451Z" fill="#FCFCFC"/>
<path d="M41.747 20.451H43.889L40.78 18.429H38.637L41.747 20.451Z" fill="#FCFCFC"/>
<path d="M40.676 20.451H41.747L38.637 18.429H37.566L40.676 20.451Z" fill="#FCFCFC"/>
<path d="M17.395 18.429V20.451H40.676L37.566 18.429H17.395Z" fill="#FCFCFC"/>
<path d="M12.038 25.454H10.967V27.395H12.038V25.454Z" fill="#E31010"/>
<path d="M14.181 25.454H12.038V27.395H14.181V25.454Z" fill="#E75CEE"/>
<path d="M15.252 25.454H14.181V27.395H15.252V25.454Z" fill="#FCFC53"/>
<path d="M57.453 26.482L56.049 27.395H57.12L58.524 26.482L56.942 25.454H55.871L57.453 26.482Z" fill="#195FF5"/>
<path d="M55.871 25.454H53.728L55.31 26.482L53.906 27.395H56.049L57.453 26.482L55.871 25.454Z" fill="#19F5EE"/>
<path d="M17.394 25.454H15.252V27.395H17.394V25.454Z" fill="#FCFCFC"/>
<path d="M18.466 25.454H17.395V27.395H18.466V25.454Z" fill="#FCFCFC"/>
<path d="M54.239 26.482L52.835 27.395H53.906L55.31 26.482L53.728 25.454H52.657L54.239 26.482Z" fill="#FCFCFC"/>
<path d="M52.096 26.482L50.692 27.395H52.835L54.239 26.482L52.657 25.454H50.514L52.096 26.482Z" fill="#FCFCFC"/>
<path d="M51.025 26.482L49.621 27.395H50.692L52.096 26.482L50.514 25.454H49.443L51.025 26.482Z" fill="#FCFCFC"/>
<path d="M18.466 27.395H49.621L51.025 26.482L49.443 25.454H18.466V27.395Z" fill="#FCFCFC"/>
<path d="M5.61098 32.137H4.53999V32.604H5.61098V32.137Z" fill="#E31010"/>
<path d="M7.75298 32.137H5.61098V32.604H7.75298V32.137Z" fill="#E75CEE"/>
<path d="M8.82399 32.137H7.75298V32.604H8.82399V32.137Z" fill="#FCFC53"/>
<path d="M41.607 32.604H42.679L43.397 32.137H42.326L41.607 32.604Z" fill="#195FF5"/>
<path d="M39.465 32.604H41.607L42.326 32.137H40.184L39.465 32.604Z" fill="#19F5EE"/>
<path d="M10.967 32.137H8.825V32.604H10.967V32.137Z" fill="#FCFCFC"/>
<path d="M12.038 32.137H10.967V32.604H12.038V32.137Z" fill="#FCFCFC"/>
<path d="M38.394 32.604H39.465L40.184 32.137H39.112L38.394 32.604Z" fill="#FCFCFC"/>
<path d="M36.251 32.604H38.394L39.112 32.137H36.97L36.251 32.604Z" fill="#FCFCFC"/>
<path d="M35.18 32.604H36.251L36.97 32.137H35.898L35.18 32.604Z" fill="#FCFCFC"/>
<path d="M12.038 32.604H35.18L35.898 32.137H12.038V32.604Z" fill="#FCFCFC"/>
<path d="M10.967 40.926H9.89598V42.253H10.967V40.926Z" fill="#E31010"/>
<path d="M13.11 40.926H10.967V42.253H13.11V40.926Z" fill="#E75CEE"/>
<path d="M14.181 40.926H13.11V42.253H14.181V40.926Z" fill="#FCFC53"/>
<path d="M32.122 42.253H33.193L35.234 40.926H34.163L32.122 42.253Z" fill="#195FF5"/>
<path d="M29.979 42.253H32.122L34.163 40.926H32.021L29.979 42.253Z" fill="#19F5EE"/>
<path d="M16.324 40.926H14.181V42.253H16.324V40.926Z" fill="#FCFCFC"/>
<path d="M17.395 40.926H16.324V42.253H17.395V40.926Z" fill="#FCFCFC"/>
<path d="M28.908 42.253H29.979L32.021 40.926H30.949L28.908 42.253Z" fill="#FCFCFC"/>
<path d="M26.765 42.253H28.908L30.949 40.926H28.807L26.765 42.253Z" fill="#FCFCFC"/>
<path d="M27.736 40.926L25.694 42.253H26.765L28.807 40.926H27.736Z" fill="#FCFCFC"/>
<path d="M17.395 42.253H25.694L27.736 40.926H17.395V42.253Z" fill="#FCFCFC"/>
<path d="M17.395 38.968H16.324V39.701H17.395V38.968Z" fill="#E31010"/>
<path d="M19.538 38.968H17.395V39.701H19.538V38.968Z" fill="#E75CEE"/>
<path d="M20.608 38.968H19.537V39.701H20.608V38.968Z" fill="#FCFC53"/>
<path d="M42.475 39.7H43.547L44.674 38.968H43.602L42.475 39.7Z" fill="#195FF5"/>
<path d="M40.333 39.7H42.475L43.602 38.968H41.46L40.333 39.7Z" fill="#19F5EE"/>
<path d="M22.752 38.968H20.609V39.701H22.752V38.968Z" fill="#FCFCFC"/>
<path d="M23.822 38.968H22.751V39.701H23.822V38.968Z" fill="#FCFCFC"/>
<path d="M39.262 39.7H40.333L41.46 38.968H40.389L39.262 39.7Z" fill="#FCFCFC"/>
<path d="M37.119 39.7H39.262L40.389 38.968H38.246L37.119 39.7Z" fill="#FCFCFC"/>
<path d="M36.048 39.7H37.119L38.246 38.968H37.175L36.048 39.7Z" fill="#FCFCFC"/>
<path d="M23.822 39.7H36.048L37.175 38.968H23.822V39.7Z" fill="#FCFCFC"/>
<path d="M6.68199 47.03H5.61098V48.347H6.68199V47.03Z" fill="#E31010"/>
<path d="M8.82399 47.03H6.68199V48.347H8.82399V47.03Z" fill="#E75CEE"/>
<path d="M9.89598 47.03H8.825V48.347H9.89598V47.03Z" fill="#FCFC53"/>
<path d="M18.461 48.347H19.532L21.559 47.03H20.488L18.461 48.347Z" fill="#195FF5"/>
<path d="M16.318 48.347H18.461L20.488 47.03H18.345L16.318 48.347Z" fill="#19F5EE"/>
<path d="M14.176 48.347H14.181V48.344L14.176 48.347Z" fill="#FCFCFC"/>
<path d="M12.038 47.03H9.89598V48.347H12.033L12.038 48.344V47.03Z" fill="#FCFCFC"/>
<path d="M15.247 48.347H15.252V48.344L15.247 48.347Z" fill="#FCFCFC"/>
<path d="M13.11 47.648L12.038 48.344V48.347H13.105L13.11 48.344V47.648Z" fill="#FCFCFC"/>
<path d="M12.038 47.03V48.344L13.11 47.648V47.03H12.038Z" fill="#FCFCFC"/>
<path d="M17.274 47.03L15.247 48.347H16.318L18.345 47.03H17.274Z" fill="#FCFCFC"/>
<path d="M13.11 48.344V48.347H15.247L17.274 47.03H15.131L13.11 48.344Z" fill="#FCFCFC"/>
<path d="M13.11 47.648V48.344L15.131 47.03H14.06L13.11 47.648Z" fill="#FCFCFC"/>
<path d="M13.11 47.03V47.648L14.06 47.03H13.11Z" fill="#FCFCFC"/>
<path d="M40.054 14.476H41.125L39.106 13.163H38.035L40.054 14.476Z" fill="#195FF5"/>
<path d="M37.911 14.476H40.054L38.035 13.163H35.892L37.911 14.476Z" fill="#19F5EE"/>
<path d="M36.84 14.476H37.911L35.892 13.163H34.821L36.84 14.476Z" fill="#FCFCFC"/>
<path d="M34.698 14.476H36.84L34.821 13.163H32.679L34.698 14.476Z" fill="#FCFCFC"/>
<path d="M33.626 14.476H34.698L32.679 13.163H31.607L33.626 14.476Z" fill="#FCFCFC"/>
<path d="M19.49 14.476H29.341L27.322 13.163H19.49V14.476Z" fill="#FCFCFC"/>
<path d="M6.68199 3.314H5.61098V4.332H6.68199V3.314Z" fill="#E31010"/>
<path d="M8.82399 3.314H6.68199V4.332H8.82399V3.314Z" fill="#E75CEE"/>
<path d="M9.89598 3.314H8.825V4.332H9.89598V3.314Z" fill="#FCFC53"/>
<path d="M18.022 4.332H19.094L17.528 3.314H16.456L18.022 4.332Z" fill="#195FF5"/>
<path d="M18.022 4.332L16.456 3.314H14.314L15.88 4.332H18.022Z" fill="#19F5EE"/>
<path d="M12.038 3.314H11.1L12.038 3.92401V3.314Z" fill="#FCFCFC"/>
<path d="M11.595 4.332H12.038V3.92401L11.1 3.314H10.029L11.595 4.332Z" fill="#FCFCFC"/>
<path d="M10.029 3.314H9.89598V4.332H11.595L10.029 3.314Z" fill="#FCFCFC"/>
<path d="M12.666 4.332H13.11V3.314H12.038V3.92401L12.666 4.332Z" fill="#FCFCFC"/>
<path d="M12.038 3.92401V4.332H12.666L12.038 3.92401Z" fill="#FCFCFC"/>
<path d="M14.809 4.332H15.88L14.314 3.314H13.243L14.809 4.332Z" fill="#FCFCFC"/>
<path d="M13.243 3.314H13.11V4.332H14.809L13.243 3.314Z" fill="#FCFCFC"/>
<path d="M6.68199 34.016H5.61098V35.631H6.68199V34.016Z" fill="#E31010"/>
<path d="M8.82399 34.016H6.68199V35.631H8.82399V34.016Z" fill="#E75CEE"/>
<path d="M9.89598 34.016H8.825V35.631H9.89598V34.016Z" fill="#FCFC53"/>
<path d="M12.038 34.016H9.89598V35.631H12.038V34.016Z" fill="#FCFCFC"/>
<path d="M13.109 34.016H12.038V35.631H13.109V34.016Z" fill="#FCFCFC"/>
<path d="M24.701 34.016H15.252V35.631H24.701V34.016Z" fill="#FCFCFC"/>
<path d="M1.32597 22.389H0.25499V23.106H1.32597V22.389Z" fill="#E31010"/>
<path d="M3.46898 22.389H1.32597V23.106H3.46898V22.389Z" fill="#E75CEE"/>
<path d="M4.53899 22.389H3.46797V23.106H4.53899V22.389Z" fill="#FCFC53"/>
<path d="M41.547 23.106H42.618L41.514 22.389H40.443L41.547 23.106Z" fill="#195FF5"/>
<path d="M39.404 23.106H41.547L40.443 22.389H38.301L39.404 23.106Z" fill="#19F5EE"/>
<path d="M6.683 22.389H4.53999V23.106H6.683V22.389Z" fill="#FCFCFC"/>
<path d="M7.75298 22.389H6.68199V23.106H7.75298V22.389Z" fill="#FCFCFC"/>
<path d="M38.333 23.106H39.404L38.301 22.389H37.229L38.333 23.106Z" fill="#FCFCFC"/>
<path d="M35.087 22.389L36.19 23.106H38.333L37.229 22.389H35.087Z" fill="#FCFCFC"/>
<path d="M35.119 23.106H36.19L35.087 22.389H34.016L35.119 23.106Z" fill="#FCFCFC"/>
<path d="M7.75298 23.106H35.119L34.016 22.389H7.75298V23.106Z" fill="#FCFCFC"/>
</svg>
