<svg width="99" height="53" viewBox="0 0 99 53" fill="none" xmlns="http://www.w3.org/2000/svg">
<path d="M89.7 29.416H90.771V27.068H89.7V29.416Z" fill="#E31010"/>
<path d="M89.7 25.127H90.771V20.385H89.7V25.127Z" fill="#E31010"/>
<path d="M89.7 32.071H90.771V30.133H89.7V32.071Z" fill="#E31010"/>
<path d="M90.771 4.17502V0L89.699 0.696014V4.17502H90.771Z" fill="#E31010"/>
<path d="M89.7 16.891H90.771V13.555H89.7V16.891Z" fill="#E31010"/>
<path d="M89.7 19.918H90.771V18.506H89.7V19.918Z" fill="#E31010"/>
<path d="M89.7 12.822H90.771V11.597H89.7V12.822Z" fill="#E31010"/>
<path d="M89.7 48.19H90.771V46.624H89.7V48.19Z" fill="#E31010"/>
<path d="M89.699 51.383L90.771 52.08V49.208H89.699V51.383Z" fill="#E31010"/>
<path d="M89.7 43.519H90.771V41.835H89.7V43.519Z" fill="#E31010"/>
<path d="M89.7 40.917H90.771V34.092H89.7V40.917Z" fill="#E31010"/>
<path d="M89.7 10.269H90.771V5.492H89.7V10.269Z" fill="#E31010"/>
<path d="M87.557 50.687L89.699 52.08V51.383L87.557 49.991V50.687Z" fill="#E75CEE"/>
<path d="M89.699 0.696014V0L87.557 1.39301V2.08899L89.699 0.696014Z" fill="#E75CEE"/>
<path d="M87.557 29.416H89.699V27.068H87.557V29.416Z" fill="#E75CEE"/>
<path d="M87.557 25.127H89.699V20.385H87.557V25.127Z" fill="#E75CEE"/>
<path d="M87.557 49.208V49.991L89.699 51.383V49.208H87.557Z" fill="#E75CEE"/>
<path d="M87.557 10.269H89.699V5.492H87.557V10.269Z" fill="#E75CEE"/>
<path d="M87.557 19.918H89.699V18.506H87.557V19.918Z" fill="#E75CEE"/>
<path d="M87.557 12.822H89.699V11.597H87.557V12.822Z" fill="#E75CEE"/>
<path d="M87.557 16.891H89.699V13.555H87.557V16.891Z" fill="#E75CEE"/>
<path d="M87.557 43.519H89.699V41.835H87.557V43.519Z" fill="#E75CEE"/>
<path d="M87.557 32.071H89.699V30.133H87.557V32.071Z" fill="#E75CEE"/>
<path d="M87.557 40.917H89.699V34.092H87.557V40.917Z" fill="#E75CEE"/>
<path d="M87.557 48.19H89.699V46.624H87.557V48.19Z" fill="#E75CEE"/>
<path d="M87.557 4.17502H89.699V0.696014L87.557 2.08899V4.17502Z" fill="#E75CEE"/>
<path d="M86.486 51.383L87.557 52.08V50.687L86.486 49.991V51.383Z" fill="#FCFC53"/>
<path d="M87.557 1.39301V0L86.486 0.696014V2.08899L87.557 1.39301Z" fill="#FCFC53"/>
<path d="M86.486 49.294V49.991L87.557 50.687V49.991L86.486 49.294Z" fill="#FCFC53"/>
<path d="M86.486 2.785L87.557 2.08899V1.39301L86.486 2.08899V2.785Z" fill="#FCFC53"/>
<path d="M86.486 40.917H87.557V34.092H86.486V40.917Z" fill="#FCFC53"/>
<path d="M86.486 32.071H87.557V30.133H86.486V32.071Z" fill="#FCFC53"/>
<path d="M86.486 43.519H87.557V41.835H86.486V43.519Z" fill="#FCFC53"/>
<path d="M86.486 29.416H87.557V27.068H86.486V29.416Z" fill="#FCFC53"/>
<path d="M86.486 48.19H87.557V46.624H86.486V48.19Z" fill="#FCFC53"/>
<path d="M86.486 16.891H87.557V13.555H86.486V16.891Z" fill="#FCFC53"/>
<path d="M86.486 10.269H87.557V5.492H86.486V10.269Z" fill="#FCFC53"/>
<path d="M86.486 25.127H87.557V20.385H86.486V25.127Z" fill="#FCFC53"/>
<path d="M87.557 4.17502V2.08899L86.486 2.785V4.17502H87.557Z" fill="#FCFC53"/>
<path d="M86.486 49.294L87.557 49.991V49.208H86.486V49.294Z" fill="#FCFC53"/>
<path d="M86.486 12.822H87.557V11.597H86.486V12.822Z" fill="#FCFC53"/>
<path d="M86.486 19.918H87.557V18.506H86.486V19.918Z" fill="#FCFC53"/>
<path d="M68.5829 41.835H67.512L70.103 43.519H71.174L68.5829 41.835Z" fill="#195FF5"/>
<path d="M56.673 34.093H55.602L61.684 38.046H62.755L56.673 34.093Z" fill="#195FF5"/>
<path d="M75.95 46.624H74.879L77.288 48.19H78.359L75.95 46.624Z" fill="#195FF5"/>
<path d="M64.774 39.359H63.703L66.101 40.917H67.172L64.774 39.359Z" fill="#195FF5"/>
<path d="M50.582 30.133H49.511L52.492 32.071H53.563L50.582 30.133Z" fill="#195FF5"/>
<path d="M78.854 49.208L83.272 52.08V51.383L79.925 49.208H78.854Z" fill="#195FF5"/>
<path d="M45.867 27.068H44.796L48.407 29.416H49.478L45.867 27.068Z" fill="#195FF5"/>
<path d="M63.4919 13.554H62.42L52.632 19.918H53.7029L63.4919 13.554Z" fill="#195FF5"/>
<path d="M75.894 5.492H74.823L67.473 10.269H68.545L75.894 5.492Z" fill="#195FF5"/>
<path d="M45.689 25.127L52.984 20.385H51.913L44.618 25.127H45.689Z" fill="#195FF5"/>
<path d="M83.272 0.696014V0L76.849 4.17502H77.921L83.272 0.696014Z" fill="#195FF5"/>
<path d="M66.503 11.596H65.432L63.547 12.822H64.619L66.503 11.596Z" fill="#195FF5"/>
<path d="M83.272 51.383L84.343 52.08V50.687L83.272 49.991V51.383Z" fill="#19F5EE"/>
<path d="M84.343 1.39301V0L83.272 0.696014V2.08899L84.343 1.39301Z" fill="#19F5EE"/>
<path d="M65.634 13.554H63.492L53.703 19.918H55.845L65.634 13.554Z" fill="#19F5EE"/>
<path d="M68.646 11.596H66.503L64.619 12.822H66.761L68.646 11.596Z" fill="#19F5EE"/>
<path d="M78.036 5.492H75.894L68.545 10.269H70.687L78.036 5.492Z" fill="#19F5EE"/>
<path d="M70.726 41.835H68.583L71.174 43.519H73.317L70.726 41.835Z" fill="#19F5EE"/>
<path d="M66.917 39.359H64.774L67.172 40.917H69.314L66.917 39.359Z" fill="#19F5EE"/>
<path d="M78.093 46.624H75.95L78.3589 48.19H80.502L78.093 46.624Z" fill="#19F5EE"/>
<path d="M58.8159 34.093H56.6729L62.7549 38.046H64.8979L58.8159 34.093Z" fill="#19F5EE"/>
<path d="M48.01 27.068H45.867L49.478 29.416H51.621L48.01 27.068Z" fill="#19F5EE"/>
<path d="M80.063 4.17502L83.272 2.08899V0.696014L77.921 4.17502H80.063Z" fill="#19F5EE"/>
<path d="M52.725 30.133H50.582L53.563 32.071H55.706L52.725 30.133Z" fill="#19F5EE"/>
<path d="M82.068 49.208H79.925L83.272 51.383V49.991L82.068 49.208Z" fill="#19F5EE"/>
<path d="M55.127 20.385H52.984L45.689 25.127H47.832L55.127 20.385Z" fill="#19F5EE"/>
<path d="M84.343 50.687L86.486 52.08V51.383L84.343 49.991V50.687Z" fill="#FCFCFC"/>
<path d="M86.486 0.696014V0L84.343 1.39301V2.08899L86.486 0.696014Z" fill="#FCFCFC"/>
<path d="M84.343 3.48199L86.486 2.08899V0.696014L84.343 2.08899V3.48199Z" fill="#FCFCFC"/>
<path d="M85.2809 49.208H84.343V49.991L86.486 51.383V49.991L85.2809 49.208Z" fill="#FCFCFC"/>
<path d="M84.348 4.17502L86.486 2.785V2.08899L84.343 3.48199V4.17502H84.348Z" fill="#FCFCFC"/>
<path d="M85.2809 49.208L86.486 49.991V49.294L86.353 49.208H85.2809Z" fill="#FCFCFC"/>
<path d="M84.343 48.19H84.787L84.343 47.901V48.19Z" fill="#FCFCFC"/>
<path d="M84.343 40.917H86.486V34.092H84.343V40.917Z" fill="#FCFCFC"/>
<path d="M84.343 32.071H86.486V30.133H84.343V32.071Z" fill="#FCFCFC"/>
<path d="M84.343 29.416H86.486V27.068H84.343V29.416Z" fill="#FCFCFC"/>
<path d="M88.495 49.208L88.628 49.294V49.208H88.495Z" fill="#FCFCFC"/>
<path d="M84.343 19.918H86.486V18.506H84.343V19.918Z" fill="#FCFCFC"/>
<path d="M84.343 43.519H86.486V41.835H84.343V43.519Z" fill="#FCFCFC"/>
<path d="M84.343 46.624V47.901L84.787 48.19H86.486V46.624H84.343Z" fill="#FCFCFC"/>
<path d="M84.343 16.891H86.486V13.555H84.343V16.891Z" fill="#FCFCFC"/>
<path d="M86.486 4.17502V2.785L84.348 4.17502H86.486Z" fill="#FCFCFC"/>
<path d="M84.343 10.269H86.486V5.492H84.343V10.269Z" fill="#FCFCFC"/>
<path d="M84.343 25.127H86.486V20.385H84.343V25.127Z" fill="#FCFCFC"/>
<path d="M84.343 12.822H86.486V11.597H84.343V12.822Z" fill="#FCFCFC"/>
<path d="M83.272 49.294V49.991L84.343 50.687V49.991L83.272 49.294Z" fill="#FCFCFC"/>
<path d="M83.272 2.785L84.343 2.08899V1.39301L83.272 2.08899V2.785Z" fill="#FCFCFC"/>
<path d="M83.277 4.17502L84.343 3.48199V2.08899L83.272 2.785V4.17502H83.277Z" fill="#FCFCFC"/>
<path d="M83.2719 48.19H83.715L83.2719 47.901V48.19Z" fill="#FCFCFC"/>
<path d="M83.272 49.294L84.343 49.991V49.208H83.272V49.294Z" fill="#FCFCFC"/>
<path d="M83.272 47.205V47.901L83.715 48.19H84.343V47.901L83.272 47.205Z" fill="#FCFCFC"/>
<path d="M84.343 4.17502V3.48199L83.277 4.17502H84.343Z" fill="#FCFCFC"/>
<path d="M83.272 32.071H84.343V30.133H83.272V32.071Z" fill="#FCFCFC"/>
<path d="M83.272 25.127H84.343V20.385H83.272V25.127Z" fill="#FCFCFC"/>
<path d="M83.272 43.519H84.343V41.835H83.272V43.519Z" fill="#FCFCFC"/>
<path d="M83.272 40.917H84.343V34.092H83.272V40.917Z" fill="#FCFCFC"/>
<path d="M83.272 29.416H84.343V27.068H83.272V29.416Z" fill="#FCFCFC"/>
<path d="M83.272 47.205L84.343 47.901V46.624H83.272V47.205Z" fill="#FCFCFC"/>
<path d="M83.272 19.918H84.343V18.506H83.272V19.918Z" fill="#FCFCFC"/>
<path d="M83.272 10.269H84.343V5.492H83.272V10.269Z" fill="#FCFCFC"/>
<path d="M83.272 12.822H84.343V11.597H83.272V12.822Z" fill="#FCFCFC"/>
<path d="M83.272 16.891H84.343V13.555H83.272V16.891Z" fill="#FCFCFC"/>
<path d="M83.272 2.785V2.08899L80.063 4.17502H81.134L83.272 2.785Z" fill="#FCFCFC"/>
<path d="M79.108 5.492H78.036L70.687 10.269H71.759L79.108 5.492Z" fill="#FCFCFC"/>
<path d="M69.717 11.596H68.646L66.761 12.822H67.832L69.717 11.596Z" fill="#FCFCFC"/>
<path d="M52.692 29.416L49.081 27.068H48.01L51.621 29.416H52.692Z" fill="#FCFCFC"/>
<path d="M56.198 20.385H55.127L47.832 25.127H48.903L56.198 20.385Z" fill="#FCFCFC"/>
<path d="M66.706 13.554H65.634L55.845 19.918H56.917L66.706 13.554Z" fill="#FCFCFC"/>
<path d="M78.093 46.624L80.502 48.19H81.573L79.164 46.624H78.093Z" fill="#FCFCFC"/>
<path d="M71.797 41.835H70.726L73.317 43.519H74.388L71.797 41.835Z" fill="#FCFCFC"/>
<path d="M67.988 39.359H66.917L69.314 40.917H70.386L67.988 39.359Z" fill="#FCFCFC"/>
<path d="M53.796 30.133H52.725L55.706 32.071H56.777L53.796 30.133Z" fill="#FCFCFC"/>
<path d="M59.887 34.093H58.816L64.898 38.046H65.969L59.887 34.093Z" fill="#FCFCFC"/>
<path d="M82.068 49.208L83.272 49.991V49.294L83.139 49.208H82.068Z" fill="#FCFCFC"/>
<path d="M55.938 30.133H53.796L56.777 32.071H58.92L55.938 30.133Z" fill="#FCFCFC"/>
<path d="M73.939 41.835H71.797L74.388 43.519H76.531L73.939 41.835Z" fill="#FCFCFC"/>
<path d="M58.34 20.385H56.198L48.903 25.127H51.046L58.34 20.385Z" fill="#FCFCFC"/>
<path d="M73.901 10.269L81.25 5.492H79.108L71.759 10.269H73.901Z" fill="#FCFCFC"/>
<path d="M85.281 49.208L85.414 49.294V49.208H85.281Z" fill="#FCFCFC"/>
<path d="M83.272 4.17502V2.785L81.134 4.17502H83.272Z" fill="#FCFCFC"/>
<path d="M71.86 11.596H69.717L67.832 12.822H69.975L71.86 11.596Z" fill="#FCFCFC"/>
<path d="M68.848 13.554H66.706L56.917 19.918H59.059L68.848 13.554Z" fill="#FCFCFC"/>
<path d="M51.223 27.068H49.081L52.692 29.416H54.835L51.223 27.068Z" fill="#FCFCFC"/>
<path d="M62.029 34.093H59.887L65.969 38.046H68.111L62.029 34.093Z" fill="#FCFCFC"/>
<path d="M81.307 46.624H79.164L81.573 48.19H83.272V47.901L81.307 46.624Z" fill="#FCFCFC"/>
<path d="M70.1299 39.359H67.9879L70.386 40.917H72.528L70.1299 39.359Z" fill="#FCFCFC"/>
<path d="M59.991 32.071L57.01 30.133H55.938L58.92 32.071H59.991Z" fill="#FCFCFC"/>
<path d="M69.9189 13.554H68.848L59.059 19.918H60.1299L69.9189 13.554Z" fill="#FCFCFC"/>
<path d="M81.307 46.624L83.272 47.901V47.205L82.378 46.624H81.307Z" fill="#FCFCFC"/>
<path d="M59.412 20.385H58.34L51.046 25.127H52.117L59.412 20.385Z" fill="#FCFCFC"/>
<path d="M73.939 41.835L76.531 43.519H77.602L75.011 41.835H73.939Z" fill="#FCFCFC"/>
<path d="M72.931 11.596H71.86L69.975 12.822H71.046L72.931 11.596Z" fill="#FCFCFC"/>
<path d="M63.101 34.093H62.029L68.111 38.046H69.183L63.101 34.093Z" fill="#FCFCFC"/>
<path d="M71.202 39.359H70.13L72.528 40.917H73.599L71.202 39.359Z" fill="#FCFCFC"/>
<path d="M52.295 27.068H51.223L54.835 29.416H55.906L52.295 27.068Z" fill="#FCFCFC"/>
<path d="M82.322 5.492H81.25L73.901 10.269H74.972L82.322 5.492Z" fill="#FCFCFC"/>
<path d="M83.272 30.133H57.01L59.991 32.071H83.272V30.133Z" fill="#FCFCFC"/>
<path d="M83.272 27.068H52.295L55.906 29.416H83.272V27.068Z" fill="#FCFCFC"/>
<path d="M83.272 12.822V11.596H72.931L71.046 12.822H83.272Z" fill="#FCFCFC"/>
<path d="M83.272 5.492H82.322L74.972 10.269H83.272V5.492Z" fill="#FCFCFC"/>
<path d="M69.183 38.046H79.034V39.359H71.202L73.599 40.917H83.272V34.093H63.101L69.183 38.046Z" fill="#FCFCFC"/>
<path d="M82.378 46.624L83.272 47.205V46.624H82.378Z" fill="#FCFCFC"/>
<path d="M83.272 20.385H59.412L52.117 25.127H83.272V20.385Z" fill="#FCFCFC"/>
<path d="M75.011 41.835L77.602 43.519H83.272V41.835H75.011Z" fill="#FCFCFC"/>
<path d="M83.272 18.506H73.823V16.891H83.272V13.554H69.919L60.13 19.918H83.272V18.506Z" fill="#FCFCFC"/>
<path d="M87.557 46.624H88.628V43.519H87.557V46.624Z" fill="#E31010"/>
<path d="M85.414 46.624H87.557V43.519H85.414V46.624Z" fill="#E75CEE"/>
<path d="M84.343 46.624H85.414V43.519H84.343V46.624Z" fill="#FCFC53"/>
<path d="M69.032 43.519H67.96L72.736 46.624H73.808L69.032 43.519Z" fill="#195FF5"/>
<path d="M71.174 43.519H69.032L73.808 46.624H75.95L71.174 43.519Z" fill="#19F5EE"/>
<path d="M82.2 46.624H84.343V43.519H82.2V46.624Z" fill="#FCFCFC"/>
<path d="M81.129 46.624H82.2V43.519H81.129V46.624Z" fill="#FCFCFC"/>
<path d="M72.245 43.519H71.174L75.95 46.624H77.021L72.245 43.519Z" fill="#FCFCFC"/>
<path d="M72.245 43.519L77.021 46.624H79.164L74.388 43.519H72.245Z" fill="#FCFCFC"/>
<path d="M75.459 43.519H74.388L79.164 46.624H80.235L75.459 43.519Z" fill="#FCFCFC"/>
<path d="M80.235 46.624H81.129V43.519H75.459L80.235 46.624Z" fill="#FCFCFC"/>
<path d="M95.056 41.835H96.127V40.917H95.056V41.835Z" fill="#E31010"/>
<path d="M92.914 41.835H95.056V40.917H92.914V41.835Z" fill="#E75CEE"/>
<path d="M91.8419 41.835H92.913V40.917H91.8419V41.835Z" fill="#FCFC53"/>
<path d="M72.528 40.917H71.457L72.868 41.835H73.939L72.528 40.917Z" fill="#195FF5"/>
<path d="M74.671 40.917H72.528L73.939 41.835H76.082L74.671 40.917Z" fill="#19F5EE"/>
<path d="M89.7 41.835H91.842V40.917H89.7V41.835Z" fill="#FCFCFC"/>
<path d="M88.628 41.835H89.699V40.917H88.628V41.835Z" fill="#FCFCFC"/>
<path d="M75.7419 40.917H74.671L76.082 41.835H77.153L75.7419 40.917Z" fill="#FCFCFC"/>
<path d="M77.884 40.917H75.742L77.153 41.835H79.296L77.884 40.917Z" fill="#FCFCFC"/>
<path d="M78.956 40.917H77.8839L79.296 41.835H80.3669L78.956 40.917Z" fill="#FCFCFC"/>
<path d="M80.367 41.835H88.628V40.917H78.956L80.367 41.835Z" fill="#FCFCFC"/>
<path d="M87.557 34.093H88.628V32.071H87.557V34.093Z" fill="#E31010"/>
<path d="M85.414 34.093H87.557V32.071H85.414V34.093Z" fill="#E75CEE"/>
<path d="M84.343 34.093H85.414V32.071H84.343V34.093Z" fill="#FCFC53"/>
<path d="M51.421 32.071H50.349L53.459 34.093H54.531L51.421 32.071Z" fill="#195FF5"/>
<path d="M53.563 32.071H51.421L54.531 34.093H56.673L53.563 32.071Z" fill="#19F5EE"/>
<path d="M82.2 34.093H84.343V32.071H82.2V34.093Z" fill="#FCFCFC"/>
<path d="M81.129 34.093H82.2V32.071H81.129V34.093Z" fill="#FCFCFC"/>
<path d="M54.635 32.071H53.563L56.673 34.093H57.744L54.635 32.071Z" fill="#FCFCFC"/>
<path d="M56.777 32.071H54.635L57.744 34.093H59.887L56.777 32.071Z" fill="#FCFCFC"/>
<path d="M57.848 32.071H56.777L59.887 34.093H60.958L57.848 32.071Z" fill="#FCFCFC"/>
<path d="M81.129 34.093V32.071H57.848L60.958 34.093H81.129Z" fill="#FCFCFC"/>
<path d="M86.486 27.068H87.557V25.127H86.486V27.068Z" fill="#E31010"/>
<path d="M84.343 27.068H86.486V25.127H84.343V27.068Z" fill="#E75CEE"/>
<path d="M83.272 27.068H84.343V25.127H83.272V27.068Z" fill="#FCFC53"/>
<path d="M41.071 26.04L42.475 25.127H41.404L40 26.04L41.582 27.068H42.653L41.071 26.04Z" fill="#195FF5"/>
<path d="M42.653 27.068H44.796L43.214 26.04L44.618 25.127H42.475L41.071 26.04L42.653 27.068Z" fill="#19F5EE"/>
<path d="M81.13 27.068H83.272V25.127H81.13V27.068Z" fill="#FCFCFC"/>
<path d="M80.058 27.068H81.129V25.127H80.058V27.068Z" fill="#FCFCFC"/>
<path d="M44.285 26.04L45.689 25.127H44.618L43.214 26.04L44.796 27.068H45.867L44.285 26.04Z" fill="#FCFCFC"/>
<path d="M46.428 26.04L47.832 25.127H45.689L44.285 26.04L45.867 27.068H48.01L46.428 26.04Z" fill="#FCFCFC"/>
<path d="M47.499 26.04L48.903 25.127H47.832L46.428 26.04L48.01 27.068H49.081L47.499 26.04Z" fill="#FCFCFC"/>
<path d="M80.058 25.127H48.903L47.499 26.04L49.081 27.068H80.058V25.127Z" fill="#FCFCFC"/>
<path d="M92.913 20.385H93.984V19.918H92.913V20.385Z" fill="#E31010"/>
<path d="M90.771 20.385H92.913V19.918H90.771V20.385Z" fill="#E75CEE"/>
<path d="M89.7 20.385H90.771V19.918H89.7V20.385Z" fill="#FCFC53"/>
<path d="M56.917 19.918H55.845L55.127 20.385H56.198L56.917 19.918Z" fill="#195FF5"/>
<path d="M59.059 19.918H56.917L56.198 20.385H58.34L59.059 19.918Z" fill="#19F5EE"/>
<path d="M87.557 20.385H89.699V19.918H87.557V20.385Z" fill="#FCFCFC"/>
<path d="M86.486 20.385H87.557V19.918H86.486V20.385Z" fill="#FCFCFC"/>
<path d="M60.13 19.918H59.059L58.34 20.385H59.412L60.13 19.918Z" fill="#FCFCFC"/>
<path d="M62.2729 19.918H60.1299L59.412 20.385H61.554L62.2729 19.918Z" fill="#FCFCFC"/>
<path d="M63.344 19.918H62.273L61.554 20.385H62.626L63.344 19.918Z" fill="#FCFCFC"/>
<path d="M86.486 19.918H63.344L62.6259 20.385H86.486V19.918Z" fill="#FCFCFC"/>
<path d="M87.557 11.596H88.628V10.269H87.557V11.596Z" fill="#E31010"/>
<path d="M85.414 11.596H87.557V10.269H85.414V11.596Z" fill="#E75CEE"/>
<path d="M84.343 11.596H85.414V10.269H84.343V11.596Z" fill="#FCFC53"/>
<path d="M66.402 10.269H65.331L63.29 11.596H64.361L66.402 10.269Z" fill="#195FF5"/>
<path d="M68.545 10.269H66.402L64.361 11.596H66.503L68.545 10.269Z" fill="#19F5EE"/>
<path d="M82.2 11.596H84.343V10.269H82.2V11.596Z" fill="#FCFCFC"/>
<path d="M81.129 11.596H82.2V10.269H81.129V11.596Z" fill="#FCFCFC"/>
<path d="M69.616 10.269H68.545L66.503 11.596H67.575L69.616 10.269Z" fill="#FCFCFC"/>
<path d="M71.759 10.269H69.616L67.575 11.596H69.717L71.759 10.269Z" fill="#FCFCFC"/>
<path d="M70.788 11.596L72.83 10.269H71.7589L69.7169 11.596H70.788Z" fill="#FCFCFC"/>
<path d="M81.129 10.269H72.83L70.788 11.596H81.129V10.269Z" fill="#FCFCFC"/>
<path d="M81.129 13.554H82.2V12.821H81.129V13.554Z" fill="#E31010"/>
<path d="M78.986 13.554H81.129V12.821H78.986V13.554Z" fill="#E75CEE"/>
<path d="M77.916 13.554H78.987V12.821H77.916V13.554Z" fill="#FCFC53"/>
<path d="M56.049 12.822H54.977L53.85 13.554H54.922L56.049 12.822Z" fill="#195FF5"/>
<path d="M58.191 12.822H56.049L54.922 13.554H57.064L58.191 12.822Z" fill="#19F5EE"/>
<path d="M75.772 13.554H77.915V12.821H75.772V13.554Z" fill="#FCFCFC"/>
<path d="M74.702 13.554H75.7729V12.821H74.702V13.554Z" fill="#FCFCFC"/>
<path d="M59.262 12.822H58.191L57.064 13.554H58.135L59.262 12.822Z" fill="#FCFCFC"/>
<path d="M61.405 12.822H59.262L58.135 13.554H60.278L61.405 12.822Z" fill="#FCFCFC"/>
<path d="M62.476 12.822H61.405L60.278 13.554H61.349L62.476 12.822Z" fill="#FCFCFC"/>
<path d="M74.702 12.822H62.476L61.349 13.554H74.702V12.822Z" fill="#FCFCFC"/>
<path d="M91.8419 5.492H92.913V4.17502H91.8419V5.492Z" fill="#E31010"/>
<path d="M89.7 5.492H91.842V4.17502H89.7V5.492Z" fill="#E75CEE"/>
<path d="M88.628 5.492H89.699V4.17502H88.628V5.492Z" fill="#FCFC53"/>
<path d="M80.063 4.17502H78.992L76.965 5.492H78.036L80.063 4.17502Z" fill="#195FF5"/>
<path d="M82.206 4.17502H80.063L78.036 5.492H80.179L82.206 4.17502Z" fill="#19F5EE"/>
<path d="M84.348 4.17502H84.343V4.17801L84.348 4.17502Z" fill="#FCFCFC"/>
<path d="M86.486 5.492H88.628V4.17502H86.491L86.486 4.17801V5.492Z" fill="#FCFCFC"/>
<path d="M83.277 4.17502H83.272V4.17801L83.277 4.17502Z" fill="#FCFCFC"/>
<path d="M85.414 4.87399L86.486 4.17801V4.17502H85.4189L85.414 4.17801V4.87399Z" fill="#FCFCFC"/>
<path d="M86.486 5.492V4.17801L85.414 4.87399V5.492H86.486Z" fill="#FCFCFC"/>
<path d="M81.25 5.492L83.277 4.17502H82.206L80.179 5.492H81.25Z" fill="#FCFCFC"/>
<path d="M85.414 4.17801V4.17502H83.277L81.25 5.492H83.393L85.414 4.17801Z" fill="#FCFCFC"/>
<path d="M85.414 4.87399V4.17801L83.393 5.492H84.464L85.414 4.87399Z" fill="#FCFCFC"/>
<path d="M85.414 5.492V4.87399L84.464 5.492H85.414Z" fill="#FCFCFC"/>
<path d="M58.47 38.046H57.399L59.418 39.359H60.489L58.47 38.046Z" fill="#195FF5"/>
<path d="M60.6129 38.046H58.47L60.489 39.359H62.632L60.6129 38.046Z" fill="#19F5EE"/>
<path d="M61.684 38.046H60.613L62.632 39.359H63.703L61.684 38.046Z" fill="#FCFCFC"/>
<path d="M63.826 38.046H61.684L63.7029 39.359H65.845L63.826 38.046Z" fill="#FCFCFC"/>
<path d="M64.898 38.046H63.826L65.845 39.359H66.917L64.898 38.046Z" fill="#FCFCFC"/>
<path d="M79.034 38.046H69.183L71.202 39.359H79.034V38.046Z" fill="#FCFCFC"/>
<path d="M91.8419 49.208H92.913V48.19H91.8419V49.208Z" fill="#E31010"/>
<path d="M89.7 49.208H91.842V48.19H89.7V49.208Z" fill="#E75CEE"/>
<path d="M88.628 49.208H89.699V48.19H88.628V49.208Z" fill="#FCFC53"/>
<path d="M80.502 48.19H79.43L80.996 49.208H82.068L80.502 48.19Z" fill="#195FF5"/>
<path d="M80.502 48.19L82.068 49.208H84.21L82.644 48.19H80.502Z" fill="#19F5EE"/>
<path d="M86.486 49.208H87.424L86.486 48.598V49.208Z" fill="#FCFCFC"/>
<path d="M86.929 48.19H86.486V48.598L87.424 49.208H88.495L86.929 48.19Z" fill="#FCFCFC"/>
<path d="M88.495 49.208H88.628V48.19H86.929L88.495 49.208Z" fill="#FCFCFC"/>
<path d="M85.858 48.19H85.414V49.208H86.486V48.598L85.858 48.19Z" fill="#FCFCFC"/>
<path d="M86.486 48.598V48.19H85.858L86.486 48.598Z" fill="#FCFCFC"/>
<path d="M83.715 48.19H82.644L84.21 49.208H85.281L83.715 48.19Z" fill="#FCFCFC"/>
<path d="M85.281 49.208H85.414V48.19H83.715L85.281 49.208Z" fill="#FCFCFC"/>
<path d="M91.8419 18.506H92.913V16.891H91.8419V18.506Z" fill="#E31010"/>
<path d="M89.7 18.506H91.842V16.891H89.7V18.506Z" fill="#E75CEE"/>
<path d="M88.628 18.506H89.699V16.891H88.628V18.506Z" fill="#FCFC53"/>
<path d="M86.486 18.506H88.628V16.891H86.486V18.506Z" fill="#FCFCFC"/>
<path d="M85.4149 18.506H86.486V16.891H85.4149V18.506Z" fill="#FCFCFC"/>
<path d="M73.823 18.506H83.272V16.891H73.823V18.506Z" fill="#FCFCFC"/>
<path d="M97.198 30.133H98.269V29.416H97.198V30.133Z" fill="#E31010"/>
<path d="M95.055 30.133H97.198V29.416H95.055V30.133Z" fill="#E75CEE"/>
<path d="M93.985 30.133H95.056V29.416H93.985V30.133Z" fill="#FCFC53"/>
<path d="M56.977 29.416H55.906L57.01 30.133H58.081L56.977 29.416Z" fill="#195FF5"/>
<path d="M59.12 29.416H56.977L58.081 30.133H60.223L59.12 29.416Z" fill="#19F5EE"/>
<path d="M91.841 30.133H93.984V29.416H91.841V30.133Z" fill="#FCFCFC"/>
<path d="M90.771 30.133H91.842V29.416H90.771V30.133Z" fill="#FCFCFC"/>
<path d="M60.191 29.416H59.12L60.223 30.133H61.295L60.191 29.416Z" fill="#FCFCFC"/>
<path d="M63.437 30.133L62.334 29.416H60.191L61.295 30.133H63.437Z" fill="#FCFCFC"/>
<path d="M63.405 29.416H62.334L63.437 30.133H64.508L63.405 29.416Z" fill="#FCFCFC"/>
<path d="M90.771 29.416H63.405L64.508 30.133H90.771V29.416Z" fill="#FCFCFC"/>
<path d="M49.7 22.664H50.771V25.012H49.7V22.664Z" fill="#E31010"/>
<path d="M49.7 26.953H50.771V31.695H49.7V26.953Z" fill="#E31010"/>
<path d="M49.7 20.009H50.771V21.947H49.7V20.009Z" fill="#E31010"/>
<path d="M50.771 47.905V52.08L49.699 51.384V47.905H50.771Z" fill="#E31010"/>
<path d="M49.7 35.189H50.771V38.525H49.7V35.189Z" fill="#E31010"/>
<path d="M49.7 32.162H50.771V33.574H49.7V32.162Z" fill="#E31010"/>
<path d="M49.7 39.258H50.771V40.483H49.7V39.258Z" fill="#E31010"/>
<path d="M49.7 3.89001H50.771V5.45602H49.7V3.89001Z" fill="#E31010"/>
<path d="M49.699 0.697021L50.771 0V2.87201H49.699V0.697021Z" fill="#E31010"/>
<path d="M49.7 8.561H50.771V10.245H49.7V8.561Z" fill="#E31010"/>
<path d="M49.7 11.163H50.771V17.988H49.7V11.163Z" fill="#E31010"/>
<path d="M49.7 41.811H50.771V46.588H49.7V41.811Z" fill="#E31010"/>
<path d="M47.557 1.39301L49.699 0V0.697021L47.557 2.08902V1.39301Z" fill="#E75CEE"/>
<path d="M49.699 51.384V52.08L47.557 50.687V49.991L49.699 51.384Z" fill="#E75CEE"/>
<path d="M47.557 22.664H49.699V25.012H47.557V22.664Z" fill="#E75CEE"/>
<path d="M47.557 26.953H49.699V31.695H47.557V26.953Z" fill="#E75CEE"/>
<path d="M47.557 2.87201V2.08902L49.699 0.697021V2.87201H47.557Z" fill="#E75CEE"/>
<path d="M47.557 41.811H49.699V46.588H47.557V41.811Z" fill="#E75CEE"/>
<path d="M47.557 32.162H49.699V33.574H47.557V32.162Z" fill="#E75CEE"/>
<path d="M47.557 39.258H49.699V40.483H47.557V39.258Z" fill="#E75CEE"/>
<path d="M47.557 35.189H49.699V38.525H47.557V35.189Z" fill="#E75CEE"/>
<path d="M47.557 8.561H49.699V10.245H47.557V8.561Z" fill="#E75CEE"/>
<path d="M47.557 20.009H49.699V21.947H47.557V20.009Z" fill="#E75CEE"/>
<path d="M47.557 11.163H49.699V17.988H47.557V11.163Z" fill="#E75CEE"/>
<path d="M47.557 3.89001H49.699V5.45602H47.557V3.89001Z" fill="#E75CEE"/>
<path d="M47.557 47.905H49.699V51.384L47.557 49.991V47.905Z" fill="#E75CEE"/>
<path d="M46.486 0.697021L47.557 0V1.39301L46.486 2.08902V0.697021Z" fill="#FCFC53"/>
<path d="M47.557 50.687V52.08L46.486 51.384V49.991L47.557 50.687Z" fill="#FCFC53"/>
<path d="M46.486 2.78601V2.08902L47.557 1.39301V2.08902L46.486 2.78601Z" fill="#FCFC53"/>
<path d="M46.486 49.295L47.557 49.991V50.687L46.486 49.991V49.295Z" fill="#FCFC53"/>
<path d="M46.486 11.163H47.557V17.988H46.486V11.163Z" fill="#FCFC53"/>
<path d="M46.486 20.009H47.557V21.947H46.486V20.009Z" fill="#FCFC53"/>
<path d="M46.486 8.561H47.557V10.245H46.486V8.561Z" fill="#FCFC53"/>
<path d="M46.486 22.664H47.557V25.012H46.486V22.664Z" fill="#FCFC53"/>
<path d="M46.486 3.89001H47.557V5.45602H46.486V3.89001Z" fill="#FCFC53"/>
<path d="M46.486 35.189H47.557V38.525H46.486V35.189Z" fill="#FCFC53"/>
<path d="M46.486 41.811H47.557V46.588H46.486V41.811Z" fill="#FCFC53"/>
<path d="M46.486 26.953H47.557V31.695H46.486V26.953Z" fill="#FCFC53"/>
<path d="M47.557 47.905V49.991L46.486 49.295V47.905H47.557Z" fill="#FCFC53"/>
<path d="M46.486 2.78601L47.557 2.08902V2.87201H46.486V2.78601Z" fill="#FCFC53"/>
<path d="M46.486 39.258H47.557V40.483H46.486V39.258Z" fill="#FCFC53"/>
<path d="M46.486 32.162H47.557V33.574H46.486V32.162Z" fill="#FCFC53"/>
<path d="M28.583 10.245H27.512L30.103 8.561H31.174L28.583 10.245Z" fill="#195FF5"/>
<path d="M16.673 17.987H15.602L21.684 14.034H22.755L16.673 17.987Z" fill="#195FF5"/>
<path d="M35.95 5.45602H34.879L37.288 3.89001H38.359L35.95 5.45602Z" fill="#195FF5"/>
<path d="M24.774 12.721H23.703L26.101 11.163H27.172L24.774 12.721Z" fill="#195FF5"/>
<path d="M10.582 21.947H9.51099L12.492 20.009H13.563L10.582 21.947Z" fill="#195FF5"/>
<path d="M38.854 2.87201L43.272 0V0.697021L39.925 2.87201H38.854Z" fill="#195FF5"/>
<path d="M5.86697 25.012H4.79599L8.40698 22.664H9.478L5.86697 25.012Z" fill="#195FF5"/>
<path d="M23.492 38.526H22.42L12.632 32.162H13.703L23.492 38.526Z" fill="#195FF5"/>
<path d="M35.894 46.588H34.823L27.473 41.811H28.545L35.894 46.588Z" fill="#195FF5"/>
<path d="M5.689 26.953L12.984 31.695H11.913L4.61798 26.953H5.689Z" fill="#195FF5"/>
<path d="M43.272 51.384V52.08L36.849 47.905H37.921L43.272 51.384Z" fill="#195FF5"/>
<path d="M26.503 40.484H25.432L23.547 39.258H24.619L26.503 40.484Z" fill="#195FF5"/>
<path d="M43.272 0.697021L44.343 0V1.39301L43.272 2.08902V0.697021Z" fill="#19F5EE"/>
<path d="M44.343 50.687V52.08L43.272 51.384V49.991L44.343 50.687Z" fill="#19F5EE"/>
<path d="M25.634 38.526H23.492L13.703 32.162H15.845L25.634 38.526Z" fill="#19F5EE"/>
<path d="M28.646 40.484H26.503L24.619 39.258H26.761L28.646 40.484Z" fill="#19F5EE"/>
<path d="M38.036 46.588H35.894L28.545 41.811H30.687L38.036 46.588Z" fill="#19F5EE"/>
<path d="M30.726 10.245H28.583L31.174 8.561H33.317L30.726 10.245Z" fill="#19F5EE"/>
<path d="M26.917 12.721H24.774L27.172 11.163H29.314L26.917 12.721Z" fill="#19F5EE"/>
<path d="M38.093 5.45602H35.95L38.359 3.89001H40.502L38.093 5.45602Z" fill="#19F5EE"/>
<path d="M18.816 17.987H16.673L22.755 14.034H24.898L18.816 17.987Z" fill="#19F5EE"/>
<path d="M8.00998 25.012H5.86697L9.478 22.664H11.621L8.00998 25.012Z" fill="#19F5EE"/>
<path d="M40.063 47.905L43.272 49.991V51.384L37.921 47.905H40.063Z" fill="#19F5EE"/>
<path d="M12.725 21.947H10.582L13.563 20.009H15.706L12.725 21.947Z" fill="#19F5EE"/>
<path d="M42.068 2.87201H39.925L43.272 0.697021V2.08902L42.068 2.87201Z" fill="#19F5EE"/>
<path d="M15.127 31.695H12.984L5.689 26.953H7.832L15.127 31.695Z" fill="#19F5EE"/>
<path d="M44.343 1.39301L46.486 0V0.697021L44.343 2.08902V1.39301Z" fill="#FCFCFC"/>
<path d="M46.486 51.384V52.08L44.343 50.687V49.991L46.486 51.384Z" fill="#FCFCFC"/>
<path d="M44.343 48.598L46.486 49.991V51.384L44.343 49.991V48.598Z" fill="#FCFCFC"/>
<path d="M45.281 2.87201H44.343V2.08902L46.486 0.697021V2.08902L45.281 2.87201Z" fill="#FCFCFC"/>
<path d="M44.348 47.905L46.486 49.295V49.991L44.343 48.598V47.905H44.348Z" fill="#FCFCFC"/>
<path d="M45.281 2.87201L46.486 2.08902V2.78601L46.353 2.87201H45.281Z" fill="#FCFCFC"/>
<path d="M44.343 3.89001H44.787L44.343 4.17902V3.89001Z" fill="#FCFCFC"/>
<path d="M44.343 11.163H46.486V17.988H44.343V11.163Z" fill="#FCFCFC"/>
<path d="M44.343 20.009H46.486V21.947H44.343V20.009Z" fill="#FCFCFC"/>
<path d="M44.343 22.664H46.486V25.012H44.343V22.664Z" fill="#FCFCFC"/>
<path d="M48.495 2.87201L48.628 2.78601V2.87201H48.495Z" fill="#FCFCFC"/>
<path d="M44.343 32.162H46.486V33.574H44.343V32.162Z" fill="#FCFCFC"/>
<path d="M44.343 8.561H46.486V10.245H44.343V8.561Z" fill="#FCFCFC"/>
<path d="M44.343 5.45602V4.17902L44.787 3.89001H46.486V5.45602H44.343Z" fill="#FCFCFC"/>
<path d="M44.343 35.189H46.486V38.525H44.343V35.189Z" fill="#FCFCFC"/>
<path d="M46.486 47.905V49.295L44.348 47.905H46.486Z" fill="#FCFCFC"/>
<path d="M44.343 41.811H46.486V46.588H44.343V41.811Z" fill="#FCFCFC"/>
<path d="M44.343 26.953H46.486V31.695H44.343V26.953Z" fill="#FCFCFC"/>
<path d="M44.343 39.258H46.486V40.483H44.343V39.258Z" fill="#FCFCFC"/>
<path d="M43.272 2.78601V2.08902L44.343 1.39301V2.08902L43.272 2.78601Z" fill="#FCFCFC"/>
<path d="M43.272 49.295L44.343 49.991V50.687L43.272 49.991V49.295Z" fill="#FCFCFC"/>
<path d="M43.277 47.905L44.343 48.598V49.991L43.272 49.295V47.905H43.277Z" fill="#FCFCFC"/>
<path d="M43.272 3.89001H43.715L43.272 4.17902V3.89001Z" fill="#FCFCFC"/>
<path d="M43.272 2.78601L44.343 2.08902V2.87201H43.272V2.78601Z" fill="#FCFCFC"/>
<path d="M43.272 4.875V4.17902L43.715 3.89001H44.343V4.17902L43.272 4.875Z" fill="#FCFCFC"/>
<path d="M44.343 47.905V48.598L43.277 47.905H44.343Z" fill="#FCFCFC"/>
<path d="M43.272 20.009H44.343V21.947H43.272V20.009Z" fill="#FCFCFC"/>
<path d="M43.272 26.953H44.343V31.695H43.272V26.953Z" fill="#FCFCFC"/>
<path d="M43.272 8.561H44.343V10.245H43.272V8.561Z" fill="#FCFCFC"/>
<path d="M43.272 11.163H44.343V17.988H43.272V11.163Z" fill="#FCFCFC"/>
<path d="M43.272 22.664H44.343V25.012H43.272V22.664Z" fill="#FCFCFC"/>
<path d="M43.272 4.875L44.343 4.17902V5.45602H43.272V4.875Z" fill="#FCFCFC"/>
<path d="M43.272 32.162H44.343V33.574H43.272V32.162Z" fill="#FCFCFC"/>
<path d="M43.272 41.811H44.343V46.588H43.272V41.811Z" fill="#FCFCFC"/>
<path d="M43.272 39.258H44.343V40.483H43.272V39.258Z" fill="#FCFCFC"/>
<path d="M43.272 35.189H44.343V38.525H43.272V35.189Z" fill="#FCFCFC"/>
<path d="M43.272 49.295V49.991L40.063 47.905H41.134L43.272 49.295Z" fill="#FCFCFC"/>
<path d="M39.108 46.588H38.036L30.687 41.811H31.759L39.108 46.588Z" fill="#FCFCFC"/>
<path d="M29.717 40.484H28.646L26.761 39.258H27.832L29.717 40.484Z" fill="#FCFCFC"/>
<path d="M12.692 22.664L9.08099 25.012H8.00998L11.621 22.664H12.692Z" fill="#FCFCFC"/>
<path d="M16.198 31.695H15.127L7.832 26.953H8.90298L16.198 31.695Z" fill="#FCFCFC"/>
<path d="M26.706 38.526H25.634L15.845 32.162H16.917L26.706 38.526Z" fill="#FCFCFC"/>
<path d="M38.093 5.45602L40.502 3.89001H41.573L39.164 5.45602H38.093Z" fill="#FCFCFC"/>
<path d="M31.797 10.245H30.726L33.317 8.561H34.388L31.797 10.245Z" fill="#FCFCFC"/>
<path d="M27.988 12.721H26.917L29.314 11.163H30.386L27.988 12.721Z" fill="#FCFCFC"/>
<path d="M13.796 21.947H12.725L15.706 20.009H16.777L13.796 21.947Z" fill="#FCFCFC"/>
<path d="M19.887 17.987H18.816L24.898 14.034H25.969L19.887 17.987Z" fill="#FCFCFC"/>
<path d="M42.068 2.87201L43.272 2.08902V2.78601L43.139 2.87201H42.068Z" fill="#FCFCFC"/>
<path d="M15.938 21.947H13.796L16.777 20.009H18.92L15.938 21.947Z" fill="#FCFCFC"/>
<path d="M33.939 10.245H31.797L34.388 8.561H36.531L33.939 10.245Z" fill="#FCFCFC"/>
<path d="M18.34 31.695H16.198L8.90298 26.953H11.046L18.34 31.695Z" fill="#FCFCFC"/>
<path d="M33.901 41.811L41.25 46.588H39.108L31.759 41.811H33.901Z" fill="#FCFCFC"/>
<path d="M45.281 2.87201L45.414 2.78601V2.87201H45.281Z" fill="#FCFCFC"/>
<path d="M43.272 47.905V49.295L41.134 47.905H43.272Z" fill="#FCFCFC"/>
<path d="M31.86 40.484H29.717L27.832 39.258H29.975L31.86 40.484Z" fill="#FCFCFC"/>
<path d="M28.848 38.526H26.706L16.917 32.162H19.059L28.848 38.526Z" fill="#FCFCFC"/>
<path d="M11.223 25.012H9.08099L12.692 22.664H14.835L11.223 25.012Z" fill="#FCFCFC"/>
<path d="M22.029 17.987H19.887L25.969 14.034H28.111L22.029 17.987Z" fill="#FCFCFC"/>
<path d="M41.307 5.45602H39.164L41.573 3.89001H43.272V4.17902L41.307 5.45602Z" fill="#FCFCFC"/>
<path d="M30.13 12.721H27.988L30.386 11.163H32.528L30.13 12.721Z" fill="#FCFCFC"/>
<path d="M19.991 20.009L17.01 21.947H15.938L18.92 20.009H19.991Z" fill="#FCFCFC"/>
<path d="M29.919 38.526H28.848L19.059 32.162H20.13L29.919 38.526Z" fill="#FCFCFC"/>
<path d="M41.307 5.45602L43.272 4.17902V4.875L42.378 5.45602H41.307Z" fill="#FCFCFC"/>
<path d="M19.412 31.695H18.34L11.046 26.953H12.117L19.412 31.695Z" fill="#FCFCFC"/>
<path d="M33.939 10.245L36.531 8.561H37.602L35.011 10.245H33.939Z" fill="#FCFCFC"/>
<path d="M32.931 40.484H31.86L29.975 39.258H31.046L32.931 40.484Z" fill="#FCFCFC"/>
<path d="M23.101 17.987H22.029L28.111 14.034H29.183L23.101 17.987Z" fill="#FCFCFC"/>
<path d="M31.202 12.721H30.13L32.528 11.163H33.599L31.202 12.721Z" fill="#FCFCFC"/>
<path d="M12.295 25.012H11.223L14.835 22.664H15.906L12.295 25.012Z" fill="#FCFCFC"/>
<path d="M42.322 46.588H41.25L33.901 41.811H34.972L42.322 46.588Z" fill="#FCFCFC"/>
<path d="M43.272 21.947H17.01L19.991 20.009H43.272V21.947Z" fill="#FCFCFC"/>
<path d="M43.272 25.012H12.295L15.906 22.664H43.272V25.012Z" fill="#FCFCFC"/>
<path d="M43.272 39.258V40.484H32.931L31.046 39.258H43.272Z" fill="#FCFCFC"/>
<path d="M43.272 46.588H42.322L34.972 41.811H43.272V46.588Z" fill="#FCFCFC"/>
<path d="M29.183 14.034H39.034V12.721H31.202L33.599 11.163H43.272V17.987H23.101L29.183 14.034Z" fill="#FCFCFC"/>
<path d="M42.378 5.45602L43.272 4.875V5.45602H42.378Z" fill="#FCFCFC"/>
<path d="M43.272 31.695H19.412L12.117 26.953H43.272V31.695Z" fill="#FCFCFC"/>
<path d="M35.011 10.245L37.602 8.561H43.272V10.245H35.011Z" fill="#FCFCFC"/>
<path d="M43.272 33.574H33.823V35.189H43.272V38.526H29.919L20.13 32.162H43.272V33.574Z" fill="#FCFCFC"/>
<path d="M47.557 5.45602H48.628V8.561H47.557V5.45602Z" fill="#E31010"/>
<path d="M45.414 5.45602H47.557V8.561H45.414V5.45602Z" fill="#E75CEE"/>
<path d="M44.343 5.45602H45.414V8.561H44.343V5.45602Z" fill="#FCFC53"/>
<path d="M29.032 8.561H27.96L32.736 5.45602H33.808L29.032 8.561Z" fill="#195FF5"/>
<path d="M31.174 8.561H29.032L33.808 5.45602H35.95L31.174 8.561Z" fill="#19F5EE"/>
<path d="M42.2 5.45602H44.343V8.561H42.2V5.45602Z" fill="#FCFCFC"/>
<path d="M41.129 5.45602H42.2V8.561H41.129V5.45602Z" fill="#FCFCFC"/>
<path d="M32.245 8.561H31.174L35.95 5.45602H37.021L32.245 8.561Z" fill="#FCFCFC"/>
<path d="M32.245 8.561L37.021 5.45602H39.164L34.388 8.561H32.245Z" fill="#FCFCFC"/>
<path d="M35.459 8.561H34.388L39.164 5.45602H40.235L35.459 8.561Z" fill="#FCFCFC"/>
<path d="M40.235 5.45602H41.129V8.561H35.459L40.235 5.45602Z" fill="#FCFCFC"/>
<path d="M55.056 10.245H56.127V11.163H55.056V10.245Z" fill="#E31010"/>
<path d="M52.914 10.245H55.056V11.163H52.914V10.245Z" fill="#E75CEE"/>
<path d="M51.842 10.245H52.913V11.163H51.842V10.245Z" fill="#FCFC53"/>
<path d="M32.528 11.163H31.457L32.868 10.245H33.939L32.528 11.163Z" fill="#195FF5"/>
<path d="M34.671 11.163H32.528L33.939 10.245H36.082L34.671 11.163Z" fill="#19F5EE"/>
<path d="M49.7 10.245H51.842V11.163H49.7V10.245Z" fill="#FCFCFC"/>
<path d="M48.628 10.245H49.699V11.163H48.628V10.245Z" fill="#FCFCFC"/>
<path d="M35.742 11.163H34.671L36.082 10.245H37.153L35.742 11.163Z" fill="#FCFCFC"/>
<path d="M37.884 11.163H35.742L37.153 10.245H39.296L37.884 11.163Z" fill="#FCFCFC"/>
<path d="M38.956 11.163H37.884L39.296 10.245H40.367L38.956 11.163Z" fill="#FCFCFC"/>
<path d="M40.367 10.245H48.628V11.163H38.956L40.367 10.245Z" fill="#FCFCFC"/>
<path d="M47.557 17.987H48.628V20.009H47.557V17.987Z" fill="#E31010"/>
<path d="M45.414 17.987H47.557V20.009H45.414V17.987Z" fill="#E75CEE"/>
<path d="M44.343 17.987H45.414V20.009H44.343V17.987Z" fill="#FCFC53"/>
<path d="M11.421 20.009H10.349L13.459 17.987H14.531L11.421 20.009Z" fill="#195FF5"/>
<path d="M13.563 20.009H11.421L14.531 17.987H16.673L13.563 20.009Z" fill="#19F5EE"/>
<path d="M42.2 17.987H44.343V20.009H42.2V17.987Z" fill="#FCFCFC"/>
<path d="M41.129 17.987H42.2V20.009H41.129V17.987Z" fill="#FCFCFC"/>
<path d="M14.635 20.009H13.563L16.673 17.987H17.744L14.635 20.009Z" fill="#FCFCFC"/>
<path d="M16.777 20.009H14.635L17.744 17.987H19.887L16.777 20.009Z" fill="#FCFCFC"/>
<path d="M17.848 20.009H16.777L19.887 17.987H20.958L17.848 20.009Z" fill="#FCFCFC"/>
<path d="M41.129 17.987V20.009H17.848L20.958 17.987H41.129Z" fill="#FCFCFC"/>
<path d="M46.486 25.012H47.557V26.953H46.486V25.012Z" fill="#E31010"/>
<path d="M44.343 25.012H46.486V26.953H44.343V25.012Z" fill="#E75CEE"/>
<path d="M43.272 25.012H44.343V26.953H43.272V25.012Z" fill="#FCFC53"/>
<path d="M1.07098 26.04L2.47498 26.953H1.40399L0 26.04L1.582 25.012H2.65298L1.07098 26.04Z" fill="#195FF5"/>
<path d="M2.65298 25.012H4.79599L3.21399 26.04L4.61798 26.953H2.47498L1.07098 26.04L2.65298 25.012Z" fill="#19F5EE"/>
<path d="M41.13 25.012H43.272V26.953H41.13V25.012Z" fill="#FCFCFC"/>
<path d="M40.058 25.012H41.129V26.953H40.058V25.012Z" fill="#FCFCFC"/>
<path d="M4.28497 26.04L5.689 26.953H4.61798L3.21399 26.04L4.79599 25.012H5.86697L4.28497 26.04Z" fill="#FCFCFC"/>
<path d="M6.42798 26.04L7.832 26.953H5.689L4.28497 26.04L5.86697 25.012H8.00998L6.42798 26.04Z" fill="#FCFCFC"/>
<path d="M7.49899 26.04L8.90298 26.953H7.832L6.42798 26.04L8.00998 25.012H9.08099L7.49899 26.04Z" fill="#FCFCFC"/>
<path d="M40.058 26.953H8.90298L7.49899 26.04L9.08099 25.012H40.058V26.953Z" fill="#FCFCFC"/>
<path d="M52.913 31.695H53.984V32.162H52.913V31.695Z" fill="#E31010"/>
<path d="M50.771 31.695H52.913V32.162H50.771V31.695Z" fill="#E75CEE"/>
<path d="M49.7 31.695H50.771V32.162H49.7V31.695Z" fill="#FCFC53"/>
<path d="M16.917 32.162H15.845L15.127 31.695H16.198L16.917 32.162Z" fill="#195FF5"/>
<path d="M19.059 32.162H16.917L16.198 31.695H18.34L19.059 32.162Z" fill="#19F5EE"/>
<path d="M47.557 31.695H49.699V32.162H47.557V31.695Z" fill="#FCFCFC"/>
<path d="M46.486 31.695H47.557V32.162H46.486V31.695Z" fill="#FCFCFC"/>
<path d="M20.13 32.162H19.059L18.34 31.695H19.412L20.13 32.162Z" fill="#FCFCFC"/>
<path d="M22.273 32.162H20.13L19.412 31.695H21.554L22.273 32.162Z" fill="#FCFCFC"/>
<path d="M23.344 32.162H22.273L21.554 31.695H22.626L23.344 32.162Z" fill="#FCFCFC"/>
<path d="M46.486 32.162H23.344L22.626 31.695H46.486V32.162Z" fill="#FCFCFC"/>
<path d="M47.557 40.484H48.628V41.811H47.557V40.484Z" fill="#E31010"/>
<path d="M45.414 40.484H47.557V41.811H45.414V40.484Z" fill="#E75CEE"/>
<path d="M44.343 40.484H45.414V41.811H44.343V40.484Z" fill="#FCFC53"/>
<path d="M26.402 41.811H25.331L23.29 40.484H24.361L26.402 41.811Z" fill="#195FF5"/>
<path d="M28.545 41.811H26.402L24.361 40.484H26.503L28.545 41.811Z" fill="#19F5EE"/>
<path d="M42.2 40.484H44.343V41.811H42.2V40.484Z" fill="#FCFCFC"/>
<path d="M41.129 40.484H42.2V41.811H41.129V40.484Z" fill="#FCFCFC"/>
<path d="M29.616 41.811H28.545L26.503 40.484H27.575L29.616 41.811Z" fill="#FCFCFC"/>
<path d="M31.759 41.811H29.616L27.575 40.484H29.717L31.759 41.811Z" fill="#FCFCFC"/>
<path d="M30.788 40.484L32.83 41.811H31.759L29.717 40.484H30.788Z" fill="#FCFCFC"/>
<path d="M41.129 41.811H32.83L30.788 40.484H41.129V41.811Z" fill="#FCFCFC"/>
<path d="M41.129 38.526H42.2V39.259H41.129V38.526Z" fill="#E31010"/>
<path d="M38.986 38.526H41.129V39.259H38.986V38.526Z" fill="#E75CEE"/>
<path d="M37.916 38.526H38.987V39.259H37.916V38.526Z" fill="#FCFC53"/>
<path d="M16.049 39.258H14.977L13.85 38.526H14.922L16.049 39.258Z" fill="#195FF5"/>
<path d="M18.191 39.258H16.049L14.922 38.526H17.064L18.191 39.258Z" fill="#19F5EE"/>
<path d="M35.772 38.526H37.915V39.259H35.772V38.526Z" fill="#FCFCFC"/>
<path d="M34.702 38.526H35.773V39.259H34.702V38.526Z" fill="#FCFCFC"/>
<path d="M19.262 39.258H18.191L17.064 38.526H18.135L19.262 39.258Z" fill="#FCFCFC"/>
<path d="M21.405 39.258H19.262L18.135 38.526H20.278L21.405 39.258Z" fill="#FCFCFC"/>
<path d="M22.476 39.258H21.405L20.278 38.526H21.349L22.476 39.258Z" fill="#FCFCFC"/>
<path d="M34.702 39.258H22.476L21.349 38.526H34.702V39.258Z" fill="#FCFCFC"/>
<path d="M51.842 46.588H52.913V47.905H51.842V46.588Z" fill="#E31010"/>
<path d="M49.7 46.588H51.842V47.905H49.7V46.588Z" fill="#E75CEE"/>
<path d="M48.628 46.588H49.699V47.905H48.628V46.588Z" fill="#FCFC53"/>
<path d="M40.063 47.905H38.992L36.965 46.588H38.036L40.063 47.905Z" fill="#195FF5"/>
<path d="M42.206 47.905H40.063L38.036 46.588H40.179L42.206 47.905Z" fill="#19F5EE"/>
<path d="M44.348 47.905H44.343V47.902L44.348 47.905Z" fill="#FCFCFC"/>
<path d="M46.486 46.588H48.628V47.905H46.491L46.486 47.902V46.588Z" fill="#FCFCFC"/>
<path d="M43.277 47.905H43.272V47.902L43.277 47.905Z" fill="#FCFCFC"/>
<path d="M45.414 47.206L46.486 47.902V47.905H45.419L45.414 47.902V47.206Z" fill="#FCFCFC"/>
<path d="M46.486 46.588V47.902L45.414 47.206V46.588H46.486Z" fill="#FCFCFC"/>
<path d="M41.25 46.588L43.277 47.905H42.206L40.179 46.588H41.25Z" fill="#FCFCFC"/>
<path d="M45.414 47.902V47.905H43.277L41.25 46.588H43.393L45.414 47.902Z" fill="#FCFCFC"/>
<path d="M45.414 47.206V47.902L43.393 46.588H44.464L45.414 47.206Z" fill="#FCFCFC"/>
<path d="M45.414 46.588V47.206L44.464 46.588H45.414Z" fill="#FCFCFC"/>
<path d="M18.47 14.034H17.399L19.418 12.721H20.489L18.47 14.034Z" fill="#195FF5"/>
<path d="M20.613 14.034H18.47L20.489 12.721H22.632L20.613 14.034Z" fill="#19F5EE"/>
<path d="M21.684 14.034H20.613L22.632 12.721H23.703L21.684 14.034Z" fill="#FCFCFC"/>
<path d="M23.826 14.034H21.684L23.703 12.721H25.845L23.826 14.034Z" fill="#FCFCFC"/>
<path d="M24.898 14.034H23.826L25.845 12.721H26.917L24.898 14.034Z" fill="#FCFCFC"/>
<path d="M39.034 14.034H29.183L31.202 12.721H39.034V14.034Z" fill="#FCFCFC"/>
<path d="M51.842 2.87201H52.913V3.89001H51.842V2.87201Z" fill="#E31010"/>
<path d="M49.7 2.87201H51.842V3.89001H49.7V2.87201Z" fill="#E75CEE"/>
<path d="M48.628 2.87201H49.699V3.89001H48.628V2.87201Z" fill="#FCFC53"/>
<path d="M40.502 3.89001H39.43L40.996 2.87201H42.068L40.502 3.89001Z" fill="#195FF5"/>
<path d="M40.502 3.89001L42.068 2.87201H44.21L42.644 3.89001H40.502Z" fill="#19F5EE"/>
<path d="M46.486 2.87201H47.424L46.486 3.48203V2.87201Z" fill="#FCFCFC"/>
<path d="M46.929 3.89001H46.486V3.48203L47.424 2.87201H48.495L46.929 3.89001Z" fill="#FCFCFC"/>
<path d="M48.495 2.87201H48.628V3.89001H46.929L48.495 2.87201Z" fill="#FCFCFC"/>
<path d="M45.858 3.89001H45.414V2.87201H46.486V3.48203L45.858 3.89001Z" fill="#FCFCFC"/>
<path d="M46.486 3.48203V3.89001H45.858L46.486 3.48203Z" fill="#FCFCFC"/>
<path d="M43.715 3.89001H42.644L44.21 2.87201H45.281L43.715 3.89001Z" fill="#FCFCFC"/>
<path d="M45.281 2.87201H45.414V3.89001H43.715L45.281 2.87201Z" fill="#FCFCFC"/>
<path d="M51.842 33.574H52.913V35.189H51.842V33.574Z" fill="#E31010"/>
<path d="M49.7 33.574H51.842V35.189H49.7V33.574Z" fill="#E75CEE"/>
<path d="M48.628 33.574H49.699V35.189H48.628V33.574Z" fill="#FCFC53"/>
<path d="M46.486 33.574H48.628V35.189H46.486V33.574Z" fill="#FCFCFC"/>
<path d="M45.415 33.574H46.486V35.189H45.415V33.574Z" fill="#FCFCFC"/>
<path d="M33.823 33.574H43.272V35.189H33.823V33.574Z" fill="#FCFCFC"/>
<path d="M57.198 21.947H58.269V22.664H57.198V21.947Z" fill="#E31010"/>
<path d="M55.055 21.947H57.198V22.664H55.055V21.947Z" fill="#E75CEE"/>
<path d="M53.985 21.947H55.056V22.664H53.985V21.947Z" fill="#FCFC53"/>
<path d="M16.977 22.664H15.906L17.01 21.947H18.081L16.977 22.664Z" fill="#195FF5"/>
<path d="M19.12 22.664H16.977L18.081 21.947H20.223L19.12 22.664Z" fill="#19F5EE"/>
<path d="M51.841 21.947H53.984V22.664H51.841V21.947Z" fill="#FCFCFC"/>
<path d="M50.771 21.947H51.842V22.664H50.771V21.947Z" fill="#FCFCFC"/>
<path d="M20.191 22.664H19.12L20.223 21.947H21.295L20.191 22.664Z" fill="#FCFCFC"/>
<path d="M23.437 21.947L22.334 22.664H20.191L21.295 21.947H23.437Z" fill="#FCFCFC"/>
<path d="M23.405 22.664H22.334L23.437 21.947H24.508L23.405 22.664Z" fill="#FCFCFC"/>
<path d="M50.771 22.664H23.405L24.508 21.947H50.771V22.664Z" fill="#FCFCFC"/>
</svg>
