<svg width="160" height="134" viewBox="0 0 160 134" fill="none" xmlns="http://www.w3.org/2000/svg">
<path d="M23.4972 58.2095H20.5679V64.2401H23.4972V58.2095Z" fill="#9B2226"/>
<path d="M23.4972 69.2252H20.5679V81.4044H23.4972V69.2252Z" fill="#9B2226"/>
<path d="M23.4972 51.3905H20.5679V56.368H23.4972V51.3905Z" fill="#9B2226"/>
<path d="M20.5679 123.038V133.761L23.5 131.973V123.038H20.5679Z" fill="#9B2226"/>
<path d="M23.4972 90.3784H20.5679V98.9464H23.4972V90.3784Z" fill="#9B2226"/>
<path d="M23.4972 82.6039H20.5679V86.2304H23.4972V82.6039Z" fill="#9B2226"/>
<path d="M23.4972 100.829H20.5679V103.975H23.4972V100.829Z" fill="#9B2226"/>
<path d="M23.4972 9.99098H20.5679V14.0131H23.4972V9.99098Z" fill="#9B2226"/>
<path d="M23.5 1.79021L20.5679 0V7.37638H23.5V1.79021Z" fill="#9B2226"/>
<path d="M23.4972 21.9878H20.5679V26.313H23.4972V21.9878Z" fill="#9B2226"/>
<path d="M23.4972 28.6708H20.5679V46.1998H23.4972V28.6708Z" fill="#9B2226"/>
<path d="M23.4972 107.386H20.5679V119.655H23.4972V107.386Z" fill="#9B2226"/>
<path d="M29.3586 3.57775L23.5 0V1.79021L29.3586 5.36537V3.57775Z" fill="#AE2012"/>
<path d="M23.5 131.973V133.761L29.3586 130.183V128.395L23.5 131.973Z" fill="#AE2012"/>
<path d="M29.3586 58.2095H23.5V64.2401H29.3586V58.2095Z" fill="#AE2012"/>
<path d="M29.3586 69.2252H23.5V81.4044H29.3586V69.2252Z" fill="#AE2012"/>
<path d="M29.3586 7.37638V5.36537L23.5 1.79021V7.37638H29.3586Z" fill="#AE2012"/>
<path d="M29.3586 107.386H23.5V119.655H29.3586V107.386Z" fill="#AE2012"/>
<path d="M29.3586 82.6039H23.5V86.2304H29.3586V82.6039Z" fill="#AE2012"/>
<path d="M29.3586 100.829H23.5V103.975H29.3586V100.829Z" fill="#AE2012"/>
<path d="M29.3586 90.3784H23.5V98.9464H29.3586V90.3784Z" fill="#AE2012"/>
<path d="M29.3586 21.9878H23.5V26.313H29.3586V21.9878Z" fill="#AE2012"/>
<path d="M29.3586 51.3905H23.5V56.368H29.3586V51.3905Z" fill="#AE2012"/>
<path d="M29.3586 28.6708H23.5V46.1998H29.3586V28.6708Z" fill="#AE2012"/>
<path d="M29.3586 9.99098H23.5V14.0131H29.3586V9.99098Z" fill="#AE2012"/>
<path d="M29.3586 123.038H23.5V131.973L29.3586 128.395V123.038Z" fill="#AE2012"/>
<path d="M32.2879 1.79021L29.3586 0V3.57775L32.2879 5.36537V1.79021Z" fill="#EE9B00"/>
<path d="M29.3586 130.183V133.761L32.2879 131.973V128.395L29.3586 130.183Z" fill="#EE9B00"/>
<path d="M32.2879 7.15549V5.36536L29.3586 3.57774V5.36536L32.2879 7.15549Z" fill="#EE9B00"/>
<path d="M32.2879 126.608L29.3586 128.395V130.183L32.2879 128.395V126.608Z" fill="#EE9B00"/>
<path d="M32.2879 28.6708H29.3586V46.1998H32.2879V28.6708Z" fill="#EE9B00"/>
<path d="M32.2879 51.3905H29.3586V56.368H32.2879V51.3905Z" fill="#EE9B00"/>
<path d="M32.2879 21.9878H29.3586V26.313H32.2879V21.9878Z" fill="#EE9B00"/>
<path d="M32.2879 58.2095H29.3586V64.2401H32.2879V58.2095Z" fill="#EE9B00"/>
<path d="M32.2879 9.99098H29.3586V14.0131H32.2879V9.99098Z" fill="#EE9B00"/>
<path d="M32.2879 90.3784H29.3586V98.9464H32.2879V90.3784Z" fill="#EE9B00"/>
<path d="M32.2879 107.386H29.3586V119.655H32.2879V107.386Z" fill="#EE9B00"/>
<path d="M32.2879 69.2252H29.3586V81.4044H32.2879V69.2252Z" fill="#EE9B00"/>
<path d="M29.3586 123.038V128.395L32.2879 126.608V123.038H29.3586Z" fill="#EE9B00"/>
<path d="M32.2879 7.1555L29.3586 5.36537V7.37638H32.2879V7.1555Z" fill="#EE9B00"/>
<path d="M32.2879 100.829H29.3586V103.975H32.2879V100.829Z" fill="#EE9B00"/>
<path d="M32.2879 82.6039H29.3586V86.2304H32.2879V82.6039Z" fill="#EE9B00"/>
<path d="M81.2547 26.313H84.1839L77.0972 21.9878H74.168L81.2547 26.313Z" fill="#005F73"/>
<path d="M113.83 46.1972H116.759L100.124 36.0445H97.1948L113.83 46.1972Z" fill="#005F73"/>
<path d="M61.105 14.0131H64.0343L57.4454 9.99098H54.5161L61.105 14.0131Z" fill="#005F73"/>
<path d="M91.6726 32.6722H94.6019L88.0431 28.6708H85.1138L91.6726 32.6722Z" fill="#005F73"/>
<path d="M130.489 56.368H133.419L125.265 51.3905H122.336L130.489 56.368Z" fill="#005F73"/>
<path d="M53.1623 7.37638L41.0786 0V1.79021L50.233 7.37638H53.1623Z" fill="#005F73"/>
<path d="M143.385 64.2401H146.315L136.438 58.2095H133.509L143.385 64.2401Z" fill="#005F73"/>
<path d="M95.1792 98.9489H98.1112L124.883 82.6039H121.953L95.1792 98.9489Z" fill="#005F73"/>
<path d="M61.2583 119.655H64.1876L84.2907 107.386H81.3587L61.2583 119.655Z" fill="#005F73"/>
<path d="M143.872 69.2252L123.92 81.4044H126.849L146.802 69.2252H143.872Z" fill="#005F73"/>
<path d="M41.0786 131.973V133.761L58.6462 123.038H55.7142L41.0786 131.973Z" fill="#005F73"/>
<path d="M86.9436 103.978H89.873L95.0286 100.829H92.0966L86.9436 103.978Z" fill="#005F73"/>
<path d="M41.0785 1.79021L38.1492 0V3.57775L41.0785 5.36537V1.79021Z" fill="#94D2BD"/>
<path d="M38.1492 130.183V133.761L41.0785 131.973V128.395L38.1492 130.183Z" fill="#94D2BD"/>
<path d="M89.3206 98.9489H95.1792L121.953 82.6039H116.095L89.3206 98.9489Z" fill="#94D2BD"/>
<path d="M81.0823 103.978H86.9436L92.0966 100.829H86.238L81.0823 103.978Z" fill="#94D2BD"/>
<path d="M55.3997 119.655H61.2583L81.3586 107.386H75.5L55.3997 119.655Z" fill="#94D2BD"/>
<path d="M75.3933 26.313H81.2547L74.168 21.9878H68.3066L75.3933 26.313Z" fill="#94D2BD"/>
<path d="M85.8112 32.6722H91.6726L85.1137 28.6708H79.2551L85.8112 32.6722Z" fill="#94D2BD"/>
<path d="M55.2437 14.0131H61.105L54.5161 9.99098H48.6548L55.2437 14.0131Z" fill="#94D2BD"/>
<path d="M107.968 46.1972H113.83L97.1949 36.0445H91.3335L107.968 46.1972Z" fill="#94D2BD"/>
<path d="M137.524 64.2401H143.386L133.509 58.2095H127.648L137.524 64.2401Z" fill="#94D2BD"/>
<path d="M49.8556 123.038L41.0786 128.395V131.973L55.7142 123.038H49.8556Z" fill="#94D2BD"/>
<path d="M124.628 56.368H130.489L122.336 51.3905H116.475L124.628 56.368Z" fill="#94D2BD"/>
<path d="M44.3716 7.37638H50.233L41.0786 1.79021V5.36537L44.3716 7.37638Z" fill="#94D2BD"/>
<path d="M118.058 81.4044H123.92L143.872 69.2252H138.011L118.058 81.4044Z" fill="#94D2BD"/>
<path d="M38.1492 3.57775L32.2878 0V1.79021L38.1492 5.36537V3.57775Z" fill="#E9D8A6"/>
<path d="M32.2878 131.973V133.761L38.1492 130.183V128.395L32.2878 131.973Z" fill="#E9D8A6"/>
<path d="M38.1492 124.818L32.2878 128.395V131.973L38.1492 128.395V124.818Z" fill="#E9D8A6"/>
<path d="M35.5837 7.37638H38.1492V5.36537L32.2878 1.79021V5.36537L35.5837 7.37638Z" fill="#E9D8A6"/>
<path d="M38.1355 123.038L32.2878 126.608V128.395L38.1492 124.818V123.038H38.1355Z" fill="#E9D8A6"/>
<path d="M35.5837 7.37638L32.2878 5.36537V7.1555L32.6516 7.37638H35.5837Z" fill="#E9D8A6"/>
<path d="M38.1492 9.99098H36.9348L38.1492 10.7332V9.99098Z" fill="#E9D8A6"/>
<path d="M38.1492 28.6708H32.2878V46.1998H38.1492V28.6708Z" fill="#E9D8A6"/>
<path d="M38.1492 51.3905H32.2878V56.368H38.1492V51.3905Z" fill="#E9D8A6"/>
<path d="M38.1492 58.2095H32.2878V64.2401H38.1492V58.2095Z" fill="#E9D8A6"/>
<path d="M26.793 7.37638L26.4292 7.1555V7.37638H26.793Z" fill="#E9D8A6"/>
<path d="M38.1492 82.6039H32.2878V86.2304H38.1492V82.6039Z" fill="#E9D8A6"/>
<path d="M38.1492 21.9878H32.2878V26.313H38.1492V21.9878Z" fill="#E9D8A6"/>
<path d="M38.1492 14.0131V10.7332L36.9348 9.99098H32.2878V14.0131H38.1492Z" fill="#E9D8A6"/>
<path d="M38.1492 90.3784H32.2878V98.9464H38.1492V90.3784Z" fill="#E9D8A6"/>
<path d="M32.2878 123.038V126.608L38.1355 123.038H32.2878Z" fill="#E9D8A6"/>
<path d="M38.1492 107.386H32.2878V119.655H38.1492V107.386Z" fill="#E9D8A6"/>
<path d="M38.1492 69.2252H32.2878V81.4044H38.1492V69.2252Z" fill="#E9D8A6"/>
<path d="M38.1492 100.829H32.2878V103.975H38.1492V100.829Z" fill="#E9D8A6"/>
<path d="M41.0785 7.15549V5.36536L38.1492 3.57774V5.36536L41.0785 7.15549Z" fill="#E9D8A6"/>
<path d="M41.0785 126.608L38.1492 128.395V130.183L41.0785 128.395V126.608Z" fill="#E9D8A6"/>
<path d="M41.0648 123.038L38.1492 124.818V128.395L41.0785 126.608V123.038H41.0648Z" fill="#E9D8A6"/>
<path d="M41.0787 9.99098H39.8669L41.0787 10.7332V9.99098Z" fill="#E9D8A6"/>
<path d="M41.0785 7.1555L38.1492 5.36537V7.37638H41.0785V7.1555Z" fill="#E9D8A6"/>
<path d="M41.0785 12.5208V10.7332L39.8668 9.99098H38.1492V10.7332L41.0785 12.5208Z" fill="#E9D8A6"/>
<path d="M38.1492 123.038V124.818L41.0648 123.038H38.1492Z" fill="#E9D8A6"/>
<path d="M41.0785 51.3905H38.1492V56.368H41.0785V51.3905Z" fill="#E9D8A6"/>
<path d="M41.0785 69.2252H38.1492V81.4044H41.0785V69.2252Z" fill="#E9D8A6"/>
<path d="M41.0785 21.9878H38.1492V26.313H41.0785V21.9878Z" fill="#E9D8A6"/>
<path d="M41.0785 28.6708H38.1492V46.1998H41.0785V28.6708Z" fill="#E9D8A6"/>
<path d="M41.0785 58.2095H38.1492V64.2401H41.0785V58.2095Z" fill="#E9D8A6"/>
<path d="M41.0785 12.5208L38.1492 10.7332V14.0131H41.0785V12.5208Z" fill="#E9D8A6"/>
<path d="M41.0785 82.6039H38.1492V86.2304H41.0785V82.6039Z" fill="#E9D8A6"/>
<path d="M41.0785 107.386H38.1492V119.655H41.0785V107.386Z" fill="#E9D8A6"/>
<path d="M41.0785 100.829H38.1492V103.975H41.0785V100.829Z" fill="#E9D8A6"/>
<path d="M41.0785 90.3784H38.1492V98.9464H41.0785V90.3784Z" fill="#E9D8A6"/>
<path d="M41.0786 126.608V128.395L49.8556 123.038H46.9263L41.0786 126.608Z" fill="#E9D8A6"/>
<path d="M52.4675 119.655H55.3996L75.5 107.386H72.568L52.4675 119.655Z" fill="#E9D8A6"/>
<path d="M78.1531 103.978H81.0823L86.2381 100.829H83.3087L78.1531 103.978Z" fill="#E9D8A6"/>
<path d="M124.718 58.2095L134.595 64.2401H137.524L127.648 58.2095H124.718Z" fill="#E9D8A6"/>
<path d="M115.129 81.4044H118.058L138.011 69.2252H135.082L115.129 81.4044Z" fill="#E9D8A6"/>
<path d="M86.3884 98.9489H89.3205L116.094 82.6039H113.162L86.3884 98.9489Z" fill="#E9D8A6"/>
<path d="M55.2438 14.0131L48.6549 9.99098H45.7256L52.3145 14.0131H55.2438Z" fill="#E9D8A6"/>
<path d="M72.4639 26.313H75.3932L68.3065 21.9878H65.3772L72.4639 26.313Z" fill="#E9D8A6"/>
<path d="M82.8821 32.6722H85.8113L79.2553 28.6708H76.3232L82.8821 32.6722Z" fill="#E9D8A6"/>
<path d="M121.699 56.368H124.628L116.475 51.3905H113.545L121.699 56.368Z" fill="#E9D8A6"/>
<path d="M105.039 46.1972H107.969L91.3336 36.0445H88.4043L105.039 46.1972Z" fill="#E9D8A6"/>
<path d="M44.3716 7.37638L41.0786 5.36537V7.1555L41.4424 7.37638H44.3716Z" fill="#E9D8A6"/>
<path d="M115.84 56.368H121.699L113.545 51.3905H107.684L115.84 56.368Z" fill="#E9D8A6"/>
<path d="M66.6052 26.313H72.4638L65.3772 21.9878H59.5159L66.6052 26.313Z" fill="#E9D8A6"/>
<path d="M109.27 81.4044H115.129L135.082 69.2252H129.22L109.27 81.4044Z" fill="#E9D8A6"/>
<path d="M66.7092 107.386L46.6089 119.655H52.4675L72.5679 107.386H66.7092Z" fill="#E9D8A6"/>
<path d="M35.5838 7.37638L35.22 7.1555V7.37638H35.5838Z" fill="#E9D8A6"/>
<path d="M41.0786 123.038V126.608L46.9263 123.038H41.0786Z" fill="#E9D8A6"/>
<path d="M72.2917 103.978H78.1531L83.3087 100.829H77.4475L72.2917 103.978Z" fill="#E9D8A6"/>
<path d="M80.5298 98.9489H86.3884L113.162 82.6039H107.304L80.5298 98.9489Z" fill="#E9D8A6"/>
<path d="M128.736 64.2401H134.595L124.718 58.2095H118.857L128.736 64.2401Z" fill="#E9D8A6"/>
<path d="M99.1806 46.1972H105.039L88.4043 36.0445H82.5457L99.1806 46.1972Z" fill="#E9D8A6"/>
<path d="M46.4531 14.0131H52.3144L45.7255 9.99098H41.0786V10.7332L46.4531 14.0131Z" fill="#E9D8A6"/>
<path d="M77.0234 32.6722H82.882L76.3232 28.6708H70.4646L77.0234 32.6722Z" fill="#E9D8A6"/>
<path d="M104.755 51.3905L112.908 56.368H115.84L107.684 51.3905H104.755Z" fill="#E9D8A6"/>
<path d="M77.6006 98.9489H80.5298L107.304 82.6039H104.375L77.6006 98.9489Z" fill="#E9D8A6"/>
<path d="M46.4531 14.0131L41.0786 10.7332V12.5208L43.5238 14.0131H46.4531Z" fill="#E9D8A6"/>
<path d="M106.338 81.4044H109.27L129.22 69.2252H126.291L106.338 81.4044Z" fill="#E9D8A6"/>
<path d="M66.6054 26.313L59.516 21.9878H56.5867L63.6734 26.313H66.6054Z" fill="#E9D8A6"/>
<path d="M69.3623 103.978H72.2917L77.4474 100.829H74.518L69.3623 103.978Z" fill="#E9D8A6"/>
<path d="M96.2485 46.1972H99.1805L82.5455 36.0445H79.6135L96.2485 46.1972Z" fill="#E9D8A6"/>
<path d="M74.0912 32.6722H77.0233L70.4645 28.6708H67.5352L74.0912 32.6722Z" fill="#E9D8A6"/>
<path d="M125.804 64.2401H128.736L118.857 58.2095H115.928L125.804 64.2401Z" fill="#E9D8A6"/>
<path d="M43.6768 119.655H46.6088L66.7091 107.386H63.7799L43.6768 119.655Z" fill="#E9D8A6"/>
<path d="M41.0786 56.368H112.908L104.755 51.3905H41.0786V56.368Z" fill="#E9D8A6"/>
<path d="M41.0786 64.2401H125.804L115.928 58.2095H41.0786V64.2401Z" fill="#E9D8A6"/>
<path d="M41.0786 100.829V103.978H69.3624L74.5181 100.829H41.0786Z" fill="#E9D8A6"/>
<path d="M41.0786 119.655H43.6769L63.78 107.386H41.0786V119.655Z" fill="#E9D8A6"/>
<path d="M79.6136 36.0446H52.67V32.6722H74.0914L67.5353 28.6708H41.0786V46.1972H96.2486L79.6136 36.0446Z" fill="#E9D8A6"/>
<path d="M43.5238 14.0131L41.0786 12.5208V14.0131H43.5238Z" fill="#E9D8A6"/>
<path d="M41.0786 81.4044H106.338L126.291 69.2252H41.0786V81.4044Z" fill="#E9D8A6"/>
<path d="M63.6734 26.313L56.5867 21.9878H41.0786V26.313H63.6734Z" fill="#E9D8A6"/>
<path d="M41.0786 86.2304H66.9226V90.3784H41.0786V98.9489H77.6006L104.375 82.6039H41.0786V86.2304Z" fill="#E9D8A6"/>
<path d="M29.3585 14.0131H26.4292V21.9878H29.3585V14.0131Z" fill="#9B2226"/>
<path d="M35.2199 14.0131H29.3586V21.9878H35.2199V14.0131Z" fill="#AE2012"/>
<path d="M38.1493 14.0131H35.22V21.9878H38.1493V14.0131Z" fill="#EE9B00"/>
<path d="M80.0265 21.9878H82.9585L69.8956 14.0131H66.9636L80.0265 21.9878Z" fill="#005F73"/>
<path d="M74.1679 21.9878H80.0265L66.9636 14.0131H61.105L74.1679 21.9878Z" fill="#94D2BD"/>
<path d="M44.0105 14.0131H38.1492V21.9878H44.0105V14.0131Z" fill="#E9D8A6"/>
<path d="M46.9398 14.0131H44.0105V21.9878H46.9398V14.0131Z" fill="#E9D8A6"/>
<path d="M71.2387 21.9878H74.168L61.1051 14.0131H58.1758L71.2387 21.9878Z" fill="#E9D8A6"/>
<path d="M71.2387 21.9878L58.1758 14.0131H52.3145L65.3774 21.9878H71.2387Z" fill="#E9D8A6"/>
<path d="M62.4479 21.9878H65.3772L52.3143 14.0131H49.385L62.4479 21.9878Z" fill="#E9D8A6"/>
<path d="M49.3852 14.0131H46.9399V21.9878H62.4481L49.3852 14.0131Z" fill="#E9D8A6"/>
<path d="M8.84796 26.313H5.9187V28.6707H8.84796V26.313Z" fill="#9B2226"/>
<path d="M14.7065 26.313H8.8479V28.6707H14.7065V26.313Z" fill="#AE2012"/>
<path d="M17.6386 26.313H14.7092V28.6707H17.6386V26.313Z" fill="#EE9B00"/>
<path d="M70.4645 28.6707H73.3938L69.5346 26.313H66.6052L70.4645 28.6707Z" fill="#005F73"/>
<path d="M64.6032 28.6707H70.4645L66.6053 26.313H60.7439L64.6032 28.6707Z" fill="#94D2BD"/>
<path d="M23.4973 26.313H17.6387V28.6707H23.4973V26.313Z" fill="#E9D8A6"/>
<path d="M26.4293 26.313H23.5V28.6707H26.4293V26.313Z" fill="#E9D8A6"/>
<path d="M61.674 28.6707H64.6032L60.744 26.313H57.8147L61.674 28.6707Z" fill="#E9D8A6"/>
<path d="M55.8154 28.6707H61.674L57.8147 26.313H51.9534L55.8154 28.6707Z" fill="#E9D8A6"/>
<path d="M52.8834 28.6707H55.8155L51.9534 26.313H49.0242L52.8834 28.6707Z" fill="#E9D8A6"/>
<path d="M49.024 26.313H26.4292V28.6707H52.8832L49.024 26.313Z" fill="#E9D8A6"/>
<path d="M29.3585 46.1972H26.4292V51.3905H29.3585V46.1972Z" fill="#9B2226"/>
<path d="M35.2199 46.1972H29.3586V51.3905H35.2199V46.1972Z" fill="#AE2012"/>
<path d="M38.1493 46.1972H35.22V51.3905H38.1493V46.1972Z" fill="#EE9B00"/>
<path d="M128.195 51.3905H131.127L122.62 46.1972H119.688L128.195 51.3905Z" fill="#005F73"/>
<path d="M122.336 51.3905H128.195L119.689 46.1972H113.83L122.336 51.3905Z" fill="#94D2BD"/>
<path d="M44.0105 46.1972H38.1492V51.3905H44.0105V46.1972Z" fill="#E9D8A6"/>
<path d="M46.9398 46.1972H44.0105V51.3905H46.9398V46.1972Z" fill="#E9D8A6"/>
<path d="M119.404 51.3905H122.336L113.83 46.1972H110.9L119.404 51.3905Z" fill="#E9D8A6"/>
<path d="M113.545 51.3905H119.404L110.9 46.1972H105.039L113.545 51.3905Z" fill="#E9D8A6"/>
<path d="M110.616 51.3905H113.545L105.039 46.1972H102.11L110.616 51.3905Z" fill="#E9D8A6"/>
<path d="M46.9399 46.1972V51.3905H110.616L102.11 46.1972H46.9399Z" fill="#E9D8A6"/>
<path d="M32.2879 64.2401H29.3586V69.2252H32.2879V64.2401Z" fill="#9B2226"/>
<path d="M38.1492 64.2401H32.2878V69.2252H38.1492V64.2401Z" fill="#AE2012"/>
<path d="M41.0785 64.2401H38.1492V69.2252H41.0785V64.2401Z" fill="#EE9B00"/>
<path d="M156.503 66.8803L152.663 69.2252H155.592L159.432 66.8803L155.105 64.2401H152.176L156.503 66.8803Z" fill="#005F73"/>
<path d="M152.176 64.2401H146.315L150.642 66.8803L146.802 69.2252H152.663L156.503 66.8803L152.176 64.2401Z" fill="#94D2BD"/>
<path d="M46.9372 64.2401H41.0786V69.2252H46.9372V64.2401Z" fill="#E9D8A6"/>
<path d="M49.8693 64.2401H46.9399V69.2252H49.8693V64.2401Z" fill="#E9D8A6"/>
<path d="M147.712 66.8803L143.872 69.2252H146.802L150.642 66.8803L146.315 64.2401H143.385L147.712 66.8803Z" fill="#E9D8A6"/>
<path d="M141.851 66.8803L138.011 69.2252H143.872L147.712 66.8803L143.386 64.2401H137.524L141.851 66.8803Z" fill="#E9D8A6"/>
<path d="M138.922 66.8803L135.082 69.2252H138.011L141.851 66.8803L137.524 64.2401H134.595L138.922 66.8803Z" fill="#E9D8A6"/>
<path d="M49.8691 69.2252H135.082L138.922 66.8803L134.595 64.2401H49.8691V69.2252Z" fill="#E9D8A6"/>
<path d="M14.7093 81.4044H11.78V82.6039H14.7093V81.4044Z" fill="#9B2226"/>
<path d="M20.5678 81.4044H14.7092V82.6039H20.5678V81.4044Z" fill="#AE2012"/>
<path d="M23.4972 81.4044H20.5679V82.6039H23.4972V81.4044Z" fill="#EE9B00"/>
<path d="M113.162 82.6039H116.094L118.058 81.4044H115.129L113.162 82.6039Z" fill="#005F73"/>
<path d="M107.304 82.6039H113.162L115.129 81.4044H109.27L107.304 82.6039Z" fill="#94D2BD"/>
<path d="M29.3586 81.4044H23.5V82.6039H29.3586V81.4044Z" fill="#E9D8A6"/>
<path d="M32.2879 81.4044H29.3586V82.6039H32.2879V81.4044Z" fill="#E9D8A6"/>
<path d="M104.375 82.6039H107.304L109.27 81.4044H106.338L104.375 82.6039Z" fill="#E9D8A6"/>
<path d="M98.5132 82.6039H104.375L106.338 81.4044H100.48L98.5132 82.6039Z" fill="#E9D8A6"/>
<path d="M95.584 82.6039H98.5133L100.48 81.4044H97.5478L95.584 82.6039Z" fill="#E9D8A6"/>
<path d="M32.2878 82.6039H95.5839L97.5477 81.4044H32.2878V82.6039Z" fill="#E9D8A6"/>
<path d="M29.3585 103.978H26.4292V107.386H29.3585V103.978Z" fill="#9B2226"/>
<path d="M35.2199 103.978H29.3586V107.386H35.2199V103.978Z" fill="#AE2012"/>
<path d="M38.1493 103.978H35.22V107.386H38.1493V103.978Z" fill="#EE9B00"/>
<path d="M87.22 107.386H90.1492L95.7316 103.978H92.8023L87.22 107.386Z" fill="#005F73"/>
<path d="M81.3586 107.386H87.22L92.8023 103.978H86.9437L81.3586 107.386Z" fill="#94D2BD"/>
<path d="M44.0105 103.978H38.1492V107.386H44.0105V103.978Z" fill="#E9D8A6"/>
<path d="M46.9398 103.978H44.0105V107.386H46.9398V103.978Z" fill="#E9D8A6"/>
<path d="M78.4292 107.386H81.3585L86.9436 103.978H84.0116L78.4292 107.386Z" fill="#E9D8A6"/>
<path d="M72.5679 107.386H78.4292L84.0116 103.978H78.153L72.5679 107.386Z" fill="#E9D8A6"/>
<path d="M75.2238 103.978L69.6387 107.386H72.568L78.1531 103.978H75.2238Z" fill="#E9D8A6"/>
<path d="M46.9399 107.386H69.6387L75.2238 103.978H46.9399V107.386Z" fill="#E9D8A6"/>
<path d="M46.9398 98.9489H44.0105V100.832H46.9398V98.9489Z" fill="#9B2226"/>
<path d="M52.8013 98.9489H46.9399V100.832H52.8013V98.9489Z" fill="#AE2012"/>
<path d="M55.7279 98.9489H52.7986V100.832H55.7279V98.9489Z" fill="#EE9B00"/>
<path d="M115.536 100.829H118.469L121.551 98.9489H118.619L115.536 100.829Z" fill="#005F73"/>
<path d="M109.678 100.829H115.537L118.619 98.9489H112.76L109.678 100.829Z" fill="#94D2BD"/>
<path d="M61.5918 98.9489H55.7305V100.832H61.5918V98.9489Z" fill="#E9D8A6"/>
<path d="M64.5184 98.9489H61.5891V100.832H64.5184V98.9489Z" fill="#E9D8A6"/>
<path d="M106.749 100.829H109.678L112.76 98.9489H109.831L106.749 100.829Z" fill="#E9D8A6"/>
<path d="M100.887 100.829H106.749L109.831 98.9489H103.97L100.887 100.829Z" fill="#E9D8A6"/>
<path d="M97.958 100.829H100.887L103.97 98.9489H101.04L97.958 100.829Z" fill="#E9D8A6"/>
<path d="M64.5186 100.829H97.9581L101.041 98.9489H64.5186V100.829Z" fill="#E9D8A6"/>
<path d="M17.6386 119.655H14.7092V123.038H17.6386V119.655Z" fill="#9B2226"/>
<path d="M23.4973 119.655H17.6387V123.038H23.4973V119.655Z" fill="#AE2012"/>
<path d="M26.4293 119.655H23.5V123.038H26.4293V119.655Z" fill="#EE9B00"/>
<path d="M49.8555 123.038H52.7848L58.3288 119.655H55.3996L49.8555 123.038Z" fill="#005F73"/>
<path d="M43.9941 123.038H49.8555L55.3996 119.655H49.5382L43.9941 123.038Z" fill="#94D2BD"/>
<path d="M38.1355 123.038H38.147V123.03L38.1355 123.038Z" fill="#E9D8A6"/>
<path d="M32.2878 119.655H26.4292V123.038H32.2741L32.2878 123.03V119.655Z" fill="#E9D8A6"/>
<path d="M41.0649 123.038H41.0764V123.03L41.0649 123.038Z" fill="#E9D8A6"/>
<path d="M35.2199 121.242L32.2878 123.03V123.038H35.2063L35.2199 123.03V121.242Z" fill="#E9D8A6"/>
<path d="M32.2878 119.655V123.03L35.2199 121.242V119.655H32.2878Z" fill="#E9D8A6"/>
<path d="M46.609 119.655L41.0649 123.038H43.9942L49.5383 119.655H46.609Z" fill="#E9D8A6"/>
<path d="M35.22 123.03V123.038H41.065L46.609 119.655H40.7477L35.22 123.03Z" fill="#E9D8A6"/>
<path d="M35.22 121.242V123.03L40.7477 119.655H37.8184L35.22 121.242Z" fill="#E9D8A6"/>
<path d="M35.22 119.655V121.242L37.8184 119.655H35.22Z" fill="#E9D8A6"/>
<path d="M108.915 36.0445H111.844L106.322 32.6722H103.393L108.915 36.0445Z" fill="#005F73"/>
<path d="M103.053 36.0445H108.915L103.393 32.6722H97.5312L103.053 36.0445Z" fill="#94D2BD"/>
<path d="M100.124 36.0445H103.054L97.5313 32.6722H94.6021L100.124 36.0445Z" fill="#E9D8A6"/>
<path d="M94.2656 36.0445H100.124L94.6021 32.6722H88.7434L94.2656 36.0445Z" fill="#E9D8A6"/>
<path d="M91.3335 36.0445H94.2655L88.7433 32.6722H85.8113L91.3335 36.0445Z" fill="#E9D8A6"/>
<path d="M52.6699 36.0445H79.6136L74.0913 32.6722H52.6699V36.0445Z" fill="#E9D8A6"/>
<path d="M17.6386 7.37637H14.7092V9.99099H17.6386V7.37637Z" fill="#9B2226"/>
<path d="M23.4973 7.37637H17.6387V9.99099H23.4973V7.37637Z" fill="#AE2012"/>
<path d="M26.4293 7.37637H23.5V9.99099H26.4293V7.37637Z" fill="#EE9B00"/>
<path d="M48.6548 9.99099H51.5868L47.3037 7.37637H44.3716L48.6548 9.99099Z" fill="#005F73"/>
<path d="M48.6548 9.99099L44.3715 7.37637H38.5129L42.7962 9.99099H48.6548Z" fill="#94D2BD"/>
<path d="M32.2879 7.37637H29.7224L32.2879 8.94312V7.37637Z" fill="#E9D8A6"/>
<path d="M31.0762 9.99099H32.2878V8.94312L29.7223 7.37637H26.793L31.0762 9.99099Z" fill="#E9D8A6"/>
<path d="M26.793 7.37637H26.4292V9.99099H31.0762L26.793 7.37637Z" fill="#E9D8A6"/>
<path d="M34.0055 9.99099H35.2199V7.37637H32.2878V8.94312L34.0055 9.99099Z" fill="#E9D8A6"/>
<path d="M32.2878 8.94312V9.99098H34.0055L32.2878 8.94312Z" fill="#E9D8A6"/>
<path d="M39.8669 9.99099H42.7962L38.513 7.37637H35.5837L39.8669 9.99099Z" fill="#E9D8A6"/>
<path d="M35.5838 7.37637H35.22V9.99099H39.8669L35.5838 7.37637Z" fill="#E9D8A6"/>
<path d="M17.6386 86.2304H14.7092V90.3784H17.6386V86.2304Z" fill="#9B2226"/>
<path d="M23.4973 86.2304H17.6387V90.3784H23.4973V86.2304Z" fill="#AE2012"/>
<path d="M26.4293 86.2304H23.5V90.3784H26.4293V86.2304Z" fill="#EE9B00"/>
<path d="M32.2878 86.2304H26.4292V90.3784H32.2878V86.2304Z" fill="#E9D8A6"/>
<path d="M35.2172 86.2304H32.2878V90.3784H35.2172V86.2304Z" fill="#E9D8A6"/>
<path d="M66.9226 86.2304H41.0786V90.3784H66.9226V86.2304Z" fill="#E9D8A6"/>
<path d="M2.98932 56.368H0.0600586V58.2095H2.98932V56.368Z" fill="#9B2226"/>
<path d="M8.85062 56.368H2.98926V58.2095H8.85062V56.368Z" fill="#AE2012"/>
<path d="M11.7772 56.368H8.8479V58.2095H11.7772V56.368Z" fill="#EE9B00"/>
<path d="M112.998 58.2095H115.928L112.908 56.368H109.979L112.998 58.2095Z" fill="#005F73"/>
<path d="M107.137 58.2095H112.998L109.979 56.368H104.12L107.137 58.2095Z" fill="#94D2BD"/>
<path d="M17.6414 56.368H11.78V58.2095H17.6414V56.368Z" fill="#E9D8A6"/>
<path d="M20.5679 56.368H17.6387V58.2095H20.5679V56.368Z" fill="#E9D8A6"/>
<path d="M104.208 58.2095H107.137L104.12 56.368H101.188L104.208 58.2095Z" fill="#E9D8A6"/>
<path d="M95.3296 56.368L98.3464 58.2095H104.208L101.188 56.368H95.3296Z" fill="#E9D8A6"/>
<path d="M95.417 58.2095H98.3463L95.3295 56.368H92.4001L95.417 58.2095Z" fill="#E9D8A6"/>
<path d="M20.5679 58.2095H95.417L92.4002 56.368H20.5679V58.2095Z" fill="#E9D8A6"/>
</svg>
