<svg width="99" height="53" viewBox="0 0 99 53" fill="none" xmlns="http://www.w3.org/2000/svg">
<path d="M8.569 29.416H7.49799V27.068H8.569V29.416Z" fill="#E31010"/>
<path d="M8.569 25.127H7.49799V20.385H8.569V25.127Z" fill="#E31010"/>
<path d="M8.569 32.071H7.49799V30.133H8.569V32.071Z" fill="#E31010"/>
<path d="M7.49799 4.17502V0L8.57001 0.696014V4.17502H7.49799Z" fill="#E31010"/>
<path d="M8.569 16.891H7.49799V13.555H8.569V16.891Z" fill="#E31010"/>
<path d="M8.569 19.918H7.49799V18.506H8.569V19.918Z" fill="#E31010"/>
<path d="M8.569 12.822H7.49799V11.597H8.569V12.822Z" fill="#E31010"/>
<path d="M8.569 48.19H7.49799V46.624H8.569V48.19Z" fill="#E31010"/>
<path d="M8.57001 51.383L7.49799 52.08V49.208H8.57001V51.383Z" fill="#E31010"/>
<path d="M8.569 43.519H7.49799V41.835H8.569V43.519Z" fill="#E31010"/>
<path d="M8.569 40.917H7.49799V34.092H8.569V40.917Z" fill="#E31010"/>
<path d="M8.569 10.269H7.49799V5.492H8.569V10.269Z" fill="#E31010"/>
<path d="M10.712 50.687L8.57001 52.08V51.383L10.712 49.991V50.687Z" fill="#E75CEE"/>
<path d="M8.57001 0.696014V0L10.712 1.39301V2.08899L8.57001 0.696014Z" fill="#E75CEE"/>
<path d="M10.712 29.416H8.57001V27.068H10.712V29.416Z" fill="#E75CEE"/>
<path d="M10.712 25.127H8.57001V20.385H10.712V25.127Z" fill="#E75CEE"/>
<path d="M10.712 49.208V49.991L8.57001 51.383V49.208H10.712Z" fill="#E75CEE"/>
<path d="M10.712 10.269H8.57001V5.492H10.712V10.269Z" fill="#E75CEE"/>
<path d="M10.712 19.918H8.57001V18.506H10.712V19.918Z" fill="#E75CEE"/>
<path d="M10.712 12.822H8.57001V11.597H10.712V12.822Z" fill="#E75CEE"/>
<path d="M10.712 16.891H8.57001V13.555H10.712V16.891Z" fill="#E75CEE"/>
<path d="M10.712 43.519H8.57001V41.835H10.712V43.519Z" fill="#E75CEE"/>
<path d="M10.712 32.071H8.57001V30.133H10.712V32.071Z" fill="#E75CEE"/>
<path d="M10.712 40.917H8.57001V34.092H10.712V40.917Z" fill="#E75CEE"/>
<path d="M10.712 48.19H8.57001V46.624H10.712V48.19Z" fill="#E75CEE"/>
<path d="M10.712 4.17502H8.57001V0.696014L10.712 2.08899V4.17502Z" fill="#E75CEE"/>
<path d="M11.783 51.383L10.712 52.08V50.687L11.783 49.991V51.383Z" fill="#FCFC53"/>
<path d="M10.712 1.39301V0L11.783 0.696014V2.08899L10.712 1.39301Z" fill="#FCFC53"/>
<path d="M11.783 49.294V49.991L10.712 50.687V49.991L11.783 49.294Z" fill="#FCFC53"/>
<path d="M11.783 2.785L10.712 2.08899V1.39301L11.783 2.08899V2.785Z" fill="#FCFC53"/>
<path d="M11.783 40.917H10.712V34.092H11.783V40.917Z" fill="#FCFC53"/>
<path d="M11.783 32.071H10.712V30.133H11.783V32.071Z" fill="#FCFC53"/>
<path d="M11.783 43.519H10.712V41.835H11.783V43.519Z" fill="#FCFC53"/>
<path d="M11.783 29.416H10.712V27.068H11.783V29.416Z" fill="#FCFC53"/>
<path d="M11.783 48.19H10.712V46.624H11.783V48.19Z" fill="#FCFC53"/>
<path d="M11.783 16.891H10.712V13.555H11.783V16.891Z" fill="#FCFC53"/>
<path d="M11.783 10.269H10.712V5.492H11.783V10.269Z" fill="#FCFC53"/>
<path d="M11.783 25.127H10.712V20.385H11.783V25.127Z" fill="#FCFC53"/>
<path d="M10.712 4.17502V2.08899L11.783 2.785V4.17502H10.712Z" fill="#FCFC53"/>
<path d="M11.783 49.294L10.712 49.991V49.208H11.783V49.294Z" fill="#FCFC53"/>
<path d="M11.783 12.822H10.712V11.597H11.783V12.822Z" fill="#FCFC53"/>
<path d="M11.783 19.918H10.712V18.506H11.783V19.918Z" fill="#FCFC53"/>
<path d="M29.686 41.835H30.757L28.166 43.519H27.095L29.686 41.835Z" fill="#195FF5"/>
<path d="M41.596 34.093H42.667L36.585 38.046H35.514L41.596 34.093Z" fill="#195FF5"/>
<path d="M22.319 46.624H23.39L20.981 48.19H19.91L22.319 46.624Z" fill="#195FF5"/>
<path d="M33.495 39.359H34.566L32.168 40.917H31.097L33.495 39.359Z" fill="#195FF5"/>
<path d="M47.687 30.133H48.758L45.777 32.071H44.706L47.687 30.133Z" fill="#195FF5"/>
<path d="M19.415 49.208L14.997 52.08V51.383L18.344 49.208H19.415Z" fill="#195FF5"/>
<path d="M52.402 27.068H53.473L49.862 29.416H48.791L52.402 27.068Z" fill="#195FF5"/>
<path d="M34.777 13.554H35.849L45.637 19.918H44.566L34.777 13.554Z" fill="#195FF5"/>
<path d="M22.375 5.492H23.446L30.796 10.269H29.724L22.375 5.492Z" fill="#195FF5"/>
<path d="M52.58 25.127L45.285 20.385H46.356L53.651 25.127H52.58Z" fill="#195FF5"/>
<path d="M14.997 0.696014V0L21.42 4.17502H20.348L14.997 0.696014Z" fill="#195FF5"/>
<path d="M31.766 11.596H32.837L34.722 12.822H33.65L31.766 11.596Z" fill="#195FF5"/>
<path d="M14.997 51.383L13.926 52.08V50.687L14.997 49.991V51.383Z" fill="#19F5EE"/>
<path d="M13.926 1.39301V0L14.997 0.696014V2.08899L13.926 1.39301Z" fill="#19F5EE"/>
<path d="M32.635 13.554H34.777L44.566 19.918H42.424L32.635 13.554Z" fill="#19F5EE"/>
<path d="M29.623 11.596H31.766L33.65 12.822H31.508L29.623 11.596Z" fill="#19F5EE"/>
<path d="M20.233 5.492H22.375L29.724 10.269H27.582L20.233 5.492Z" fill="#19F5EE"/>
<path d="M27.543 41.835H29.686L27.095 43.519H24.952L27.543 41.835Z" fill="#19F5EE"/>
<path d="M31.352 39.359H33.495L31.097 40.917H28.955L31.352 39.359Z" fill="#19F5EE"/>
<path d="M20.176 46.624H22.319L19.91 48.19H17.767L20.176 46.624Z" fill="#19F5EE"/>
<path d="M39.453 34.093H41.596L35.514 38.046H33.371L39.453 34.093Z" fill="#19F5EE"/>
<path d="M50.259 27.068H52.402L48.791 29.416H46.648L50.259 27.068Z" fill="#19F5EE"/>
<path d="M18.206 4.17502L14.997 2.08899V0.696014L20.348 4.17502H18.206Z" fill="#19F5EE"/>
<path d="M45.544 30.133H47.687L44.706 32.071H42.563L45.544 30.133Z" fill="#19F5EE"/>
<path d="M16.201 49.208H18.344L14.997 51.383V49.991L16.201 49.208Z" fill="#19F5EE"/>
<path d="M43.142 20.385H45.285L52.58 25.127H50.437L43.142 20.385Z" fill="#19F5EE"/>
<path d="M13.926 50.687L11.783 52.08V51.383L13.926 49.991V50.687Z" fill="#FCFCFC"/>
<path d="M11.783 0.696014V0L13.926 1.39301V2.08899L11.783 0.696014Z" fill="#FCFCFC"/>
<path d="M13.926 3.48199L11.783 2.08899V0.696014L13.926 2.08899V3.48199Z" fill="#FCFCFC"/>
<path d="M12.988 49.208H13.926V49.991L11.783 51.383V49.991L12.988 49.208Z" fill="#FCFCFC"/>
<path d="M13.921 4.17502L11.783 2.785V2.08899L13.926 3.48199V4.17502H13.921Z" fill="#FCFCFC"/>
<path d="M12.988 49.208L11.783 49.991V49.294L11.916 49.208H12.988Z" fill="#FCFCFC"/>
<path d="M13.926 48.19H13.482L13.926 47.901V48.19Z" fill="#FCFCFC"/>
<path d="M13.926 40.917H11.783V34.092H13.926V40.917Z" fill="#FCFCFC"/>
<path d="M13.926 32.071H11.783V30.133H13.926V32.071Z" fill="#FCFCFC"/>
<path d="M13.926 29.416H11.783V27.068H13.926V29.416Z" fill="#FCFCFC"/>
<path d="M9.77399 49.208L9.64099 49.294V49.208H9.77399Z" fill="#FCFCFC"/>
<path d="M13.926 19.918H11.783V18.506H13.926V19.918Z" fill="#FCFCFC"/>
<path d="M13.926 43.519H11.783V41.835H13.926V43.519Z" fill="#FCFCFC"/>
<path d="M13.926 46.624V47.901L13.482 48.19H11.783V46.624H13.926Z" fill="#FCFCFC"/>
<path d="M13.926 16.891H11.783V13.555H13.926V16.891Z" fill="#FCFCFC"/>
<path d="M11.783 4.17502V2.785L13.921 4.17502H11.783Z" fill="#FCFCFC"/>
<path d="M13.926 10.269H11.783V5.492H13.926V10.269Z" fill="#FCFCFC"/>
<path d="M13.926 25.127H11.783V20.385H13.926V25.127Z" fill="#FCFCFC"/>
<path d="M13.926 12.822H11.783V11.597H13.926V12.822Z" fill="#FCFCFC"/>
<path d="M14.997 49.294V49.991L13.926 50.687V49.991L14.997 49.294Z" fill="#FCFCFC"/>
<path d="M14.997 2.785L13.926 2.08899V1.39301L14.997 2.08899V2.785Z" fill="#FCFCFC"/>
<path d="M14.992 4.17502L13.926 3.48199V2.08899L14.997 2.785V4.17502H14.992Z" fill="#FCFCFC"/>
<path d="M14.997 48.19H14.554L14.997 47.901V48.19Z" fill="#FCFCFC"/>
<path d="M14.997 49.294L13.926 49.991V49.208H14.997V49.294Z" fill="#FCFCFC"/>
<path d="M14.997 47.205V47.901L14.554 48.19H13.926V47.901L14.997 47.205Z" fill="#FCFCFC"/>
<path d="M13.926 4.17502V3.48199L14.992 4.17502H13.926Z" fill="#FCFCFC"/>
<path d="M14.997 32.071H13.926V30.133H14.997V32.071Z" fill="#FCFCFC"/>
<path d="M14.997 25.127H13.926V20.385H14.997V25.127Z" fill="#FCFCFC"/>
<path d="M14.997 43.519H13.926V41.835H14.997V43.519Z" fill="#FCFCFC"/>
<path d="M14.997 40.917H13.926V34.092H14.997V40.917Z" fill="#FCFCFC"/>
<path d="M14.997 29.416H13.926V27.068H14.997V29.416Z" fill="#FCFCFC"/>
<path d="M14.997 47.205L13.926 47.901V46.624H14.997V47.205Z" fill="#FCFCFC"/>
<path d="M14.997 19.918H13.926V18.506H14.997V19.918Z" fill="#FCFCFC"/>
<path d="M14.997 10.269H13.926V5.492H14.997V10.269Z" fill="#FCFCFC"/>
<path d="M14.997 12.822H13.926V11.597H14.997V12.822Z" fill="#FCFCFC"/>
<path d="M14.997 16.891H13.926V13.555H14.997V16.891Z" fill="#FCFCFC"/>
<path d="M14.997 2.785V2.08899L18.206 4.17502H17.135L14.997 2.785Z" fill="#FCFCFC"/>
<path d="M19.161 5.492H20.233L27.582 10.269H26.51L19.161 5.492Z" fill="#FCFCFC"/>
<path d="M28.552 11.596H29.623L31.508 12.822H30.437L28.552 11.596Z" fill="#FCFCFC"/>
<path d="M45.577 29.416L49.188 27.068H50.259L46.648 29.416H45.577Z" fill="#FCFCFC"/>
<path d="M42.071 20.385H43.142L50.437 25.127H49.366L42.071 20.385Z" fill="#FCFCFC"/>
<path d="M31.563 13.554H32.635L42.424 19.918H41.352L31.563 13.554Z" fill="#FCFCFC"/>
<path d="M20.176 46.624L17.767 48.19H16.696L19.105 46.624H20.176Z" fill="#FCFCFC"/>
<path d="M26.472 41.835H27.543L24.952 43.519H23.881L26.472 41.835Z" fill="#FCFCFC"/>
<path d="M30.281 39.359H31.352L28.955 40.917H27.883L30.281 39.359Z" fill="#FCFCFC"/>
<path d="M44.473 30.133H45.544L42.563 32.071H41.492L44.473 30.133Z" fill="#FCFCFC"/>
<path d="M38.382 34.093H39.453L33.371 38.046H32.3L38.382 34.093Z" fill="#FCFCFC"/>
<path d="M16.201 49.208L14.997 49.991V49.294L15.13 49.208H16.201Z" fill="#FCFCFC"/>
<path d="M42.331 30.133H44.473L41.492 32.071H39.349L42.331 30.133Z" fill="#FCFCFC"/>
<path d="M24.33 41.835H26.472L23.881 43.519H21.738L24.33 41.835Z" fill="#FCFCFC"/>
<path d="M39.929 20.385H42.071L49.366 25.127H47.223L39.929 20.385Z" fill="#FCFCFC"/>
<path d="M24.368 10.269L17.019 5.492H19.161L26.51 10.269H24.368Z" fill="#FCFCFC"/>
<path d="M12.988 49.208L12.855 49.294V49.208H12.988Z" fill="#FCFCFC"/>
<path d="M14.997 4.17502V2.785L17.135 4.17502H14.997Z" fill="#FCFCFC"/>
<path d="M26.409 11.596H28.552L30.437 12.822H28.294L26.409 11.596Z" fill="#FCFCFC"/>
<path d="M29.421 13.554H31.563L41.352 19.918H39.21L29.421 13.554Z" fill="#FCFCFC"/>
<path d="M47.046 27.068H49.188L45.577 29.416H43.434L47.046 27.068Z" fill="#FCFCFC"/>
<path d="M36.24 34.093H38.382L32.3 38.046H30.158L36.24 34.093Z" fill="#FCFCFC"/>
<path d="M16.962 46.624H19.105L16.696 48.19H14.997V47.901L16.962 46.624Z" fill="#FCFCFC"/>
<path d="M28.139 39.359H30.281L27.883 40.917H25.741L28.139 39.359Z" fill="#FCFCFC"/>
<path d="M38.278 32.071L41.259 30.133H42.331L39.349 32.071H38.278Z" fill="#FCFCFC"/>
<path d="M28.35 13.554H29.421L39.21 19.918H38.139L28.35 13.554Z" fill="#FCFCFC"/>
<path d="M16.962 46.624L14.997 47.901V47.205L15.891 46.624H16.962Z" fill="#FCFCFC"/>
<path d="M38.857 20.385H39.929L47.223 25.127H46.152L38.857 20.385Z" fill="#FCFCFC"/>
<path d="M24.33 41.835L21.738 43.519H20.667L23.258 41.835H24.33Z" fill="#FCFCFC"/>
<path d="M25.338 11.596H26.409L28.294 12.822H27.223L25.338 11.596Z" fill="#FCFCFC"/>
<path d="M35.168 34.093H36.24L30.158 38.046H29.086L35.168 34.093Z" fill="#FCFCFC"/>
<path d="M27.067 39.359H28.139L25.741 40.917H24.67L27.067 39.359Z" fill="#FCFCFC"/>
<path d="M45.974 27.068H47.046L43.434 29.416H42.363L45.974 27.068Z" fill="#FCFCFC"/>
<path d="M15.947 5.492H17.019L24.368 10.269H23.297L15.947 5.492Z" fill="#FCFCFC"/>
<path d="M14.997 30.133H41.259L38.278 32.071H14.997V30.133Z" fill="#FCFCFC"/>
<path d="M14.997 27.068H45.974L42.363 29.416H14.997V27.068Z" fill="#FCFCFC"/>
<path d="M14.997 12.822V11.596H25.338L27.223 12.822H14.997Z" fill="#FCFCFC"/>
<path d="M14.997 5.492H15.947L23.297 10.269H14.997V5.492Z" fill="#FCFCFC"/>
<path d="M29.086 38.046H19.235V39.359H27.067L24.67 40.917H14.997V34.093H35.168L29.086 38.046Z" fill="#FCFCFC"/>
<path d="M15.891 46.624L14.997 47.205V46.624H15.891Z" fill="#FCFCFC"/>
<path d="M14.997 20.385H38.857L46.152 25.127H14.997V20.385Z" fill="#FCFCFC"/>
<path d="M23.258 41.835L20.667 43.519H14.997V41.835H23.258Z" fill="#FCFCFC"/>
<path d="M14.997 18.506H24.446V16.891H14.997V13.554H28.35L38.139 19.918H14.997V18.506Z" fill="#FCFCFC"/>
<path d="M10.712 46.624H9.64099V43.519H10.712V46.624Z" fill="#E31010"/>
<path d="M12.855 46.624H10.712V43.519H12.855V46.624Z" fill="#E75CEE"/>
<path d="M13.926 46.624H12.855V43.519H13.926V46.624Z" fill="#FCFC53"/>
<path d="M29.237 43.519H30.309L25.533 46.624H24.461L29.237 43.519Z" fill="#195FF5"/>
<path d="M27.095 43.519H29.237L24.461 46.624H22.319L27.095 43.519Z" fill="#19F5EE"/>
<path d="M16.069 46.624H13.926V43.519H16.069V46.624Z" fill="#FCFCFC"/>
<path d="M17.14 46.624H16.069V43.519H17.14V46.624Z" fill="#FCFCFC"/>
<path d="M26.024 43.519H27.095L22.319 46.624H21.248L26.024 43.519Z" fill="#FCFCFC"/>
<path d="M26.024 43.519L21.248 46.624H19.105L23.881 43.519H26.024Z" fill="#FCFCFC"/>
<path d="M22.81 43.519H23.881L19.105 46.624H18.034L22.81 43.519Z" fill="#FCFCFC"/>
<path d="M18.034 46.624H17.14V43.519H22.81L18.034 46.624Z" fill="#FCFCFC"/>
<path d="M3.21298 41.835H2.142V40.917H3.21298V41.835Z" fill="#E31010"/>
<path d="M5.35498 41.835H3.21298V40.917H5.35498V41.835Z" fill="#E75CEE"/>
<path d="M6.427 41.835H5.35599V40.917H6.427V41.835Z" fill="#FCFC53"/>
<path d="M25.741 40.917H26.812L25.401 41.835H24.33L25.741 40.917Z" fill="#195FF5"/>
<path d="M23.598 40.917H25.741L24.33 41.835H22.187L23.598 40.917Z" fill="#19F5EE"/>
<path d="M8.569 41.835H6.427V40.917H8.569V41.835Z" fill="#FCFCFC"/>
<path d="M9.64099 41.835H8.57001V40.917H9.64099V41.835Z" fill="#FCFCFC"/>
<path d="M22.527 40.917H23.598L22.187 41.835H21.116L22.527 40.917Z" fill="#FCFCFC"/>
<path d="M20.385 40.917H22.527L21.116 41.835H18.973L20.385 40.917Z" fill="#FCFCFC"/>
<path d="M19.313 40.917H20.385L18.973 41.835H17.902L19.313 40.917Z" fill="#FCFCFC"/>
<path d="M17.902 41.835H9.64099V40.917H19.313L17.902 41.835Z" fill="#FCFCFC"/>
<path d="M10.712 34.093H9.64099V32.071H10.712V34.093Z" fill="#E31010"/>
<path d="M12.855 34.093H10.712V32.071H12.855V34.093Z" fill="#E75CEE"/>
<path d="M13.926 34.093H12.855V32.071H13.926V34.093Z" fill="#FCFC53"/>
<path d="M46.848 32.071H47.92L44.81 34.093H43.738L46.848 32.071Z" fill="#195FF5"/>
<path d="M44.706 32.071H46.848L43.738 34.093H41.596L44.706 32.071Z" fill="#19F5EE"/>
<path d="M16.069 34.093H13.926V32.071H16.069V34.093Z" fill="#FCFCFC"/>
<path d="M17.14 34.093H16.069V32.071H17.14V34.093Z" fill="#FCFCFC"/>
<path d="M43.634 32.071H44.706L41.596 34.093H40.525L43.634 32.071Z" fill="#FCFCFC"/>
<path d="M41.492 32.071H43.634L40.525 34.093H38.382L41.492 32.071Z" fill="#FCFCFC"/>
<path d="M40.421 32.071H41.492L38.382 34.093H37.311L40.421 32.071Z" fill="#FCFCFC"/>
<path d="M17.14 34.093V32.071H40.421L37.311 34.093H17.14Z" fill="#FCFCFC"/>
<path d="M11.783 27.068H10.712V25.127H11.783V27.068Z" fill="#E31010"/>
<path d="M13.926 27.068H11.783V25.127H13.926V27.068Z" fill="#E75CEE"/>
<path d="M14.997 27.068H13.926V25.127H14.997V27.068Z" fill="#FCFC53"/>
<path d="M57.198 26.04L55.794 25.127H56.865L58.269 26.04L56.687 27.068H55.616L57.198 26.04Z" fill="#195FF5"/>
<path d="M55.616 27.068H53.473L55.055 26.04L53.651 25.127H55.794L57.198 26.04L55.616 27.068Z" fill="#19F5EE"/>
<path d="M17.139 27.068H14.997V25.127H17.139V27.068Z" fill="#FCFCFC"/>
<path d="M18.211 27.068H17.14V25.127H18.211V27.068Z" fill="#FCFCFC"/>
<path d="M53.984 26.04L52.58 25.127H53.651L55.055 26.04L53.473 27.068H52.402L53.984 26.04Z" fill="#FCFCFC"/>
<path d="M51.841 26.04L50.437 25.127H52.58L53.984 26.04L52.402 27.068H50.259L51.841 26.04Z" fill="#FCFCFC"/>
<path d="M50.77 26.04L49.366 25.127H50.437L51.841 26.04L50.259 27.068H49.188L50.77 26.04Z" fill="#FCFCFC"/>
<path d="M18.211 25.127H49.366L50.77 26.04L49.188 27.068H18.211V25.127Z" fill="#FCFCFC"/>
<path d="M5.35599 20.385H4.285V19.918H5.35599V20.385Z" fill="#E31010"/>
<path d="M7.49799 20.385H5.35599V19.918H7.49799V20.385Z" fill="#E75CEE"/>
<path d="M8.569 20.385H7.49799V19.918H8.569V20.385Z" fill="#FCFC53"/>
<path d="M41.352 19.918H42.424L43.142 20.385H42.071L41.352 19.918Z" fill="#195FF5"/>
<path d="M39.21 19.918H41.352L42.071 20.385H39.929L39.21 19.918Z" fill="#19F5EE"/>
<path d="M10.712 20.385H8.57001V19.918H10.712V20.385Z" fill="#FCFCFC"/>
<path d="M11.783 20.385H10.712V19.918H11.783V20.385Z" fill="#FCFCFC"/>
<path d="M38.139 19.918H39.21L39.929 20.385H38.857L38.139 19.918Z" fill="#FCFCFC"/>
<path d="M35.996 19.918H38.139L38.857 20.385H36.715L35.996 19.918Z" fill="#FCFCFC"/>
<path d="M34.925 19.918H35.996L36.715 20.385H35.643L34.925 19.918Z" fill="#FCFCFC"/>
<path d="M11.783 19.918H34.925L35.643 20.385H11.783V19.918Z" fill="#FCFCFC"/>
<path d="M10.712 11.596H9.64099V10.269H10.712V11.596Z" fill="#E31010"/>
<path d="M12.855 11.596H10.712V10.269H12.855V11.596Z" fill="#E75CEE"/>
<path d="M13.926 11.596H12.855V10.269H13.926V11.596Z" fill="#FCFC53"/>
<path d="M31.867 10.269H32.938L34.979 11.596H33.908L31.867 10.269Z" fill="#195FF5"/>
<path d="M29.724 10.269H31.867L33.908 11.596H31.766L29.724 10.269Z" fill="#19F5EE"/>
<path d="M16.069 11.596H13.926V10.269H16.069V11.596Z" fill="#FCFCFC"/>
<path d="M17.14 11.596H16.069V10.269H17.14V11.596Z" fill="#FCFCFC"/>
<path d="M28.653 10.269H29.724L31.766 11.596H30.694L28.653 10.269Z" fill="#FCFCFC"/>
<path d="M26.51 10.269H28.653L30.694 11.596H28.552L26.51 10.269Z" fill="#FCFCFC"/>
<path d="M27.481 11.596L25.439 10.269H26.51L28.552 11.596H27.481Z" fill="#FCFCFC"/>
<path d="M17.14 10.269H25.439L27.481 11.596H17.14V10.269Z" fill="#FCFCFC"/>
<path d="M17.14 13.554H16.069V12.821H17.14V13.554Z" fill="#E31010"/>
<path d="M19.283 13.554H17.14V12.821H19.283V13.554Z" fill="#E75CEE"/>
<path d="M20.353 13.554H19.282V12.821H20.353V13.554Z" fill="#FCFC53"/>
<path d="M42.22 12.822H43.292L44.419 13.554H43.347L42.22 12.822Z" fill="#195FF5"/>
<path d="M40.078 12.822H42.22L43.347 13.554H41.205L40.078 12.822Z" fill="#19F5EE"/>
<path d="M22.497 13.554H20.354V12.821H22.497V13.554Z" fill="#FCFCFC"/>
<path d="M23.567 13.554H22.496V12.821H23.567V13.554Z" fill="#FCFCFC"/>
<path d="M39.007 12.822H40.078L41.205 13.554H40.134L39.007 12.822Z" fill="#FCFCFC"/>
<path d="M36.864 12.822H39.007L40.134 13.554H37.991L36.864 12.822Z" fill="#FCFCFC"/>
<path d="M35.793 12.822H36.864L37.991 13.554H36.92L35.793 12.822Z" fill="#FCFCFC"/>
<path d="M23.567 12.822H35.793L36.92 13.554H23.567V12.822Z" fill="#FCFCFC"/>
<path d="M6.427 5.492H5.35599V4.17502H6.427V5.492Z" fill="#E31010"/>
<path d="M8.569 5.492H6.427V4.17502H8.569V5.492Z" fill="#E75CEE"/>
<path d="M9.64099 5.492H8.57001V4.17502H9.64099V5.492Z" fill="#FCFC53"/>
<path d="M18.206 4.17502H19.277L21.304 5.492H20.233L18.206 4.17502Z" fill="#195FF5"/>
<path d="M16.063 4.17502H18.206L20.233 5.492H18.09L16.063 4.17502Z" fill="#19F5EE"/>
<path d="M13.921 4.17502H13.926V4.17801L13.921 4.17502Z" fill="#FCFCFC"/>
<path d="M11.783 5.492H9.64099V4.17502H11.778L11.783 4.17801V5.492Z" fill="#FCFCFC"/>
<path d="M14.992 4.17502H14.997V4.17801L14.992 4.17502Z" fill="#FCFCFC"/>
<path d="M12.855 4.87399L11.783 4.17801V4.17502H12.85L12.855 4.17801V4.87399Z" fill="#FCFCFC"/>
<path d="M11.783 5.492V4.17801L12.855 4.87399V5.492H11.783Z" fill="#FCFCFC"/>
<path d="M17.019 5.492L14.992 4.17502H16.063L18.09 5.492H17.019Z" fill="#FCFCFC"/>
<path d="M12.855 4.17801V4.17502H14.992L17.019 5.492H14.876L12.855 4.17801Z" fill="#FCFCFC"/>
<path d="M12.855 4.87399V4.17801L14.876 5.492H13.805L12.855 4.87399Z" fill="#FCFCFC"/>
<path d="M12.855 5.492V4.87399L13.805 5.492H12.855Z" fill="#FCFCFC"/>
<path d="M39.799 38.046H40.87L38.851 39.359H37.78L39.799 38.046Z" fill="#195FF5"/>
<path d="M37.656 38.046H39.799L37.78 39.359H35.637L37.656 38.046Z" fill="#19F5EE"/>
<path d="M36.585 38.046H37.656L35.637 39.359H34.566L36.585 38.046Z" fill="#FCFCFC"/>
<path d="M34.443 38.046H36.585L34.566 39.359H32.424L34.443 38.046Z" fill="#FCFCFC"/>
<path d="M33.371 38.046H34.443L32.424 39.359H31.352L33.371 38.046Z" fill="#FCFCFC"/>
<path d="M19.235 38.046H29.086L27.067 39.359H19.235V38.046Z" fill="#FCFCFC"/>
<path d="M6.427 49.208H5.35599V48.19H6.427V49.208Z" fill="#E31010"/>
<path d="M8.569 49.208H6.427V48.19H8.569V49.208Z" fill="#E75CEE"/>
<path d="M9.64099 49.208H8.57001V48.19H9.64099V49.208Z" fill="#FCFC53"/>
<path d="M17.767 48.19H18.839L17.273 49.208H16.201L17.767 48.19Z" fill="#195FF5"/>
<path d="M17.767 48.19L16.201 49.208H14.059L15.625 48.19H17.767Z" fill="#19F5EE"/>
<path d="M11.783 49.208H10.845L11.783 48.598V49.208Z" fill="#FCFCFC"/>
<path d="M11.34 48.19H11.783V48.598L10.845 49.208H9.77399L11.34 48.19Z" fill="#FCFCFC"/>
<path d="M9.77399 49.208H9.64099V48.19H11.34L9.77399 49.208Z" fill="#FCFCFC"/>
<path d="M12.411 48.19H12.855V49.208H11.783V48.598L12.411 48.19Z" fill="#FCFCFC"/>
<path d="M11.783 48.598V48.19H12.411L11.783 48.598Z" fill="#FCFCFC"/>
<path d="M14.554 48.19H15.625L14.059 49.208H12.988L14.554 48.19Z" fill="#FCFCFC"/>
<path d="M12.988 49.208H12.855V48.19H14.554L12.988 49.208Z" fill="#FCFCFC"/>
<path d="M6.427 18.506H5.35599V16.891H6.427V18.506Z" fill="#E31010"/>
<path d="M8.569 18.506H6.427V16.891H8.569V18.506Z" fill="#E75CEE"/>
<path d="M9.64099 18.506H8.57001V16.891H9.64099V18.506Z" fill="#FCFC53"/>
<path d="M11.783 18.506H9.64099V16.891H11.783V18.506Z" fill="#FCFCFC"/>
<path d="M12.854 18.506H11.783V16.891H12.854V18.506Z" fill="#FCFCFC"/>
<path d="M24.446 18.506H14.997V16.891H24.446V18.506Z" fill="#FCFCFC"/>
<path d="M1.07098 30.133H0V29.416H1.07098V30.133Z" fill="#E31010"/>
<path d="M3.21399 30.133H1.07098V29.416H3.21399V30.133Z" fill="#E75CEE"/>
<path d="M4.284 30.133H3.21298V29.416H4.284V30.133Z" fill="#FCFC53"/>
<path d="M41.292 29.416H42.363L41.259 30.133H40.188L41.292 29.416Z" fill="#195FF5"/>
<path d="M39.149 29.416H41.292L40.188 30.133H38.046L39.149 29.416Z" fill="#19F5EE"/>
<path d="M6.42801 30.133H4.285V29.416H6.42801V30.133Z" fill="#FCFCFC"/>
<path d="M7.49799 30.133H6.427V29.416H7.49799V30.133Z" fill="#FCFCFC"/>
<path d="M38.078 29.416H39.149L38.046 30.133H36.974L38.078 29.416Z" fill="#FCFCFC"/>
<path d="M34.832 30.133L35.935 29.416H38.078L36.974 30.133H34.832Z" fill="#FCFCFC"/>
<path d="M34.864 29.416H35.935L34.832 30.133H33.761L34.864 29.416Z" fill="#FCFCFC"/>
<path d="M7.49799 29.416H34.864L33.761 30.133H7.49799V29.416Z" fill="#FCFCFC"/>
<path d="M48.569 29.416H47.498V27.068H48.569V29.416Z" fill="#E31010"/>
<path d="M48.569 25.127H47.498V20.385H48.569V25.127Z" fill="#E31010"/>
<path d="M48.569 32.071H47.498V30.133H48.569V32.071Z" fill="#E31010"/>
<path d="M47.498 4.17502V0L48.57 0.696014V4.17502H47.498Z" fill="#E31010"/>
<path d="M48.569 16.891H47.498V13.555H48.569V16.891Z" fill="#E31010"/>
<path d="M48.569 19.918H47.498V18.506H48.569V19.918Z" fill="#E31010"/>
<path d="M48.569 12.822H47.498V11.597H48.569V12.822Z" fill="#E31010"/>
<path d="M48.569 48.19H47.498V46.624H48.569V48.19Z" fill="#E31010"/>
<path d="M48.57 51.383L47.498 52.08V49.208H48.57V51.383Z" fill="#E31010"/>
<path d="M48.569 43.519H47.498V41.835H48.569V43.519Z" fill="#E31010"/>
<path d="M48.569 40.917H47.498V34.092H48.569V40.917Z" fill="#E31010"/>
<path d="M48.569 10.269H47.498V5.492H48.569V10.269Z" fill="#E31010"/>
<path d="M50.712 50.687L48.57 52.08V51.383L50.712 49.991V50.687Z" fill="#E75CEE"/>
<path d="M48.57 0.696014V0L50.712 1.39301V2.08899L48.57 0.696014Z" fill="#E75CEE"/>
<path d="M50.712 29.416H48.57V27.068H50.712V29.416Z" fill="#E75CEE"/>
<path d="M50.712 25.127H48.57V20.385H50.712V25.127Z" fill="#E75CEE"/>
<path d="M50.712 49.208V49.991L48.57 51.383V49.208H50.712Z" fill="#E75CEE"/>
<path d="M50.712 10.269H48.57V5.492H50.712V10.269Z" fill="#E75CEE"/>
<path d="M50.712 19.918H48.57V18.506H50.712V19.918Z" fill="#E75CEE"/>
<path d="M50.712 12.822H48.57V11.597H50.712V12.822Z" fill="#E75CEE"/>
<path d="M50.712 16.891H48.57V13.555H50.712V16.891Z" fill="#E75CEE"/>
<path d="M50.712 43.519H48.57V41.835H50.712V43.519Z" fill="#E75CEE"/>
<path d="M50.712 32.071H48.57V30.133H50.712V32.071Z" fill="#E75CEE"/>
<path d="M50.712 40.917H48.57V34.092H50.712V40.917Z" fill="#E75CEE"/>
<path d="M50.712 48.19H48.57V46.624H50.712V48.19Z" fill="#E75CEE"/>
<path d="M50.712 4.17502H48.57V0.696014L50.712 2.08899V4.17502Z" fill="#E75CEE"/>
<path d="M51.783 51.383L50.712 52.08V50.687L51.783 49.991V51.383Z" fill="#FCFC53"/>
<path d="M50.712 1.39301V0L51.783 0.696014V2.08899L50.712 1.39301Z" fill="#FCFC53"/>
<path d="M51.783 49.294V49.991L50.712 50.687V49.991L51.783 49.294Z" fill="#FCFC53"/>
<path d="M51.783 2.785L50.712 2.08899V1.39301L51.783 2.08899V2.785Z" fill="#FCFC53"/>
<path d="M51.783 40.917H50.712V34.092H51.783V40.917Z" fill="#FCFC53"/>
<path d="M51.783 32.071H50.712V30.133H51.783V32.071Z" fill="#FCFC53"/>
<path d="M51.783 43.519H50.712V41.835H51.783V43.519Z" fill="#FCFC53"/>
<path d="M51.783 29.416H50.712V27.068H51.783V29.416Z" fill="#FCFC53"/>
<path d="M51.783 48.19H50.712V46.624H51.783V48.19Z" fill="#FCFC53"/>
<path d="M51.783 16.891H50.712V13.555H51.783V16.891Z" fill="#FCFC53"/>
<path d="M51.783 10.269H50.712V5.492H51.783V10.269Z" fill="#FCFC53"/>
<path d="M51.783 25.127H50.712V20.385H51.783V25.127Z" fill="#FCFC53"/>
<path d="M50.712 4.17502V2.08899L51.783 2.785V4.17502H50.712Z" fill="#FCFC53"/>
<path d="M51.783 49.294L50.712 49.991V49.208H51.783V49.294Z" fill="#FCFC53"/>
<path d="M51.783 12.822H50.712V11.597H51.783V12.822Z" fill="#FCFC53"/>
<path d="M51.783 19.918H50.712V18.506H51.783V19.918Z" fill="#FCFC53"/>
<path d="M69.686 41.835H70.757L68.166 43.519H67.095L69.686 41.835Z" fill="#195FF5"/>
<path d="M81.596 34.093H82.667L76.585 38.046H75.514L81.596 34.093Z" fill="#195FF5"/>
<path d="M62.319 46.624H63.39L60.981 48.19H59.91L62.319 46.624Z" fill="#195FF5"/>
<path d="M73.495 39.359H74.566L72.168 40.917H71.097L73.495 39.359Z" fill="#195FF5"/>
<path d="M87.687 30.133H88.758L85.777 32.071H84.706L87.687 30.133Z" fill="#195FF5"/>
<path d="M59.415 49.208L54.997 52.08V51.383L58.344 49.208H59.415Z" fill="#195FF5"/>
<path d="M92.402 27.068H93.473L89.862 29.416H88.791L92.402 27.068Z" fill="#195FF5"/>
<path d="M74.777 13.554H75.849L85.637 19.918H84.566L74.777 13.554Z" fill="#195FF5"/>
<path d="M62.375 5.492H63.446L70.796 10.269H69.724L62.375 5.492Z" fill="#195FF5"/>
<path d="M92.58 25.127L85.285 20.385H86.356L93.651 25.127H92.58Z" fill="#195FF5"/>
<path d="M54.997 0.696014V0L61.42 4.17502H60.348L54.997 0.696014Z" fill="#195FF5"/>
<path d="M71.766 11.596H72.837L74.722 12.822H73.65L71.766 11.596Z" fill="#195FF5"/>
<path d="M54.997 51.383L53.926 52.08V50.687L54.997 49.991V51.383Z" fill="#19F5EE"/>
<path d="M53.926 1.39301V0L54.997 0.696014V2.08899L53.926 1.39301Z" fill="#19F5EE"/>
<path d="M72.635 13.554H74.777L84.566 19.918H82.424L72.635 13.554Z" fill="#19F5EE"/>
<path d="M69.623 11.596H71.766L73.65 12.822H71.508L69.623 11.596Z" fill="#19F5EE"/>
<path d="M60.233 5.492H62.375L69.724 10.269H67.582L60.233 5.492Z" fill="#19F5EE"/>
<path d="M67.543 41.835H69.686L67.095 43.519H64.952L67.543 41.835Z" fill="#19F5EE"/>
<path d="M71.352 39.359H73.495L71.097 40.917H68.955L71.352 39.359Z" fill="#19F5EE"/>
<path d="M60.176 46.624H62.319L59.91 48.19H57.767L60.176 46.624Z" fill="#19F5EE"/>
<path d="M79.453 34.093H81.596L75.514 38.046H73.371L79.453 34.093Z" fill="#19F5EE"/>
<path d="M90.259 27.068H92.402L88.791 29.416H86.648L90.259 27.068Z" fill="#19F5EE"/>
<path d="M58.206 4.17502L54.997 2.08899V0.696014L60.348 4.17502H58.206Z" fill="#19F5EE"/>
<path d="M85.544 30.133H87.687L84.706 32.071H82.563L85.544 30.133Z" fill="#19F5EE"/>
<path d="M56.201 49.208H58.344L54.997 51.383V49.991L56.201 49.208Z" fill="#19F5EE"/>
<path d="M83.142 20.385H85.285L92.58 25.127H90.437L83.142 20.385Z" fill="#19F5EE"/>
<path d="M53.926 50.687L51.783 52.08V51.383L53.926 49.991V50.687Z" fill="#FCFCFC"/>
<path d="M51.783 0.696014V0L53.926 1.39301V2.08899L51.783 0.696014Z" fill="#FCFCFC"/>
<path d="M53.926 3.48199L51.783 2.08899V0.696014L53.926 2.08899V3.48199Z" fill="#FCFCFC"/>
<path d="M52.988 49.208H53.926V49.991L51.783 51.383V49.991L52.988 49.208Z" fill="#FCFCFC"/>
<path d="M53.921 4.17502L51.783 2.785V2.08899L53.926 3.48199V4.17502H53.921Z" fill="#FCFCFC"/>
<path d="M52.988 49.208L51.783 49.991V49.294L51.916 49.208H52.988Z" fill="#FCFCFC"/>
<path d="M53.926 48.19H53.482L53.926 47.901V48.19Z" fill="#FCFCFC"/>
<path d="M53.926 40.917H51.783V34.092H53.926V40.917Z" fill="#FCFCFC"/>
<path d="M53.926 32.071H51.783V30.133H53.926V32.071Z" fill="#FCFCFC"/>
<path d="M53.926 29.416H51.783V27.068H53.926V29.416Z" fill="#FCFCFC"/>
<path d="M49.774 49.208L49.641 49.294V49.208H49.774Z" fill="#FCFCFC"/>
<path d="M53.926 19.918H51.783V18.506H53.926V19.918Z" fill="#FCFCFC"/>
<path d="M53.926 43.519H51.783V41.835H53.926V43.519Z" fill="#FCFCFC"/>
<path d="M53.926 46.624V47.901L53.482 48.19H51.783V46.624H53.926Z" fill="#FCFCFC"/>
<path d="M53.926 16.891H51.783V13.555H53.926V16.891Z" fill="#FCFCFC"/>
<path d="M51.783 4.17502V2.785L53.921 4.17502H51.783Z" fill="#FCFCFC"/>
<path d="M53.926 10.269H51.783V5.492H53.926V10.269Z" fill="#FCFCFC"/>
<path d="M53.926 25.127H51.783V20.385H53.926V25.127Z" fill="#FCFCFC"/>
<path d="M53.926 12.822H51.783V11.597H53.926V12.822Z" fill="#FCFCFC"/>
<path d="M54.997 49.294V49.991L53.926 50.687V49.991L54.997 49.294Z" fill="#FCFCFC"/>
<path d="M54.997 2.785L53.926 2.08899V1.39301L54.997 2.08899V2.785Z" fill="#FCFCFC"/>
<path d="M54.992 4.17502L53.926 3.48199V2.08899L54.997 2.785V4.17502H54.992Z" fill="#FCFCFC"/>
<path d="M54.997 48.19H54.554L54.997 47.901V48.19Z" fill="#FCFCFC"/>
<path d="M54.997 49.294L53.926 49.991V49.208H54.997V49.294Z" fill="#FCFCFC"/>
<path d="M54.997 47.205V47.901L54.554 48.19H53.926V47.901L54.997 47.205Z" fill="#FCFCFC"/>
<path d="M53.926 4.17502V3.48199L54.992 4.17502H53.926Z" fill="#FCFCFC"/>
<path d="M54.997 32.071H53.926V30.133H54.997V32.071Z" fill="#FCFCFC"/>
<path d="M54.997 25.127H53.926V20.385H54.997V25.127Z" fill="#FCFCFC"/>
<path d="M54.997 43.519H53.926V41.835H54.997V43.519Z" fill="#FCFCFC"/>
<path d="M54.997 40.917H53.926V34.092H54.997V40.917Z" fill="#FCFCFC"/>
<path d="M54.997 29.416H53.926V27.068H54.997V29.416Z" fill="#FCFCFC"/>
<path d="M54.997 47.205L53.926 47.901V46.624H54.997V47.205Z" fill="#FCFCFC"/>
<path d="M54.997 19.918H53.926V18.506H54.997V19.918Z" fill="#FCFCFC"/>
<path d="M54.997 10.269H53.926V5.492H54.997V10.269Z" fill="#FCFCFC"/>
<path d="M54.997 12.822H53.926V11.597H54.997V12.822Z" fill="#FCFCFC"/>
<path d="M54.997 16.891H53.926V13.555H54.997V16.891Z" fill="#FCFCFC"/>
<path d="M54.997 2.785V2.08899L58.206 4.17502H57.135L54.997 2.785Z" fill="#FCFCFC"/>
<path d="M59.161 5.492H60.233L67.582 10.269H66.51L59.161 5.492Z" fill="#FCFCFC"/>
<path d="M68.552 11.596H69.623L71.508 12.822H70.437L68.552 11.596Z" fill="#FCFCFC"/>
<path d="M85.577 29.416L89.188 27.068H90.259L86.648 29.416H85.577Z" fill="#FCFCFC"/>
<path d="M82.071 20.385H83.142L90.437 25.127H89.366L82.071 20.385Z" fill="#FCFCFC"/>
<path d="M71.563 13.554H72.635L82.424 19.918H81.352L71.563 13.554Z" fill="#FCFCFC"/>
<path d="M60.176 46.624L57.767 48.19H56.696L59.105 46.624H60.176Z" fill="#FCFCFC"/>
<path d="M66.472 41.835H67.543L64.952 43.519H63.881L66.472 41.835Z" fill="#FCFCFC"/>
<path d="M70.281 39.359H71.352L68.955 40.917H67.883L70.281 39.359Z" fill="#FCFCFC"/>
<path d="M84.473 30.133H85.544L82.563 32.071H81.492L84.473 30.133Z" fill="#FCFCFC"/>
<path d="M78.382 34.093H79.453L73.371 38.046H72.3L78.382 34.093Z" fill="#FCFCFC"/>
<path d="M56.201 49.208L54.997 49.991V49.294L55.13 49.208H56.201Z" fill="#FCFCFC"/>
<path d="M82.331 30.133H84.473L81.492 32.071H79.349L82.331 30.133Z" fill="#FCFCFC"/>
<path d="M64.33 41.835H66.472L63.881 43.519H61.738L64.33 41.835Z" fill="#FCFCFC"/>
<path d="M79.929 20.385H82.071L89.366 25.127H87.223L79.929 20.385Z" fill="#FCFCFC"/>
<path d="M64.368 10.269L57.019 5.492H59.161L66.51 10.269H64.368Z" fill="#FCFCFC"/>
<path d="M52.988 49.208L52.855 49.294V49.208H52.988Z" fill="#FCFCFC"/>
<path d="M54.997 4.17502V2.785L57.135 4.17502H54.997Z" fill="#FCFCFC"/>
<path d="M66.409 11.596H68.552L70.437 12.822H68.294L66.409 11.596Z" fill="#FCFCFC"/>
<path d="M69.421 13.554H71.563L81.352 19.918H79.21L69.421 13.554Z" fill="#FCFCFC"/>
<path d="M87.046 27.068H89.188L85.577 29.416H83.434L87.046 27.068Z" fill="#FCFCFC"/>
<path d="M76.24 34.093H78.382L72.3 38.046H70.158L76.24 34.093Z" fill="#FCFCFC"/>
<path d="M56.962 46.624H59.105L56.696 48.19H54.997V47.901L56.962 46.624Z" fill="#FCFCFC"/>
<path d="M68.139 39.359H70.281L67.883 40.917H65.741L68.139 39.359Z" fill="#FCFCFC"/>
<path d="M78.278 32.071L81.259 30.133H82.331L79.349 32.071H78.278Z" fill="#FCFCFC"/>
<path d="M68.35 13.554H69.421L79.21 19.918H78.139L68.35 13.554Z" fill="#FCFCFC"/>
<path d="M56.962 46.624L54.997 47.901V47.205L55.891 46.624H56.962Z" fill="#FCFCFC"/>
<path d="M78.857 20.385H79.929L87.223 25.127H86.152L78.857 20.385Z" fill="#FCFCFC"/>
<path d="M64.33 41.835L61.738 43.519H60.667L63.258 41.835H64.33Z" fill="#FCFCFC"/>
<path d="M65.338 11.596H66.409L68.294 12.822H67.223L65.338 11.596Z" fill="#FCFCFC"/>
<path d="M75.168 34.093H76.24L70.158 38.046H69.086L75.168 34.093Z" fill="#FCFCFC"/>
<path d="M67.067 39.359H68.139L65.741 40.917H64.67L67.067 39.359Z" fill="#FCFCFC"/>
<path d="M85.974 27.068H87.046L83.434 29.416H82.363L85.974 27.068Z" fill="#FCFCFC"/>
<path d="M55.947 5.492H57.019L64.368 10.269H63.297L55.947 5.492Z" fill="#FCFCFC"/>
<path d="M54.997 30.133H81.259L78.278 32.071H54.997V30.133Z" fill="#FCFCFC"/>
<path d="M54.997 27.068H85.974L82.363 29.416H54.997V27.068Z" fill="#FCFCFC"/>
<path d="M54.997 12.822V11.596H65.338L67.223 12.822H54.997Z" fill="#FCFCFC"/>
<path d="M54.997 5.492H55.947L63.297 10.269H54.997V5.492Z" fill="#FCFCFC"/>
<path d="M69.086 38.046H59.235V39.359H67.067L64.67 40.917H54.997V34.093H75.168L69.086 38.046Z" fill="#FCFCFC"/>
<path d="M55.891 46.624L54.997 47.205V46.624H55.891Z" fill="#FCFCFC"/>
<path d="M54.997 20.385H78.857L86.152 25.127H54.997V20.385Z" fill="#FCFCFC"/>
<path d="M63.258 41.835L60.667 43.519H54.997V41.835H63.258Z" fill="#FCFCFC"/>
<path d="M54.997 18.506H64.446V16.891H54.997V13.554H68.35L78.139 19.918H54.997V18.506Z" fill="#FCFCFC"/>
<path d="M50.712 46.624H49.641V43.519H50.712V46.624Z" fill="#E31010"/>
<path d="M52.855 46.624H50.712V43.519H52.855V46.624Z" fill="#E75CEE"/>
<path d="M53.926 46.624H52.855V43.519H53.926V46.624Z" fill="#FCFC53"/>
<path d="M69.237 43.519H70.309L65.533 46.624H64.461L69.237 43.519Z" fill="#195FF5"/>
<path d="M67.095 43.519H69.237L64.461 46.624H62.319L67.095 43.519Z" fill="#19F5EE"/>
<path d="M56.069 46.624H53.926V43.519H56.069V46.624Z" fill="#FCFCFC"/>
<path d="M57.14 46.624H56.069V43.519H57.14V46.624Z" fill="#FCFCFC"/>
<path d="M66.024 43.519H67.095L62.319 46.624H61.248L66.024 43.519Z" fill="#FCFCFC"/>
<path d="M66.024 43.519L61.248 46.624H59.105L63.881 43.519H66.024Z" fill="#FCFCFC"/>
<path d="M62.81 43.519H63.881L59.105 46.624H58.034L62.81 43.519Z" fill="#FCFCFC"/>
<path d="M58.034 46.624H57.14V43.519H62.81L58.034 46.624Z" fill="#FCFCFC"/>
<path d="M43.213 41.835H42.142V40.917H43.213V41.835Z" fill="#E31010"/>
<path d="M45.355 41.835H43.213V40.917H45.355V41.835Z" fill="#E75CEE"/>
<path d="M46.427 41.835H45.356V40.917H46.427V41.835Z" fill="#FCFC53"/>
<path d="M65.741 40.917H66.812L65.401 41.835H64.33L65.741 40.917Z" fill="#195FF5"/>
<path d="M63.598 40.917H65.741L64.33 41.835H62.187L63.598 40.917Z" fill="#19F5EE"/>
<path d="M48.569 41.835H46.427V40.917H48.569V41.835Z" fill="#FCFCFC"/>
<path d="M49.641 41.835H48.57V40.917H49.641V41.835Z" fill="#FCFCFC"/>
<path d="M62.527 40.917H63.598L62.187 41.835H61.116L62.527 40.917Z" fill="#FCFCFC"/>
<path d="M60.385 40.917H62.527L61.116 41.835H58.973L60.385 40.917Z" fill="#FCFCFC"/>
<path d="M59.313 40.917H60.385L58.973 41.835H57.902L59.313 40.917Z" fill="#FCFCFC"/>
<path d="M57.902 41.835H49.641V40.917H59.313L57.902 41.835Z" fill="#FCFCFC"/>
<path d="M50.712 34.093H49.641V32.071H50.712V34.093Z" fill="#E31010"/>
<path d="M52.855 34.093H50.712V32.071H52.855V34.093Z" fill="#E75CEE"/>
<path d="M53.926 34.093H52.855V32.071H53.926V34.093Z" fill="#FCFC53"/>
<path d="M86.848 32.071H87.92L84.81 34.093H83.738L86.848 32.071Z" fill="#195FF5"/>
<path d="M84.706 32.071H86.848L83.738 34.093H81.596L84.706 32.071Z" fill="#19F5EE"/>
<path d="M56.069 34.093H53.926V32.071H56.069V34.093Z" fill="#FCFCFC"/>
<path d="M57.14 34.093H56.069V32.071H57.14V34.093Z" fill="#FCFCFC"/>
<path d="M83.634 32.071H84.706L81.596 34.093H80.525L83.634 32.071Z" fill="#FCFCFC"/>
<path d="M81.492 32.071H83.634L80.525 34.093H78.382L81.492 32.071Z" fill="#FCFCFC"/>
<path d="M80.421 32.071H81.492L78.382 34.093H77.311L80.421 32.071Z" fill="#FCFCFC"/>
<path d="M57.14 34.093V32.071H80.421L77.311 34.093H57.14Z" fill="#FCFCFC"/>
<path d="M51.783 27.068H50.712V25.127H51.783V27.068Z" fill="#E31010"/>
<path d="M53.926 27.068H51.783V25.127H53.926V27.068Z" fill="#E75CEE"/>
<path d="M54.997 27.068H53.926V25.127H54.997V27.068Z" fill="#FCFC53"/>
<path d="M97.198 26.04L95.794 25.127H96.865L98.269 26.04L96.687 27.068H95.616L97.198 26.04Z" fill="#195FF5"/>
<path d="M95.616 27.068H93.473L95.055 26.04L93.651 25.127H95.794L97.198 26.04L95.616 27.068Z" fill="#19F5EE"/>
<path d="M57.139 27.068H54.997V25.127H57.139V27.068Z" fill="#FCFCFC"/>
<path d="M58.211 27.068H57.14V25.127H58.211V27.068Z" fill="#FCFCFC"/>
<path d="M93.984 26.04L92.58 25.127H93.651L95.055 26.04L93.473 27.068H92.402L93.984 26.04Z" fill="#FCFCFC"/>
<path d="M91.841 26.04L90.437 25.127H92.58L93.984 26.04L92.402 27.068H90.259L91.841 26.04Z" fill="#FCFCFC"/>
<path d="M90.77 26.04L89.366 25.127H90.437L91.841 26.04L90.259 27.068H89.188L90.77 26.04Z" fill="#FCFCFC"/>
<path d="M58.211 25.127H89.366L90.77 26.04L89.188 27.068H58.211V25.127Z" fill="#FCFCFC"/>
<path d="M45.356 20.385H44.285V19.918H45.356V20.385Z" fill="#E31010"/>
<path d="M47.498 20.385H45.356V19.918H47.498V20.385Z" fill="#E75CEE"/>
<path d="M48.569 20.385H47.498V19.918H48.569V20.385Z" fill="#FCFC53"/>
<path d="M81.352 19.918H82.424L83.142 20.385H82.071L81.352 19.918Z" fill="#195FF5"/>
<path d="M79.21 19.918H81.352L82.071 20.385H79.929L79.21 19.918Z" fill="#19F5EE"/>
<path d="M50.712 20.385H48.57V19.918H50.712V20.385Z" fill="#FCFCFC"/>
<path d="M51.783 20.385H50.712V19.918H51.783V20.385Z" fill="#FCFCFC"/>
<path d="M78.139 19.918H79.21L79.929 20.385H78.857L78.139 19.918Z" fill="#FCFCFC"/>
<path d="M75.996 19.918H78.139L78.857 20.385H76.715L75.996 19.918Z" fill="#FCFCFC"/>
<path d="M74.925 19.918H75.996L76.715 20.385H75.643L74.925 19.918Z" fill="#FCFCFC"/>
<path d="M51.783 19.918H74.925L75.643 20.385H51.783V19.918Z" fill="#FCFCFC"/>
<path d="M50.712 11.596H49.641V10.269H50.712V11.596Z" fill="#E31010"/>
<path d="M52.855 11.596H50.712V10.269H52.855V11.596Z" fill="#E75CEE"/>
<path d="M53.926 11.596H52.855V10.269H53.926V11.596Z" fill="#FCFC53"/>
<path d="M71.867 10.269H72.938L74.979 11.596H73.908L71.867 10.269Z" fill="#195FF5"/>
<path d="M69.724 10.269H71.867L73.908 11.596H71.766L69.724 10.269Z" fill="#19F5EE"/>
<path d="M56.069 11.596H53.926V10.269H56.069V11.596Z" fill="#FCFCFC"/>
<path d="M57.14 11.596H56.069V10.269H57.14V11.596Z" fill="#FCFCFC"/>
<path d="M68.653 10.269H69.724L71.766 11.596H70.694L68.653 10.269Z" fill="#FCFCFC"/>
<path d="M66.51 10.269H68.653L70.694 11.596H68.552L66.51 10.269Z" fill="#FCFCFC"/>
<path d="M67.481 11.596L65.439 10.269H66.51L68.552 11.596H67.481Z" fill="#FCFCFC"/>
<path d="M57.14 10.269H65.439L67.481 11.596H57.14V10.269Z" fill="#FCFCFC"/>
<path d="M57.14 13.554H56.069V12.821H57.14V13.554Z" fill="#E31010"/>
<path d="M59.283 13.554H57.14V12.821H59.283V13.554Z" fill="#E75CEE"/>
<path d="M60.353 13.554H59.282V12.821H60.353V13.554Z" fill="#FCFC53"/>
<path d="M82.22 12.822H83.292L84.419 13.554H83.347L82.22 12.822Z" fill="#195FF5"/>
<path d="M80.078 12.822H82.22L83.347 13.554H81.205L80.078 12.822Z" fill="#19F5EE"/>
<path d="M62.497 13.554H60.354V12.821H62.497V13.554Z" fill="#FCFCFC"/>
<path d="M63.567 13.554H62.496V12.821H63.567V13.554Z" fill="#FCFCFC"/>
<path d="M79.007 12.822H80.078L81.205 13.554H80.134L79.007 12.822Z" fill="#FCFCFC"/>
<path d="M76.864 12.822H79.007L80.134 13.554H77.991L76.864 12.822Z" fill="#FCFCFC"/>
<path d="M75.793 12.822H76.864L77.991 13.554H76.92L75.793 12.822Z" fill="#FCFCFC"/>
<path d="M63.567 12.822H75.793L76.92 13.554H63.567V12.822Z" fill="#FCFCFC"/>
<path d="M46.427 5.492H45.356V4.17502H46.427V5.492Z" fill="#E31010"/>
<path d="M48.569 5.492H46.427V4.17502H48.569V5.492Z" fill="#E75CEE"/>
<path d="M49.641 5.492H48.57V4.17502H49.641V5.492Z" fill="#FCFC53"/>
<path d="M58.206 4.17502H59.277L61.304 5.492H60.233L58.206 4.17502Z" fill="#195FF5"/>
<path d="M56.063 4.17502H58.206L60.233 5.492H58.09L56.063 4.17502Z" fill="#19F5EE"/>
<path d="M53.921 4.17502H53.926V4.17801L53.921 4.17502Z" fill="#FCFCFC"/>
<path d="M51.783 5.492H49.641V4.17502H51.778L51.783 4.17801V5.492Z" fill="#FCFCFC"/>
<path d="M54.992 4.17502H54.997V4.17801L54.992 4.17502Z" fill="#FCFCFC"/>
<path d="M52.855 4.87399L51.783 4.17801V4.17502H52.85L52.855 4.17801V4.87399Z" fill="#FCFCFC"/>
<path d="M51.783 5.492V4.17801L52.855 4.87399V5.492H51.783Z" fill="#FCFCFC"/>
<path d="M57.019 5.492L54.992 4.17502H56.063L58.09 5.492H57.019Z" fill="#FCFCFC"/>
<path d="M52.855 4.17801V4.17502H54.992L57.019 5.492H54.876L52.855 4.17801Z" fill="#FCFCFC"/>
<path d="M52.855 4.87399V4.17801L54.876 5.492H53.805L52.855 4.87399Z" fill="#FCFCFC"/>
<path d="M52.855 5.492V4.87399L53.805 5.492H52.855Z" fill="#FCFCFC"/>
<path d="M79.799 38.046H80.87L78.851 39.359H77.78L79.799 38.046Z" fill="#195FF5"/>
<path d="M77.656 38.046H79.799L77.78 39.359H75.637L77.656 38.046Z" fill="#19F5EE"/>
<path d="M76.585 38.046H77.656L75.637 39.359H74.566L76.585 38.046Z" fill="#FCFCFC"/>
<path d="M74.443 38.046H76.585L74.566 39.359H72.424L74.443 38.046Z" fill="#FCFCFC"/>
<path d="M73.371 38.046H74.443L72.424 39.359H71.352L73.371 38.046Z" fill="#FCFCFC"/>
<path d="M59.235 38.046H69.086L67.067 39.359H59.235V38.046Z" fill="#FCFCFC"/>
<path d="M46.427 49.208H45.356V48.19H46.427V49.208Z" fill="#E31010"/>
<path d="M48.569 49.208H46.427V48.19H48.569V49.208Z" fill="#E75CEE"/>
<path d="M49.641 49.208H48.57V48.19H49.641V49.208Z" fill="#FCFC53"/>
<path d="M57.767 48.19H58.839L57.273 49.208H56.201L57.767 48.19Z" fill="#195FF5"/>
<path d="M57.767 48.19L56.201 49.208H54.059L55.625 48.19H57.767Z" fill="#19F5EE"/>
<path d="M51.783 49.208H50.845L51.783 48.598V49.208Z" fill="#FCFCFC"/>
<path d="M51.34 48.19H51.783V48.598L50.845 49.208H49.774L51.34 48.19Z" fill="#FCFCFC"/>
<path d="M49.774 49.208H49.641V48.19H51.34L49.774 49.208Z" fill="#FCFCFC"/>
<path d="M52.411 48.19H52.855V49.208H51.783V48.598L52.411 48.19Z" fill="#FCFCFC"/>
<path d="M51.783 48.598V48.19H52.411L51.783 48.598Z" fill="#FCFCFC"/>
<path d="M54.554 48.19H55.625L54.059 49.208H52.988L54.554 48.19Z" fill="#FCFCFC"/>
<path d="M52.988 49.208H52.855V48.19H54.554L52.988 49.208Z" fill="#FCFCFC"/>
<path d="M46.427 18.506H45.356V16.891H46.427V18.506Z" fill="#E31010"/>
<path d="M48.569 18.506H46.427V16.891H48.569V18.506Z" fill="#E75CEE"/>
<path d="M49.641 18.506H48.57V16.891H49.641V18.506Z" fill="#FCFC53"/>
<path d="M51.783 18.506H49.641V16.891H51.783V18.506Z" fill="#FCFCFC"/>
<path d="M52.854 18.506H51.783V16.891H52.854V18.506Z" fill="#FCFCFC"/>
<path d="M64.446 18.506H54.997V16.891H64.446V18.506Z" fill="#FCFCFC"/>
<path d="M41.071 30.133H40V29.416H41.071V30.133Z" fill="#E31010"/>
<path d="M43.214 30.133H41.071V29.416H43.214V30.133Z" fill="#E75CEE"/>
<path d="M44.284 30.133H43.213V29.416H44.284V30.133Z" fill="#FCFC53"/>
<path d="M81.292 29.416H82.363L81.259 30.133H80.188L81.292 29.416Z" fill="#195FF5"/>
<path d="M79.149 29.416H81.292L80.188 30.133H78.046L79.149 29.416Z" fill="#19F5EE"/>
<path d="M46.428 30.133H44.285V29.416H46.428V30.133Z" fill="#FCFCFC"/>
<path d="M47.498 30.133H46.427V29.416H47.498V30.133Z" fill="#FCFCFC"/>
<path d="M78.078 29.416H79.149L78.046 30.133H76.974L78.078 29.416Z" fill="#FCFCFC"/>
<path d="M74.832 30.133L75.935 29.416H78.078L76.974 30.133H74.832Z" fill="#FCFCFC"/>
<path d="M74.864 29.416H75.935L74.832 30.133H73.761L74.864 29.416Z" fill="#FCFCFC"/>
<path d="M47.498 29.416H74.864L73.761 30.133H47.498V29.416Z" fill="#FCFCFC"/>
</svg>
